<?xml version="1.0" encoding="utf-8" standalone="no"?>
<!DOCTYPE svg PUBLIC "-//W3C//DTD SVG 1.1//EN"
  "http://www.w3.org/Graphics/SVG/1.1/DTD/svg11.dtd">
<svg xmlns:xlink="http://www.w3.org/1999/xlink" width="761.955pt" height="266.4pt" viewBox="0 0 761.955 266.4" xmlns="http://www.w3.org/2000/svg" version="1.1">
 <metadata>
  <rdf:RDF xmlns:dc="http://purl.org/dc/elements/1.1/" xmlns:cc="http://creativecommons.org/ns#" xmlns:rdf="http://www.w3.org/1999/02/22-rdf-syntax-ns#">
   <cc:Work>
    <dc:type rdf:resource="http://purl.org/dc/dcmitype/StillImage"/>
    <dc:date>2026-03-09T17:41:16.827794</dc:date>
    <dc:format>image/svg+xml</dc:format>
    <dc:creator>
     <cc:Agent>
      <dc:title>Matplotlib v3.10.5, https://matplotlib.org/</dc:title>
     </cc:Agent>
    </dc:creator>
   </cc:Work>
  </rdf:RDF>
 </metadata>
 <defs>
  <style type="text/css">*{stroke-linejoin: round; stroke-linecap: butt}</style>
 </defs>
 <g id="figure_1">
  <g id="patch_1">
   <path d="M 0 266.4 
L 761.955 266.4 
L 761.955 0 
L 0 0 
z
" style="fill: #ffffff"/>
  </g>
  <g id="axes_1">
   <g id="patch_2">
    <path d="M 11.434375 166.8 
L 87.653125 166.8 
L 87.653125 86.16 
L 11.434375 86.16 
z
" clip-path="url(#p4619b46066)" style="fill: #f4f4f4; stroke: #111111; stroke-width: 1.5; stroke-linejoin: miter"/>
   </g>
   <g id="patch_3">
    <path d="M 96.121875 166.8 
L 172.340625 166.8 
L 172.340625 86.16 
L 96.121875 86.16 
z
" clip-path="url(#p4619b46066)" style="fill: #e0e0e0; stroke: #111111; stroke-width: 1.5; stroke-linejoin: miter"/>
   </g>
   <g id="patch_4">
    <path d="M 180.809375 166.8 
L 257.028125 166.8 
L 257.028125 86.16 
L 180.809375 86.16 
z
" clip-path="url(#p4619b46066)" style="fill: #c7c7c7; stroke: #111111; stroke-width: 1.5; stroke-linejoin: miter"/>
   </g>
   <g id="patch_5">
    <path d="M 265.496875 166.8 
L 341.715625 166.8 
L 341.715625 86.16 
L 265.496875 86.16 
z
" clip-path="url(#p4619b46066)" style="fill: #9e9e9e; stroke: #111111; stroke-width: 1.5; stroke-linejoin: miter"/>
   </g>
   <g id="patch_6">
    <path d="M 350.184375 166.8 
L 426.403125 166.8 
L 426.403125 86.16 
L 350.184375 86.16 
z
" clip-path="url(#p4619b46066)" style="fill: #6b6b6b; stroke: #111111; stroke-width: 1.5; stroke-linejoin: miter"/>
   </g>
   <g id="patch_7">
    <path d="M 434.871875 166.8 
L 511.090625 166.8 
L 511.090625 86.16 
L 434.871875 86.16 
z
" clip-path="url(#p4619b46066)" style="fill: #2f2f2f; stroke: #111111; stroke-width: 1.5; stroke-linejoin: miter"/>
   </g>
   <g id="text_1">
    <!-- I -->
    <g style="fill: #111111" transform="translate(46.939531 64.768438) scale(0.14 -0.14)">
     <defs>
      <path id="DejaVuSans-Bold-49" d="M 588 4666 
L 1791 4666 
L 1791 0 
L 588 0 
L 588 4666 
z
" transform="scale(0.015625)"/>
     </defs>
     <use xlink:href="#DejaVuSans-Bold-49"/>
    </g>
   </g>
   <g id="text_2">
    <!-- Always burns -->
    <g style="fill: #111111" transform="translate(19.66375 202.198594) scale(0.09 -0.09)">
     <defs>
      <path id="DejaVuSans-41" d="M 2188 4044 
L 1331 1722 
L 3047 1722 
L 2188 4044 
z
M 1831 4666 
L 2547 4666 
L 4325 0 
L 3669 0 
L 3244 1197 
L 1141 1197 
L 716 0 
L 50 0 
L 1831 4666 
z
" transform="scale(0.015625)"/>
      <path id="DejaVuSans-6c" d="M 603 4863 
L 1178 4863 
L 1178 0 
L 603 0 
L 603 4863 
z
" transform="scale(0.015625)"/>
      <path id="DejaVuSans-77" d="M 269 3500 
L 844 3500 
L 1563 769 
L 2278 3500 
L 2956 3500 
L 3675 769 
L 4391 3500 
L 4966 3500 
L 4050 0 
L 3372 0 
L 2619 2869 
L 1863 0 
L 1184 0 
L 269 3500 
z
" transform="scale(0.015625)"/>
      <path id="DejaVuSans-61" d="M 2194 1759 
Q 1497 1759 1228 1600 
Q 959 1441 959 1056 
Q 959 750 1161 570 
Q 1363 391 1709 391 
Q 2188 391 2477 730 
Q 2766 1069 2766 1631 
L 2766 1759 
L 2194 1759 
z
M 3341 1997 
L 3341 0 
L 2766 0 
L 2766 531 
Q 2569 213 2275 61 
Q 1981 -91 1556 -91 
Q 1019 -91 701 211 
Q 384 513 384 1019 
Q 384 1609 779 1909 
Q 1175 2209 1959 2209 
L 2766 2209 
L 2766 2266 
Q 2766 2663 2505 2880 
Q 2244 3097 1772 3097 
Q 1472 3097 1187 3025 
Q 903 2953 641 2809 
L 641 3341 
Q 956 3463 1253 3523 
Q 1550 3584 1831 3584 
Q 2591 3584 2966 3190 
Q 3341 2797 3341 1997 
z
" transform="scale(0.015625)"/>
      <path id="DejaVuSans-79" d="M 2059 -325 
Q 1816 -950 1584 -1140 
Q 1353 -1331 966 -1331 
L 506 -1331 
L 506 -850 
L 844 -850 
Q 1081 -850 1212 -737 
Q 1344 -625 1503 -206 
L 1606 56 
L 191 3500 
L 800 3500 
L 1894 763 
L 2988 3500 
L 3597 3500 
L 2059 -325 
z
" transform="scale(0.015625)"/>
      <path id="DejaVuSans-73" d="M 2834 3397 
L 2834 2853 
Q 2591 2978 2328 3040 
Q 2066 3103 1784 3103 
Q 1356 3103 1142 2972 
Q 928 2841 928 2578 
Q 928 2378 1081 2264 
Q 1234 2150 1697 2047 
L 1894 2003 
Q 2506 1872 2764 1633 
Q 3022 1394 3022 966 
Q 3022 478 2636 193 
Q 2250 -91 1575 -91 
Q 1294 -91 989 -36 
Q 684 19 347 128 
L 347 722 
Q 666 556 975 473 
Q 1284 391 1588 391 
Q 1994 391 2212 530 
Q 2431 669 2431 922 
Q 2431 1156 2273 1281 
Q 2116 1406 1581 1522 
L 1381 1569 
Q 847 1681 609 1914 
Q 372 2147 372 2553 
Q 372 3047 722 3315 
Q 1072 3584 1716 3584 
Q 2034 3584 2315 3537 
Q 2597 3491 2834 3397 
z
" transform="scale(0.015625)"/>
      <path id="DejaVuSans-20" transform="scale(0.015625)"/>
      <path id="DejaVuSans-62" d="M 3116 1747 
Q 3116 2381 2855 2742 
Q 2594 3103 2138 3103 
Q 1681 3103 1420 2742 
Q 1159 2381 1159 1747 
Q 1159 1113 1420 752 
Q 1681 391 2138 391 
Q 2594 391 2855 752 
Q 3116 1113 3116 1747 
z
M 1159 2969 
Q 1341 3281 1617 3432 
Q 1894 3584 2278 3584 
Q 2916 3584 3314 3078 
Q 3713 2572 3713 1747 
Q 3713 922 3314 415 
Q 2916 -91 2278 -91 
Q 1894 -91 1617 61 
Q 1341 213 1159 525 
L 1159 0 
L 581 0 
L 581 4863 
L 1159 4863 
L 1159 2969 
z
" transform="scale(0.015625)"/>
      <path id="DejaVuSans-75" d="M 544 1381 
L 544 3500 
L 1119 3500 
L 1119 1403 
Q 1119 906 1312 657 
Q 1506 409 1894 409 
Q 2359 409 2629 706 
Q 2900 1003 2900 1516 
L 2900 3500 
L 3475 3500 
L 3475 0 
L 2900 0 
L 2900 538 
Q 2691 219 2414 64 
Q 2138 -91 1772 -91 
Q 1169 -91 856 284 
Q 544 659 544 1381 
z
M 1991 3584 
L 1991 3584 
z
" transform="scale(0.015625)"/>
      <path id="DejaVuSans-72" d="M 2631 2963 
Q 2534 3019 2420 3045 
Q 2306 3072 2169 3072 
Q 1681 3072 1420 2755 
Q 1159 2438 1159 1844 
L 1159 0 
L 581 0 
L 581 3500 
L 1159 3500 
L 1159 2956 
Q 1341 3275 1631 3429 
Q 1922 3584 2338 3584 
Q 2397 3584 2469 3576 
Q 2541 3569 2628 3553 
L 2631 2963 
z
" transform="scale(0.015625)"/>
      <path id="DejaVuSans-6e" d="M 3513 2113 
L 3513 0 
L 2938 0 
L 2938 2094 
Q 2938 2591 2744 2837 
Q 2550 3084 2163 3084 
Q 1697 3084 1428 2787 
Q 1159 2491 1159 1978 
L 1159 0 
L 581 0 
L 581 3500 
L 1159 3500 
L 1159 2956 
Q 1366 3272 1645 3428 
Q 1925 3584 2291 3584 
Q 2894 3584 3203 3211 
Q 3513 2838 3513 2113 
z
" transform="scale(0.015625)"/>
     </defs>
     <use xlink:href="#DejaVuSans-41"/>
     <use xlink:href="#DejaVuSans-6c" transform="translate(68.408203 0)"/>
     <use xlink:href="#DejaVuSans-77" transform="translate(96.191406 0)"/>
     <use xlink:href="#DejaVuSans-61" transform="translate(177.978516 0)"/>
     <use xlink:href="#DejaVuSans-79" transform="translate(239.257812 0)"/>
     <use xlink:href="#DejaVuSans-73" transform="translate(298.4375 0)"/>
     <use xlink:href="#DejaVuSans-20" transform="translate(350.537109 0)"/>
     <use xlink:href="#DejaVuSans-62" transform="translate(382.324219 0)"/>
     <use xlink:href="#DejaVuSans-75" transform="translate(445.800781 0)"/>
     <use xlink:href="#DejaVuSans-72" transform="translate(509.179688 0)"/>
     <use xlink:href="#DejaVuSans-6e" transform="translate(548.542969 0)"/>
     <use xlink:href="#DejaVuSans-73" transform="translate(611.921875 0)"/>
    </g>
   </g>
   <g id="text_3">
    <!-- II -->
    <g style="fill: #111111" transform="translate(129.022812 64.768438) scale(0.14 -0.14)">
     <use xlink:href="#DejaVuSans-Bold-49"/>
     <use xlink:href="#DejaVuSans-Bold-49" transform="translate(37.207031 0)"/>
    </g>
   </g>
   <g id="text_4">
    <!-- Usually burns -->
    <g style="fill: #111111" transform="translate(103.714219 202.198594) scale(0.09 -0.09)">
     <defs>
      <path id="DejaVuSans-55" d="M 556 4666 
L 1191 4666 
L 1191 1831 
Q 1191 1081 1462 751 
Q 1734 422 2344 422 
Q 2950 422 3222 751 
Q 3494 1081 3494 1831 
L 3494 4666 
L 4128 4666 
L 4128 1753 
Q 4128 841 3676 375 
Q 3225 -91 2344 -91 
Q 1459 -91 1007 375 
Q 556 841 556 1753 
L 556 4666 
z
" transform="scale(0.015625)"/>
     </defs>
     <use xlink:href="#DejaVuSans-55"/>
     <use xlink:href="#DejaVuSans-73" transform="translate(73.193359 0)"/>
     <use xlink:href="#DejaVuSans-75" transform="translate(125.292969 0)"/>
     <use xlink:href="#DejaVuSans-61" transform="translate(188.671875 0)"/>
     <use xlink:href="#DejaVuSans-6c" transform="translate(249.951172 0)"/>
     <use xlink:href="#DejaVuSans-6c" transform="translate(277.734375 0)"/>
     <use xlink:href="#DejaVuSans-79" transform="translate(305.517578 0)"/>
     <use xlink:href="#DejaVuSans-20" transform="translate(364.697266 0)"/>
     <use xlink:href="#DejaVuSans-62" transform="translate(396.484375 0)"/>
     <use xlink:href="#DejaVuSans-75" transform="translate(459.960938 0)"/>
     <use xlink:href="#DejaVuSans-72" transform="translate(523.339844 0)"/>
     <use xlink:href="#DejaVuSans-6e" transform="translate(562.703125 0)"/>
     <use xlink:href="#DejaVuSans-73" transform="translate(626.082031 0)"/>
    </g>
   </g>
   <g id="text_5">
    <!-- III -->
    <g style="fill: #111111" transform="translate(211.106094 64.768438) scale(0.14 -0.14)">
     <use xlink:href="#DejaVuSans-Bold-49"/>
     <use xlink:href="#DejaVuSans-Bold-49" transform="translate(37.207031 0)"/>
     <use xlink:href="#DejaVuSans-Bold-49" transform="translate(74.414062 0)"/>
    </g>
   </g>
   <g id="text_6">
    <!-- Sometimes mild burn -->
    <g style="fill: #111111" transform="translate(170.713203 202.198594) scale(0.09 -0.09)">
     <defs>
      <path id="DejaVuSans-53" d="M 3425 4513 
L 3425 3897 
Q 3066 4069 2747 4153 
Q 2428 4238 2131 4238 
Q 1616 4238 1336 4038 
Q 1056 3838 1056 3469 
Q 1056 3159 1242 3001 
Q 1428 2844 1947 2747 
L 2328 2669 
Q 3034 2534 3370 2195 
Q 3706 1856 3706 1288 
Q 3706 609 3251 259 
Q 2797 -91 1919 -91 
Q 1588 -91 1214 -16 
Q 841 59 441 206 
L 441 856 
Q 825 641 1194 531 
Q 1563 422 1919 422 
Q 2459 422 2753 634 
Q 3047 847 3047 1241 
Q 3047 1584 2836 1778 
Q 2625 1972 2144 2069 
L 1759 2144 
Q 1053 2284 737 2584 
Q 422 2884 422 3419 
Q 422 4038 858 4394 
Q 1294 4750 2059 4750 
Q 2388 4750 2728 4690 
Q 3069 4631 3425 4513 
z
" transform="scale(0.015625)"/>
      <path id="DejaVuSans-6f" d="M 1959 3097 
Q 1497 3097 1228 2736 
Q 959 2375 959 1747 
Q 959 1119 1226 758 
Q 1494 397 1959 397 
Q 2419 397 2687 759 
Q 2956 1122 2956 1747 
Q 2956 2369 2687 2733 
Q 2419 3097 1959 3097 
z
M 1959 3584 
Q 2709 3584 3137 3096 
Q 3566 2609 3566 1747 
Q 3566 888 3137 398 
Q 2709 -91 1959 -91 
Q 1206 -91 779 398 
Q 353 888 353 1747 
Q 353 2609 779 3096 
Q 1206 3584 1959 3584 
z
" transform="scale(0.015625)"/>
      <path id="DejaVuSans-6d" d="M 3328 2828 
Q 3544 3216 3844 3400 
Q 4144 3584 4550 3584 
Q 5097 3584 5394 3201 
Q 5691 2819 5691 2113 
L 5691 0 
L 5113 0 
L 5113 2094 
Q 5113 2597 4934 2840 
Q 4756 3084 4391 3084 
Q 3944 3084 3684 2787 
Q 3425 2491 3425 1978 
L 3425 0 
L 2847 0 
L 2847 2094 
Q 2847 2600 2669 2842 
Q 2491 3084 2119 3084 
Q 1678 3084 1418 2786 
Q 1159 2488 1159 1978 
L 1159 0 
L 581 0 
L 581 3500 
L 1159 3500 
L 1159 2956 
Q 1356 3278 1631 3431 
Q 1906 3584 2284 3584 
Q 2666 3584 2933 3390 
Q 3200 3197 3328 2828 
z
" transform="scale(0.015625)"/>
      <path id="DejaVuSans-65" d="M 3597 1894 
L 3597 1613 
L 953 1613 
Q 991 1019 1311 708 
Q 1631 397 2203 397 
Q 2534 397 2845 478 
Q 3156 559 3463 722 
L 3463 178 
Q 3153 47 2828 -22 
Q 2503 -91 2169 -91 
Q 1331 -91 842 396 
Q 353 884 353 1716 
Q 353 2575 817 3079 
Q 1281 3584 2069 3584 
Q 2775 3584 3186 3129 
Q 3597 2675 3597 1894 
z
M 3022 2063 
Q 3016 2534 2758 2815 
Q 2500 3097 2075 3097 
Q 1594 3097 1305 2825 
Q 1016 2553 972 2059 
L 3022 2063 
z
" transform="scale(0.015625)"/>
      <path id="DejaVuSans-74" d="M 1172 4494 
L 1172 3500 
L 2356 3500 
L 2356 3053 
L 1172 3053 
L 1172 1153 
Q 1172 725 1289 603 
Q 1406 481 1766 481 
L 2356 481 
L 2356 0 
L 1766 0 
Q 1100 0 847 248 
Q 594 497 594 1153 
L 594 3053 
L 172 3053 
L 172 3500 
L 594 3500 
L 594 4494 
L 1172 4494 
z
" transform="scale(0.015625)"/>
      <path id="DejaVuSans-69" d="M 603 3500 
L 1178 3500 
L 1178 0 
L 603 0 
L 603 3500 
z
M 603 4863 
L 1178 4863 
L 1178 4134 
L 603 4134 
L 603 4863 
z
" transform="scale(0.015625)"/>
      <path id="DejaVuSans-64" d="M 2906 2969 
L 2906 4863 
L 3481 4863 
L 3481 0 
L 2906 0 
L 2906 525 
Q 2725 213 2448 61 
Q 2172 -91 1784 -91 
Q 1150 -91 751 415 
Q 353 922 353 1747 
Q 353 2572 751 3078 
Q 1150 3584 1784 3584 
Q 2172 3584 2448 3432 
Q 2725 3281 2906 2969 
z
M 947 1747 
Q 947 1113 1208 752 
Q 1469 391 1925 391 
Q 2381 391 2643 752 
Q 2906 1113 2906 1747 
Q 2906 2381 2643 2742 
Q 2381 3103 1925 3103 
Q 1469 3103 1208 2742 
Q 947 2381 947 1747 
z
" transform="scale(0.015625)"/>
     </defs>
     <use xlink:href="#DejaVuSans-53"/>
     <use xlink:href="#DejaVuSans-6f" transform="translate(63.476562 0)"/>
     <use xlink:href="#DejaVuSans-6d" transform="translate(124.658203 0)"/>
     <use xlink:href="#DejaVuSans-65" transform="translate(222.070312 0)"/>
     <use xlink:href="#DejaVuSans-74" transform="translate(283.59375 0)"/>
     <use xlink:href="#DejaVuSans-69" transform="translate(322.802734 0)"/>
     <use xlink:href="#DejaVuSans-6d" transform="translate(350.585938 0)"/>
     <use xlink:href="#DejaVuSans-65" transform="translate(447.998047 0)"/>
     <use xlink:href="#DejaVuSans-73" transform="translate(509.521484 0)"/>
     <use xlink:href="#DejaVuSans-20" transform="translate(561.621094 0)"/>
     <use xlink:href="#DejaVuSans-6d" transform="translate(593.408203 0)"/>
     <use xlink:href="#DejaVuSans-69" transform="translate(690.820312 0)"/>
     <use xlink:href="#DejaVuSans-6c" transform="translate(718.603516 0)"/>
     <use xlink:href="#DejaVuSans-64" transform="translate(746.386719 0)"/>
     <use xlink:href="#DejaVuSans-20" transform="translate(809.863281 0)"/>
     <use xlink:href="#DejaVuSans-62" transform="translate(841.650391 0)"/>
     <use xlink:href="#DejaVuSans-75" transform="translate(905.126953 0)"/>
     <use xlink:href="#DejaVuSans-72" transform="translate(968.505859 0)"/>
     <use xlink:href="#DejaVuSans-6e" transform="translate(1007.869141 0)"/>
    </g>
   </g>
   <g id="text_7">
    <!-- IV -->
    <g style="fill: #111111" transform="translate(295.584687 64.768438) scale(0.14 -0.14)">
     <defs>
      <path id="DejaVuSans-Bold-56" d="M 31 4666 
L 1241 4666 
L 2478 1222 
L 3713 4666 
L 4922 4666 
L 3194 0 
L 1759 0 
L 31 4666 
z
" transform="scale(0.015625)"/>
     </defs>
     <use xlink:href="#DejaVuSans-Bold-49"/>
     <use xlink:href="#DejaVuSans-Bold-56" transform="translate(37.207031 0)"/>
    </g>
   </g>
   <g id="text_8">
    <!-- Rarely burns -->
    <g style="fill: #111111" transform="translate(275.285781 202.198594) scale(0.09 -0.09)">
     <defs>
      <path id="DejaVuSans-52" d="M 2841 2188 
Q 3044 2119 3236 1894 
Q 3428 1669 3622 1275 
L 4263 0 
L 3584 0 
L 2988 1197 
Q 2756 1666 2539 1819 
Q 2322 1972 1947 1972 
L 1259 1972 
L 1259 0 
L 628 0 
L 628 4666 
L 2053 4666 
Q 2853 4666 3247 4331 
Q 3641 3997 3641 3322 
Q 3641 2881 3436 2590 
Q 3231 2300 2841 2188 
z
M 1259 4147 
L 1259 2491 
L 2053 2491 
Q 2509 2491 2742 2702 
Q 2975 2913 2975 3322 
Q 2975 3731 2742 3939 
Q 2509 4147 2053 4147 
L 1259 4147 
z
" transform="scale(0.015625)"/>
     </defs>
     <use xlink:href="#DejaVuSans-52"/>
     <use xlink:href="#DejaVuSans-61" transform="translate(67.232422 0)"/>
     <use xlink:href="#DejaVuSans-72" transform="translate(128.511719 0)"/>
     <use xlink:href="#DejaVuSans-65" transform="translate(167.375 0)"/>
     <use xlink:href="#DejaVuSans-6c" transform="translate(228.898438 0)"/>
     <use xlink:href="#DejaVuSans-79" transform="translate(256.681641 0)"/>
     <use xlink:href="#DejaVuSans-20" transform="translate(315.861328 0)"/>
     <use xlink:href="#DejaVuSans-62" transform="translate(347.648438 0)"/>
     <use xlink:href="#DejaVuSans-75" transform="translate(411.125 0)"/>
     <use xlink:href="#DejaVuSans-72" transform="translate(474.503906 0)"/>
     <use xlink:href="#DejaVuSans-6e" transform="translate(513.867188 0)"/>
     <use xlink:href="#DejaVuSans-73" transform="translate(577.246094 0)"/>
    </g>
   </g>
   <g id="text_9">
    <!-- V -->
    <g style="fill: #111111" transform="translate(382.876406 64.768438) scale(0.14 -0.14)">
     <use xlink:href="#DejaVuSans-Bold-56"/>
    </g>
   </g>
   <g id="text_10">
    <!-- Very rarely burns -->
    <g style="fill: #111111" transform="translate(349.706953 202.198594) scale(0.09 -0.09)">
     <defs>
      <path id="DejaVuSans-56" d="M 1831 0 
L 50 4666 
L 709 4666 
L 2188 738 
L 3669 4666 
L 4325 4666 
L 2547 0 
L 1831 0 
z
" transform="scale(0.015625)"/>
     </defs>
     <use xlink:href="#DejaVuSans-56"/>
     <use xlink:href="#DejaVuSans-65" transform="translate(60.658203 0)"/>
     <use xlink:href="#DejaVuSans-72" transform="translate(122.181641 0)"/>
     <use xlink:href="#DejaVuSans-79" transform="translate(163.294922 0)"/>
     <use xlink:href="#DejaVuSans-20" transform="translate(222.474609 0)"/>
     <use xlink:href="#DejaVuSans-72" transform="translate(254.261719 0)"/>
     <use xlink:href="#DejaVuSans-61" transform="translate(295.375 0)"/>
     <use xlink:href="#DejaVuSans-72" transform="translate(356.654297 0)"/>
     <use xlink:href="#DejaVuSans-65" transform="translate(395.517578 0)"/>
     <use xlink:href="#DejaVuSans-6c" transform="translate(457.041016 0)"/>
     <use xlink:href="#DejaVuSans-79" transform="translate(484.824219 0)"/>
     <use xlink:href="#DejaVuSans-20" transform="translate(544.003906 0)"/>
     <use xlink:href="#DejaVuSans-62" transform="translate(575.791016 0)"/>
     <use xlink:href="#DejaVuSans-75" transform="translate(639.267578 0)"/>
     <use xlink:href="#DejaVuSans-72" transform="translate(702.646484 0)"/>
     <use xlink:href="#DejaVuSans-6e" transform="translate(742.009766 0)"/>
     <use xlink:href="#DejaVuSans-73" transform="translate(805.388672 0)"/>
    </g>
   </g>
   <g id="text_11">
    <!-- VI -->
    <g style="fill: #111111" transform="translate(464.959687 64.768438) scale(0.14 -0.14)">
     <use xlink:href="#DejaVuSans-Bold-56"/>
     <use xlink:href="#DejaVuSans-Bold-49" transform="translate(77.392578 0)"/>
    </g>
   </g>
   <g id="text_12">
    <!-- Almost never burns -->
    <g style="fill: #111111" transform="translate(428.968437 202.198594) scale(0.09 -0.09)">
     <defs>
      <path id="DejaVuSans-76" d="M 191 3500 
L 800 3500 
L 1894 563 
L 2988 3500 
L 3597 3500 
L 2284 0 
L 1503 0 
L 191 3500 
z
" transform="scale(0.015625)"/>
     </defs>
     <use xlink:href="#DejaVuSans-41"/>
     <use xlink:href="#DejaVuSans-6c" transform="translate(68.408203 0)"/>
     <use xlink:href="#DejaVuSans-6d" transform="translate(96.191406 0)"/>
     <use xlink:href="#DejaVuSans-6f" transform="translate(193.603516 0)"/>
     <use xlink:href="#DejaVuSans-73" transform="translate(254.785156 0)"/>
     <use xlink:href="#DejaVuSans-74" transform="translate(306.884766 0)"/>
     <use xlink:href="#DejaVuSans-20" transform="translate(346.09375 0)"/>
     <use xlink:href="#DejaVuSans-6e" transform="translate(377.880859 0)"/>
     <use xlink:href="#DejaVuSans-65" transform="translate(441.259766 0)"/>
     <use xlink:href="#DejaVuSans-76" transform="translate(502.783203 0)"/>
     <use xlink:href="#DejaVuSans-65" transform="translate(561.962891 0)"/>
     <use xlink:href="#DejaVuSans-72" transform="translate(623.486328 0)"/>
     <use xlink:href="#DejaVuSans-20" transform="translate(664.599609 0)"/>
     <use xlink:href="#DejaVuSans-62" transform="translate(696.386719 0)"/>
     <use xlink:href="#DejaVuSans-75" transform="translate(759.863281 0)"/>
     <use xlink:href="#DejaVuSans-72" transform="translate(823.242188 0)"/>
     <use xlink:href="#DejaVuSans-6e" transform="translate(862.605469 0)"/>
     <use xlink:href="#DejaVuSans-73" transform="translate(925.984375 0)"/>
    </g>
   </g>
   <g id="text_13">
    <!-- The Fitzpatrick scale is a 6-step clinical skin-type scale originally designed around sun response, not as a frictionless image label. -->
    <g style="fill: #111111" transform="translate(8.89375 36.098203) scale(0.115 -0.115)">
     <defs>
      <path id="DejaVuSans-54" d="M -19 4666 
L 3928 4666 
L 3928 4134 
L 2272 4134 
L 2272 0 
L 1638 0 
L 1638 4134 
L -19 4134 
L -19 4666 
z
" transform="scale(0.015625)"/>
      <path id="DejaVuSans-68" d="M 3513 2113 
L 3513 0 
L 2938 0 
L 2938 2094 
Q 2938 2591 2744 2837 
Q 2550 3084 2163 3084 
Q 1697 3084 1428 2787 
Q 1159 2491 1159 1978 
L 1159 0 
L 581 0 
L 581 4863 
L 1159 4863 
L 1159 2956 
Q 1366 3272 1645 3428 
Q 1925 3584 2291 3584 
Q 2894 3584 3203 3211 
Q 3513 2838 3513 2113 
z
" transform="scale(0.015625)"/>
      <path id="DejaVuSans-46" d="M 628 4666 
L 3309 4666 
L 3309 4134 
L 1259 4134 
L 1259 2759 
L 3109 2759 
L 3109 2228 
L 1259 2228 
L 1259 0 
L 628 0 
L 628 4666 
z
" transform="scale(0.015625)"/>
      <path id="DejaVuSans-7a" d="M 353 3500 
L 3084 3500 
L 3084 2975 
L 922 459 
L 3084 459 
L 3084 0 
L 275 0 
L 275 525 
L 2438 3041 
L 353 3041 
L 353 3500 
z
" transform="scale(0.015625)"/>
      <path id="DejaVuSans-70" d="M 1159 525 
L 1159 -1331 
L 581 -1331 
L 581 3500 
L 1159 3500 
L 1159 2969 
Q 1341 3281 1617 3432 
Q 1894 3584 2278 3584 
Q 2916 3584 3314 3078 
Q 3713 2572 3713 1747 
Q 3713 922 3314 415 
Q 2916 -91 2278 -91 
Q 1894 -91 1617 61 
Q 1341 213 1159 525 
z
M 3116 1747 
Q 3116 2381 2855 2742 
Q 2594 3103 2138 3103 
Q 1681 3103 1420 2742 
Q 1159 2381 1159 1747 
Q 1159 1113 1420 752 
Q 1681 391 2138 391 
Q 2594 391 2855 752 
Q 3116 1113 3116 1747 
z
" transform="scale(0.015625)"/>
      <path id="DejaVuSans-63" d="M 3122 3366 
L 3122 2828 
Q 2878 2963 2633 3030 
Q 2388 3097 2138 3097 
Q 1578 3097 1268 2742 
Q 959 2388 959 1747 
Q 959 1106 1268 751 
Q 1578 397 2138 397 
Q 2388 397 2633 464 
Q 2878 531 3122 666 
L 3122 134 
Q 2881 22 2623 -34 
Q 2366 -91 2075 -91 
Q 1284 -91 818 406 
Q 353 903 353 1747 
Q 353 2603 823 3093 
Q 1294 3584 2113 3584 
Q 2378 3584 2631 3529 
Q 2884 3475 3122 3366 
z
" transform="scale(0.015625)"/>
      <path id="DejaVuSans-6b" d="M 581 4863 
L 1159 4863 
L 1159 1991 
L 2875 3500 
L 3609 3500 
L 1753 1863 
L 3688 0 
L 2938 0 
L 1159 1709 
L 1159 0 
L 581 0 
L 581 4863 
z
" transform="scale(0.015625)"/>
      <path id="DejaVuSans-36" d="M 2113 2584 
Q 1688 2584 1439 2293 
Q 1191 2003 1191 1497 
Q 1191 994 1439 701 
Q 1688 409 2113 409 
Q 2538 409 2786 701 
Q 3034 994 3034 1497 
Q 3034 2003 2786 2293 
Q 2538 2584 2113 2584 
z
M 3366 4563 
L 3366 3988 
Q 3128 4100 2886 4159 
Q 2644 4219 2406 4219 
Q 1781 4219 1451 3797 
Q 1122 3375 1075 2522 
Q 1259 2794 1537 2939 
Q 1816 3084 2150 3084 
Q 2853 3084 3261 2657 
Q 3669 2231 3669 1497 
Q 3669 778 3244 343 
Q 2819 -91 2113 -91 
Q 1303 -91 875 529 
Q 447 1150 447 2328 
Q 447 3434 972 4092 
Q 1497 4750 2381 4750 
Q 2619 4750 2861 4703 
Q 3103 4656 3366 4563 
z
" transform="scale(0.015625)"/>
      <path id="DejaVuSans-2d" d="M 313 2009 
L 1997 2009 
L 1997 1497 
L 313 1497 
L 313 2009 
z
" transform="scale(0.015625)"/>
      <path id="DejaVuSans-67" d="M 2906 1791 
Q 2906 2416 2648 2759 
Q 2391 3103 1925 3103 
Q 1463 3103 1205 2759 
Q 947 2416 947 1791 
Q 947 1169 1205 825 
Q 1463 481 1925 481 
Q 2391 481 2648 825 
Q 2906 1169 2906 1791 
z
M 3481 434 
Q 3481 -459 3084 -895 
Q 2688 -1331 1869 -1331 
Q 1566 -1331 1297 -1286 
Q 1028 -1241 775 -1147 
L 775 -588 
Q 1028 -725 1275 -790 
Q 1522 -856 1778 -856 
Q 2344 -856 2625 -561 
Q 2906 -266 2906 331 
L 2906 616 
Q 2728 306 2450 153 
Q 2172 0 1784 0 
Q 1141 0 747 490 
Q 353 981 353 1791 
Q 353 2603 747 3093 
Q 1141 3584 1784 3584 
Q 2172 3584 2450 3431 
Q 2728 3278 2906 2969 
L 2906 3500 
L 3481 3500 
L 3481 434 
z
" transform="scale(0.015625)"/>
      <path id="DejaVuSans-2c" d="M 750 794 
L 1409 794 
L 1409 256 
L 897 -744 
L 494 -744 
L 750 256 
L 750 794 
z
" transform="scale(0.015625)"/>
      <path id="DejaVuSans-66" d="M 2375 4863 
L 2375 4384 
L 1825 4384 
Q 1516 4384 1395 4259 
Q 1275 4134 1275 3809 
L 1275 3500 
L 2222 3500 
L 2222 3053 
L 1275 3053 
L 1275 0 
L 697 0 
L 697 3053 
L 147 3053 
L 147 3500 
L 697 3500 
L 697 3744 
Q 697 4328 969 4595 
Q 1241 4863 1831 4863 
L 2375 4863 
z
" transform="scale(0.015625)"/>
      <path id="DejaVuSans-2e" d="M 684 794 
L 1344 794 
L 1344 0 
L 684 0 
L 684 794 
z
" transform="scale(0.015625)"/>
     </defs>
     <use xlink:href="#DejaVuSans-54"/>
     <use xlink:href="#DejaVuSans-68" transform="translate(61.083984 0)"/>
     <use xlink:href="#DejaVuSans-65" transform="translate(124.462891 0)"/>
     <use xlink:href="#DejaVuSans-20" transform="translate(185.986328 0)"/>
     <use xlink:href="#DejaVuSans-46" transform="translate(217.773438 0)"/>
     <use xlink:href="#DejaVuSans-69" transform="translate(268.042969 0)"/>
     <use xlink:href="#DejaVuSans-74" transform="translate(295.826172 0)"/>
     <use xlink:href="#DejaVuSans-7a" transform="translate(335.035156 0)"/>
     <use xlink:href="#DejaVuSans-70" transform="translate(387.525391 0)"/>
     <use xlink:href="#DejaVuSans-61" transform="translate(451.001953 0)"/>
     <use xlink:href="#DejaVuSans-74" transform="translate(512.28125 0)"/>
     <use xlink:href="#DejaVuSans-72" transform="translate(551.490234 0)"/>
     <use xlink:href="#DejaVuSans-69" transform="translate(592.603516 0)"/>
     <use xlink:href="#DejaVuSans-63" transform="translate(620.386719 0)"/>
     <use xlink:href="#DejaVuSans-6b" transform="translate(675.367188 0)"/>
     <use xlink:href="#DejaVuSans-20" transform="translate(733.277344 0)"/>
     <use xlink:href="#DejaVuSans-73" transform="translate(765.064453 0)"/>
     <use xlink:href="#DejaVuSans-63" transform="translate(817.164062 0)"/>
     <use xlink:href="#DejaVuSans-61" transform="translate(872.144531 0)"/>
     <use xlink:href="#DejaVuSans-6c" transform="translate(933.423828 0)"/>
     <use xlink:href="#DejaVuSans-65" transform="translate(961.207031 0)"/>
     <use xlink:href="#DejaVuSans-20" transform="translate(1022.730469 0)"/>
     <use xlink:href="#DejaVuSans-69" transform="translate(1054.517578 0)"/>
     <use xlink:href="#DejaVuSans-73" transform="translate(1082.300781 0)"/>
     <use xlink:href="#DejaVuSans-20" transform="translate(1134.400391 0)"/>
     <use xlink:href="#DejaVuSans-61" transform="translate(1166.1875 0)"/>
     <use xlink:href="#DejaVuSans-20" transform="translate(1227.466797 0)"/>
     <use xlink:href="#DejaVuSans-36" transform="translate(1259.253906 0)"/>
     <use xlink:href="#DejaVuSans-2d" transform="translate(1322.876953 0)"/>
     <use xlink:href="#DejaVuSans-73" transform="translate(1358.960938 0)"/>
     <use xlink:href="#DejaVuSans-74" transform="translate(1411.060547 0)"/>
     <use xlink:href="#DejaVuSans-65" transform="translate(1450.269531 0)"/>
     <use xlink:href="#DejaVuSans-70" transform="translate(1511.792969 0)"/>
     <use xlink:href="#DejaVuSans-20" transform="translate(1575.269531 0)"/>
     <use xlink:href="#DejaVuSans-63" transform="translate(1607.056641 0)"/>
     <use xlink:href="#DejaVuSans-6c" transform="translate(1662.037109 0)"/>
     <use xlink:href="#DejaVuSans-69" transform="translate(1689.820312 0)"/>
     <use xlink:href="#DejaVuSans-6e" transform="translate(1717.603516 0)"/>
     <use xlink:href="#DejaVuSans-69" transform="translate(1780.982422 0)"/>
     <use xlink:href="#DejaVuSans-63" transform="translate(1808.765625 0)"/>
     <use xlink:href="#DejaVuSans-61" transform="translate(1863.746094 0)"/>
     <use xlink:href="#DejaVuSans-6c" transform="translate(1925.025391 0)"/>
     <use xlink:href="#DejaVuSans-20" transform="translate(1952.808594 0)"/>
     <use xlink:href="#DejaVuSans-73" transform="translate(1984.595703 0)"/>
     <use xlink:href="#DejaVuSans-6b" transform="translate(2036.695312 0)"/>
     <use xlink:href="#DejaVuSans-69" transform="translate(2094.605469 0)"/>
     <use xlink:href="#DejaVuSans-6e" transform="translate(2122.388672 0)"/>
     <use xlink:href="#DejaVuSans-2d" transform="translate(2185.767578 0)"/>
     <use xlink:href="#DejaVuSans-74" transform="translate(2221.851562 0)"/>
     <use xlink:href="#DejaVuSans-79" transform="translate(2261.060547 0)"/>
     <use xlink:href="#DejaVuSans-70" transform="translate(2320.240234 0)"/>
     <use xlink:href="#DejaVuSans-65" transform="translate(2383.716797 0)"/>
     <use xlink:href="#DejaVuSans-20" transform="translate(2445.240234 0)"/>
     <use xlink:href="#DejaVuSans-73" transform="translate(2477.027344 0)"/>
     <use xlink:href="#DejaVuSans-63" transform="translate(2529.126953 0)"/>
     <use xlink:href="#DejaVuSans-61" transform="translate(2584.107422 0)"/>
     <use xlink:href="#DejaVuSans-6c" transform="translate(2645.386719 0)"/>
     <use xlink:href="#DejaVuSans-65" transform="translate(2673.169922 0)"/>
     <use xlink:href="#DejaVuSans-20" transform="translate(2734.693359 0)"/>
     <use xlink:href="#DejaVuSans-6f" transform="translate(2766.480469 0)"/>
     <use xlink:href="#DejaVuSans-72" transform="translate(2827.662109 0)"/>
     <use xlink:href="#DejaVuSans-69" transform="translate(2868.775391 0)"/>
     <use xlink:href="#DejaVuSans-67" transform="translate(2896.558594 0)"/>
     <use xlink:href="#DejaVuSans-69" transform="translate(2960.035156 0)"/>
     <use xlink:href="#DejaVuSans-6e" transform="translate(2987.818359 0)"/>
     <use xlink:href="#DejaVuSans-61" transform="translate(3051.197266 0)"/>
     <use xlink:href="#DejaVuSans-6c" transform="translate(3112.476562 0)"/>
     <use xlink:href="#DejaVuSans-6c" transform="translate(3140.259766 0)"/>
     <use xlink:href="#DejaVuSans-79" transform="translate(3168.042969 0)"/>
     <use xlink:href="#DejaVuSans-20" transform="translate(3227.222656 0)"/>
     <use xlink:href="#DejaVuSans-64" transform="translate(3259.009766 0)"/>
     <use xlink:href="#DejaVuSans-65" transform="translate(3322.486328 0)"/>
     <use xlink:href="#DejaVuSans-73" transform="translate(3384.009766 0)"/>
     <use xlink:href="#DejaVuSans-69" transform="translate(3436.109375 0)"/>
     <use xlink:href="#DejaVuSans-67" transform="translate(3463.892578 0)"/>
     <use xlink:href="#DejaVuSans-6e" transform="translate(3527.369141 0)"/>
     <use xlink:href="#DejaVuSans-65" transform="translate(3590.748047 0)"/>
     <use xlink:href="#DejaVuSans-64" transform="translate(3652.271484 0)"/>
     <use xlink:href="#DejaVuSans-20" transform="translate(3715.748047 0)"/>
     <use xlink:href="#DejaVuSans-61" transform="translate(3747.535156 0)"/>
     <use xlink:href="#DejaVuSans-72" transform="translate(3808.814453 0)"/>
     <use xlink:href="#DejaVuSans-6f" transform="translate(3847.677734 0)"/>
     <use xlink:href="#DejaVuSans-75" transform="translate(3908.859375 0)"/>
     <use xlink:href="#DejaVuSans-6e" transform="translate(3972.238281 0)"/>
     <use xlink:href="#DejaVuSans-64" transform="translate(4035.617188 0)"/>
     <use xlink:href="#DejaVuSans-20" transform="translate(4099.09375 0)"/>
     <use xlink:href="#DejaVuSans-73" transform="translate(4130.880859 0)"/>
     <use xlink:href="#DejaVuSans-75" transform="translate(4182.980469 0)"/>
     <use xlink:href="#DejaVuSans-6e" transform="translate(4246.359375 0)"/>
     <use xlink:href="#DejaVuSans-20" transform="translate(4309.738281 0)"/>
     <use xlink:href="#DejaVuSans-72" transform="translate(4341.525391 0)"/>
     <use xlink:href="#DejaVuSans-65" transform="translate(4380.388672 0)"/>
     <use xlink:href="#DejaVuSans-73" transform="translate(4441.912109 0)"/>
     <use xlink:href="#DejaVuSans-70" transform="translate(4494.011719 0)"/>
     <use xlink:href="#DejaVuSans-6f" transform="translate(4557.488281 0)"/>
     <use xlink:href="#DejaVuSans-6e" transform="translate(4618.669922 0)"/>
     <use xlink:href="#DejaVuSans-73" transform="translate(4682.048828 0)"/>
     <use xlink:href="#DejaVuSans-65" transform="translate(4734.148438 0)"/>
     <use xlink:href="#DejaVuSans-2c" transform="translate(4795.671875 0)"/>
     <use xlink:href="#DejaVuSans-20" transform="translate(4827.458984 0)"/>
     <use xlink:href="#DejaVuSans-6e" transform="translate(4859.246094 0)"/>
     <use xlink:href="#DejaVuSans-6f" transform="translate(4922.625 0)"/>
     <use xlink:href="#DejaVuSans-74" transform="translate(4983.806641 0)"/>
     <use xlink:href="#DejaVuSans-20" transform="translate(5023.015625 0)"/>
     <use xlink:href="#DejaVuSans-61" transform="translate(5054.802734 0)"/>
     <use xlink:href="#DejaVuSans-73" transform="translate(5116.082031 0)"/>
     <use xlink:href="#DejaVuSans-20" transform="translate(5168.181641 0)"/>
     <use xlink:href="#DejaVuSans-61" transform="translate(5199.96875 0)"/>
     <use xlink:href="#DejaVuSans-20" transform="translate(5261.248047 0)"/>
     <use xlink:href="#DejaVuSans-66" transform="translate(5293.035156 0)"/>
     <use xlink:href="#DejaVuSans-72" transform="translate(5328.240234 0)"/>
     <use xlink:href="#DejaVuSans-69" transform="translate(5369.353516 0)"/>
     <use xlink:href="#DejaVuSans-63" transform="translate(5397.136719 0)"/>
     <use xlink:href="#DejaVuSans-74" transform="translate(5452.117188 0)"/>
     <use xlink:href="#DejaVuSans-69" transform="translate(5491.326172 0)"/>
     <use xlink:href="#DejaVuSans-6f" transform="translate(5519.109375 0)"/>
     <use xlink:href="#DejaVuSans-6e" transform="translate(5580.291016 0)"/>
     <use xlink:href="#DejaVuSans-6c" transform="translate(5643.669922 0)"/>
     <use xlink:href="#DejaVuSans-65" transform="translate(5671.453125 0)"/>
     <use xlink:href="#DejaVuSans-73" transform="translate(5732.976562 0)"/>
     <use xlink:href="#DejaVuSans-73" transform="translate(5785.076172 0)"/>
     <use xlink:href="#DejaVuSans-20" transform="translate(5837.175781 0)"/>
     <use xlink:href="#DejaVuSans-69" transform="translate(5868.962891 0)"/>
     <use xlink:href="#DejaVuSans-6d" transform="translate(5896.746094 0)"/>
     <use xlink:href="#DejaVuSans-61" transform="translate(5994.158203 0)"/>
     <use xlink:href="#DejaVuSans-67" transform="translate(6055.4375 0)"/>
     <use xlink:href="#DejaVuSans-65" transform="translate(6118.914062 0)"/>
     <use xlink:href="#DejaVuSans-20" transform="translate(6180.4375 0)"/>
     <use xlink:href="#DejaVuSans-6c" transform="translate(6212.224609 0)"/>
     <use xlink:href="#DejaVuSans-61" transform="translate(6240.007812 0)"/>
     <use xlink:href="#DejaVuSans-62" transform="translate(6301.287109 0)"/>
     <use xlink:href="#DejaVuSans-65" transform="translate(6364.763672 0)"/>
     <use xlink:href="#DejaVuSans-6c" transform="translate(6426.287109 0)"/>
     <use xlink:href="#DejaVuSans-2e" transform="translate(6454.070312 0)"/>
    </g>
   </g>
  </g>
 </g>
 <defs>
  <clipPath id="p4619b46066">
   <rect x="7.2" y="7.2" width="508.125" height="252"/>
  </clipPath>
 </defs>
</svg>
