<?xml version="1.0" encoding="utf-8" standalone="no"?>
<!DOCTYPE svg PUBLIC "-//W3C//DTD SVG 1.1//EN"
  "http://www.w3.org/Graphics/SVG/1.1/DTD/svg11.dtd">
<svg xmlns:xlink="http://www.w3.org/1999/xlink" width="617.4pt" height="264.312pt" viewBox="0 0 617.4 264.312" xmlns="http://www.w3.org/2000/svg" version="1.1">
 <metadata>
  <rdf:RDF xmlns:dc="http://purl.org/dc/elements/1.1/" xmlns:cc="http://creativecommons.org/ns#" xmlns:rdf="http://www.w3.org/1999/02/22-rdf-syntax-ns#">
   <cc:Work>
    <dc:type rdf:resource="http://purl.org/dc/dcmitype/StillImage"/>
    <dc:date>2026-05-27T22:06:24.756882</dc:date>
    <dc:format>image/svg+xml</dc:format>
    <dc:creator>
     <cc:Agent>
      <dc:title>Matplotlib v3.10.7, https://matplotlib.org/</dc:title>
     </cc:Agent>
    </dc:creator>
   </cc:Work>
  </rdf:RDF>
 </metadata>
 <defs>
  <style type="text/css">*{stroke-linejoin: round; stroke-linecap: butt}</style>
 </defs>
 <g id="figure_1">
  <g id="patch_1">
   <path d="M 0 264.312 
L 617.4 264.312 
L 617.4 0 
L 0 0 
z
" style="fill: #f4f4f4"/>
  </g>
  <g id="axes_1">
   <g id="patch_2">
    <path d="M 197.137933 89.24544 
Q 206.671724 89.24544 214.193053 89.24544 
" clip-path="url(#p823a8382c6)" style="fill: none; stroke: #222222; stroke-width: 1.8; stroke-linecap: round"/>
    <path d="M 208.593053 86.44544 
L 214.193053 89.24544 
L 208.593053 92.04544 
z
" clip-path="url(#p823a8382c6)" style="fill: #222222; stroke: #222222; stroke-width: 1.8; stroke-linecap: round"/>
   </g>
   <g id="patch_3">
    <path d="M 401.198533 89.24544 
Q 410.732324 89.24544 418.253653 89.24544 
" clip-path="url(#p823a8382c6)" style="fill: none; stroke: #222222; stroke-width: 1.8; stroke-linecap: round"/>
    <path d="M 412.653653 86.44544 
L 418.253653 89.24544 
L 412.653653 92.04544 
z
" clip-path="url(#p823a8382c6)" style="fill: #222222; stroke: #222222; stroke-width: 1.8; stroke-linecap: round"/>
   </g>
   <g id="patch_4">
    <path d="M 512.7606 116.991685 
Q 512.7606 136.923438 512.7606 154.84273 
" clip-path="url(#p823a8382c6)" style="fill: none; stroke: #222222; stroke-width: 1.8; stroke-linecap: round"/>
    <path d="M 515.5606 149.24273 
L 512.7606 154.84273 
L 509.9606 149.24273 
z
" clip-path="url(#p823a8382c6)" style="fill: #222222; stroke: #222222; stroke-width: 1.8; stroke-linecap: round"/>
   </g>
   <g id="patch_5">
    <path d="M 420.262067 184.60224 
Q 410.728276 184.60224 403.206947 184.60224 
" clip-path="url(#p823a8382c6)" style="fill: none; stroke: #222222; stroke-width: 1.8; stroke-linecap: round"/>
    <path d="M 408.806947 187.40224 
L 403.206947 184.60224 
L 408.806947 181.80224 
z
" clip-path="url(#p823a8382c6)" style="fill: #222222; stroke: #222222; stroke-width: 1.8; stroke-linecap: round"/>
   </g>
   <g id="patch_6">
    <path d="M 216.201467 184.60224 
Q 206.667676 184.60224 199.146347 184.60224 
" clip-path="url(#p823a8382c6)" style="fill: none; stroke: #222222; stroke-width: 1.8; stroke-linecap: round"/>
    <path d="M 204.746347 187.40224 
L 199.146347 184.60224 
L 204.746347 181.80224 
z
" clip-path="url(#p823a8382c6)" style="fill: #222222; stroke: #222222; stroke-width: 1.8; stroke-linecap: round"/>
   </g>
   <g id="patch_7">
    <path d="M 24.7896 110.70072 
L 184.4892 110.70072 
L 184.4892 67.79016 
L 24.7896 67.79016 
z
" clip-path="url(#p823a8382c6)" style="fill: #f4f4f4; stroke: #050505; stroke-width: 1.6; stroke-linejoin: miter"/>
   </g>
   <g id="patch_8">
    <path d="M 228.8502 110.70072 
L 388.5498 110.70072 
L 388.5498 67.79016 
L 228.8502 67.79016 
z
" clip-path="url(#p823a8382c6)" style="fill: #f4f4f4; stroke: #050505; stroke-width: 1.6; stroke-linejoin: miter"/>
   </g>
   <g id="patch_9">
    <path d="M 432.9108 110.70072 
L 592.6104 110.70072 
L 592.6104 67.79016 
L 432.9108 67.79016 
z
" clip-path="url(#p823a8382c6)" style="fill: #f4f4f4; stroke: #050505; stroke-width: 1.6; stroke-linejoin: miter"/>
   </g>
   <g id="patch_10">
    <path d="M 24.7896 206.05752 
L 184.4892 206.05752 
L 184.4892 163.14696 
L 24.7896 163.14696 
z
" clip-path="url(#p823a8382c6)" style="fill: #f4f4f4; stroke: #050505; stroke-width: 1.6; stroke-linejoin: miter"/>
   </g>
   <g id="patch_11">
    <path d="M 228.8502 206.05752 
L 388.5498 206.05752 
L 388.5498 163.14696 
L 228.8502 163.14696 
z
" clip-path="url(#p823a8382c6)" style="fill: #f4f4f4; stroke: #050505; stroke-width: 1.6; stroke-linejoin: miter"/>
   </g>
   <g id="patch_12">
    <path d="M 432.9108 206.05752 
L 592.6104 206.05752 
L 592.6104 163.14696 
L 432.9108 163.14696 
z
" clip-path="url(#p823a8382c6)" style="fill: #f4f4f4; stroke: #050505; stroke-width: 1.6; stroke-linejoin: miter"/>
   </g>
   <g id="text_1">
    <!-- AFHQ cat/dog -->
    <g style="fill: #050505" transform="translate(48.835463 85.56861) scale(0.162 -0.162)">
     <defs>
      <path id="DejaVuSans-41" d="M 2188 4044 
L 1331 1722 
L 3047 1722 
L 2188 4044 
z
M 1831 4666 
L 2547 4666 
L 4325 0 
L 3669 0 
L 3244 1197 
L 1141 1197 
L 716 0 
L 50 0 
L 1831 4666 
z
" transform="scale(0.015625)"/>
      <path id="DejaVuSans-46" d="M 628 4666 
L 3309 4666 
L 3309 4134 
L 1259 4134 
L 1259 2759 
L 3109 2759 
L 3109 2228 
L 1259 2228 
L 1259 0 
L 628 0 
L 628 4666 
z
" transform="scale(0.015625)"/>
      <path id="DejaVuSans-48" d="M 628 4666 
L 1259 4666 
L 1259 2753 
L 3553 2753 
L 3553 4666 
L 4184 4666 
L 4184 0 
L 3553 0 
L 3553 2222 
L 1259 2222 
L 1259 0 
L 628 0 
L 628 4666 
z
" transform="scale(0.015625)"/>
      <path id="DejaVuSans-51" d="M 2522 4238 
Q 1834 4238 1429 3725 
Q 1025 3213 1025 2328 
Q 1025 1447 1429 934 
Q 1834 422 2522 422 
Q 3209 422 3611 934 
Q 4013 1447 4013 2328 
Q 4013 3213 3611 3725 
Q 3209 4238 2522 4238 
z
M 3406 84 
L 4238 -825 
L 3475 -825 
L 2784 -78 
Q 2681 -84 2626 -87 
Q 2572 -91 2522 -91 
Q 1538 -91 948 567 
Q 359 1225 359 2328 
Q 359 3434 948 4092 
Q 1538 4750 2522 4750 
Q 3503 4750 4090 4092 
Q 4678 3434 4678 2328 
Q 4678 1516 4351 937 
Q 4025 359 3406 84 
z
" transform="scale(0.015625)"/>
      <path id="DejaVuSans-20" transform="scale(0.015625)"/>
      <path id="DejaVuSans-63" d="M 3122 3366 
L 3122 2828 
Q 2878 2963 2633 3030 
Q 2388 3097 2138 3097 
Q 1578 3097 1268 2742 
Q 959 2388 959 1747 
Q 959 1106 1268 751 
Q 1578 397 2138 397 
Q 2388 397 2633 464 
Q 2878 531 3122 666 
L 3122 134 
Q 2881 22 2623 -34 
Q 2366 -91 2075 -91 
Q 1284 -91 818 406 
Q 353 903 353 1747 
Q 353 2603 823 3093 
Q 1294 3584 2113 3584 
Q 2378 3584 2631 3529 
Q 2884 3475 3122 3366 
z
" transform="scale(0.015625)"/>
      <path id="DejaVuSans-61" d="M 2194 1759 
Q 1497 1759 1228 1600 
Q 959 1441 959 1056 
Q 959 750 1161 570 
Q 1363 391 1709 391 
Q 2188 391 2477 730 
Q 2766 1069 2766 1631 
L 2766 1759 
L 2194 1759 
z
M 3341 1997 
L 3341 0 
L 2766 0 
L 2766 531 
Q 2569 213 2275 61 
Q 1981 -91 1556 -91 
Q 1019 -91 701 211 
Q 384 513 384 1019 
Q 384 1609 779 1909 
Q 1175 2209 1959 2209 
L 2766 2209 
L 2766 2266 
Q 2766 2663 2505 2880 
Q 2244 3097 1772 3097 
Q 1472 3097 1187 3025 
Q 903 2953 641 2809 
L 641 3341 
Q 956 3463 1253 3523 
Q 1550 3584 1831 3584 
Q 2591 3584 2966 3190 
Q 3341 2797 3341 1997 
z
" transform="scale(0.015625)"/>
      <path id="DejaVuSans-74" d="M 1172 4494 
L 1172 3500 
L 2356 3500 
L 2356 3053 
L 1172 3053 
L 1172 1153 
Q 1172 725 1289 603 
Q 1406 481 1766 481 
L 2356 481 
L 2356 0 
L 1766 0 
Q 1100 0 847 248 
Q 594 497 594 1153 
L 594 3053 
L 172 3053 
L 172 3500 
L 594 3500 
L 594 4494 
L 1172 4494 
z
" transform="scale(0.015625)"/>
      <path id="DejaVuSans-2f" d="M 1625 4666 
L 2156 4666 
L 531 -594 
L 0 -594 
L 1625 4666 
z
" transform="scale(0.015625)"/>
      <path id="DejaVuSans-64" d="M 2906 2969 
L 2906 4863 
L 3481 4863 
L 3481 0 
L 2906 0 
L 2906 525 
Q 2725 213 2448 61 
Q 2172 -91 1784 -91 
Q 1150 -91 751 415 
Q 353 922 353 1747 
Q 353 2572 751 3078 
Q 1150 3584 1784 3584 
Q 2172 3584 2448 3432 
Q 2725 3281 2906 2969 
z
M 947 1747 
Q 947 1113 1208 752 
Q 1469 391 1925 391 
Q 2381 391 2643 752 
Q 2906 1113 2906 1747 
Q 2906 2381 2643 2742 
Q 2381 3103 1925 3103 
Q 1469 3103 1208 2742 
Q 947 2381 947 1747 
z
" transform="scale(0.015625)"/>
      <path id="DejaVuSans-6f" d="M 1959 3097 
Q 1497 3097 1228 2736 
Q 959 2375 959 1747 
Q 959 1119 1226 758 
Q 1494 397 1959 397 
Q 2419 397 2687 759 
Q 2956 1122 2956 1747 
Q 2956 2369 2687 2733 
Q 2419 3097 1959 3097 
z
M 1959 3584 
Q 2709 3584 3137 3096 
Q 3566 2609 3566 1747 
Q 3566 888 3137 398 
Q 2709 -91 1959 -91 
Q 1206 -91 779 398 
Q 353 888 353 1747 
Q 353 2609 779 3096 
Q 1206 3584 1959 3584 
z
" transform="scale(0.015625)"/>
      <path id="DejaVuSans-67" d="M 2906 1791 
Q 2906 2416 2648 2759 
Q 2391 3103 1925 3103 
Q 1463 3103 1205 2759 
Q 947 2416 947 1791 
Q 947 1169 1205 825 
Q 1463 481 1925 481 
Q 2391 481 2648 825 
Q 2906 1169 2906 1791 
z
M 3481 434 
Q 3481 -459 3084 -895 
Q 2688 -1331 1869 -1331 
Q 1566 -1331 1297 -1286 
Q 1028 -1241 775 -1147 
L 775 -588 
Q 1028 -725 1275 -790 
Q 1522 -856 1778 -856 
Q 2344 -856 2625 -561 
Q 2906 -266 2906 331 
L 2906 616 
Q 2728 306 2450 153 
Q 2172 0 1784 0 
Q 1141 0 747 490 
Q 353 981 353 1791 
Q 353 2603 747 3093 
Q 1141 3584 1784 3584 
Q 2172 3584 2450 3431 
Q 2728 3278 2906 2969 
L 2906 3500 
L 3481 3500 
L 3481 434 
z
" transform="scale(0.015625)"/>
     </defs>
     <use xlink:href="#DejaVuSans-41"/>
     <use xlink:href="#DejaVuSans-46" transform="translate(68.408203 0)"/>
     <use xlink:href="#DejaVuSans-48" transform="translate(125.927734 0)"/>
     <use xlink:href="#DejaVuSans-51" transform="translate(201.123047 0)"/>
     <use xlink:href="#DejaVuSans-20" transform="translate(279.833984 0)"/>
     <use xlink:href="#DejaVuSans-63" transform="translate(311.621094 0)"/>
     <use xlink:href="#DejaVuSans-61" transform="translate(366.601562 0)"/>
     <use xlink:href="#DejaVuSans-74" transform="translate(427.880859 0)"/>
     <use xlink:href="#DejaVuSans-2f" transform="translate(467.089844 0)"/>
     <use xlink:href="#DejaVuSans-64" transform="translate(500.78125 0)"/>
     <use xlink:href="#DejaVuSans-6f" transform="translate(564.257812 0)"/>
     <use xlink:href="#DejaVuSans-67" transform="translate(625.439453 0)"/>
    </g>
    <!-- images -->
    <g style="fill: #050505" transform="translate(75.189572 101.862645) scale(0.162 -0.162)">
     <defs>
      <path id="DejaVuSans-69" d="M 603 3500 
L 1178 3500 
L 1178 0 
L 603 0 
L 603 3500 
z
M 603 4863 
L 1178 4863 
L 1178 4134 
L 603 4134 
L 603 4863 
z
" transform="scale(0.015625)"/>
      <path id="DejaVuSans-6d" d="M 3328 2828 
Q 3544 3216 3844 3400 
Q 4144 3584 4550 3584 
Q 5097 3584 5394 3201 
Q 5691 2819 5691 2113 
L 5691 0 
L 5113 0 
L 5113 2094 
Q 5113 2597 4934 2840 
Q 4756 3084 4391 3084 
Q 3944 3084 3684 2787 
Q 3425 2491 3425 1978 
L 3425 0 
L 2847 0 
L 2847 2094 
Q 2847 2600 2669 2842 
Q 2491 3084 2119 3084 
Q 1678 3084 1418 2786 
Q 1159 2488 1159 1978 
L 1159 0 
L 581 0 
L 581 3500 
L 1159 3500 
L 1159 2956 
Q 1356 3278 1631 3431 
Q 1906 3584 2284 3584 
Q 2666 3584 2933 3390 
Q 3200 3197 3328 2828 
z
" transform="scale(0.015625)"/>
      <path id="DejaVuSans-65" d="M 3597 1894 
L 3597 1613 
L 953 1613 
Q 991 1019 1311 708 
Q 1631 397 2203 397 
Q 2534 397 2845 478 
Q 3156 559 3463 722 
L 3463 178 
Q 3153 47 2828 -22 
Q 2503 -91 2169 -91 
Q 1331 -91 842 396 
Q 353 884 353 1716 
Q 353 2575 817 3079 
Q 1281 3584 2069 3584 
Q 2775 3584 3186 3129 
Q 3597 2675 3597 1894 
z
M 3022 2063 
Q 3016 2534 2758 2815 
Q 2500 3097 2075 3097 
Q 1594 3097 1305 2825 
Q 1016 2553 972 2059 
L 3022 2063 
z
" transform="scale(0.015625)"/>
      <path id="DejaVuSans-73" d="M 2834 3397 
L 2834 2853 
Q 2591 2978 2328 3040 
Q 2066 3103 1784 3103 
Q 1356 3103 1142 2972 
Q 928 2841 928 2578 
Q 928 2378 1081 2264 
Q 1234 2150 1697 2047 
L 1894 2003 
Q 2506 1872 2764 1633 
Q 3022 1394 3022 966 
Q 3022 478 2636 193 
Q 2250 -91 1575 -91 
Q 1294 -91 989 -36 
Q 684 19 347 128 
L 347 722 
Q 666 556 975 473 
Q 1284 391 1588 391 
Q 1994 391 2212 530 
Q 2431 669 2431 922 
Q 2431 1156 2273 1281 
Q 2116 1406 1581 1522 
L 1381 1569 
Q 847 1681 609 1914 
Q 372 2147 372 2553 
Q 372 3047 722 3315 
Q 1072 3584 1716 3584 
Q 2034 3584 2315 3537 
Q 2597 3491 2834 3397 
z
" transform="scale(0.015625)"/>
     </defs>
     <use xlink:href="#DejaVuSans-69"/>
     <use xlink:href="#DejaVuSans-6d" transform="translate(27.783203 0)"/>
     <use xlink:href="#DejaVuSans-61" transform="translate(125.195312 0)"/>
     <use xlink:href="#DejaVuSans-67" transform="translate(186.474609 0)"/>
     <use xlink:href="#DejaVuSans-65" transform="translate(249.951172 0)"/>
     <use xlink:href="#DejaVuSans-73" transform="translate(311.474609 0)"/>
    </g>
   </g>
   <g id="text_2">
    <!-- 64 x 64 -->
    <g style="fill: #050505" transform="translate(278.14275 85.56861) scale(0.162 -0.162)">
     <defs>
      <path id="DejaVuSans-36" d="M 2113 2584 
Q 1688 2584 1439 2293 
Q 1191 2003 1191 1497 
Q 1191 994 1439 701 
Q 1688 409 2113 409 
Q 2538 409 2786 701 
Q 3034 994 3034 1497 
Q 3034 2003 2786 2293 
Q 2538 2584 2113 2584 
z
M 3366 4563 
L 3366 3988 
Q 3128 4100 2886 4159 
Q 2644 4219 2406 4219 
Q 1781 4219 1451 3797 
Q 1122 3375 1075 2522 
Q 1259 2794 1537 2939 
Q 1816 3084 2150 3084 
Q 2853 3084 3261 2657 
Q 3669 2231 3669 1497 
Q 3669 778 3244 343 
Q 2819 -91 2113 -91 
Q 1303 -91 875 529 
Q 447 1150 447 2328 
Q 447 3434 972 4092 
Q 1497 4750 2381 4750 
Q 2619 4750 2861 4703 
Q 3103 4656 3366 4563 
z
" transform="scale(0.015625)"/>
      <path id="DejaVuSans-34" d="M 2419 4116 
L 825 1625 
L 2419 1625 
L 2419 4116 
z
M 2253 4666 
L 3047 4666 
L 3047 1625 
L 3713 1625 
L 3713 1100 
L 3047 1100 
L 3047 0 
L 2419 0 
L 2419 1100 
L 313 1100 
L 313 1709 
L 2253 4666 
z
" transform="scale(0.015625)"/>
      <path id="DejaVuSans-78" d="M 3513 3500 
L 2247 1797 
L 3578 0 
L 2900 0 
L 1881 1375 
L 863 0 
L 184 0 
L 1544 1831 
L 300 3500 
L 978 3500 
L 1906 2253 
L 2834 3500 
L 3513 3500 
z
" transform="scale(0.015625)"/>
     </defs>
     <use xlink:href="#DejaVuSans-36"/>
     <use xlink:href="#DejaVuSans-34" transform="translate(63.623047 0)"/>
     <use xlink:href="#DejaVuSans-20" transform="translate(127.246094 0)"/>
     <use xlink:href="#DejaVuSans-78" transform="translate(159.033203 0)"/>
     <use xlink:href="#DejaVuSans-20" transform="translate(218.212891 0)"/>
     <use xlink:href="#DejaVuSans-36" transform="translate(250 0)"/>
     <use xlink:href="#DejaVuSans-34" transform="translate(313.623047 0)"/>
    </g>
    <!-- grayscale -->
    <g style="fill: #050505" transform="translate(269.598516 101.862645) scale(0.162 -0.162)">
     <defs>
      <path id="DejaVuSans-72" d="M 2631 2963 
Q 2534 3019 2420 3045 
Q 2306 3072 2169 3072 
Q 1681 3072 1420 2755 
Q 1159 2438 1159 1844 
L 1159 0 
L 581 0 
L 581 3500 
L 1159 3500 
L 1159 2956 
Q 1341 3275 1631 3429 
Q 1922 3584 2338 3584 
Q 2397 3584 2469 3576 
Q 2541 3569 2628 3553 
L 2631 2963 
z
" transform="scale(0.015625)"/>
      <path id="DejaVuSans-79" d="M 2059 -325 
Q 1816 -950 1584 -1140 
Q 1353 -1331 966 -1331 
L 506 -1331 
L 506 -850 
L 844 -850 
Q 1081 -850 1212 -737 
Q 1344 -625 1503 -206 
L 1606 56 
L 191 3500 
L 800 3500 
L 1894 763 
L 2988 3500 
L 3597 3500 
L 2059 -325 
z
" transform="scale(0.015625)"/>
      <path id="DejaVuSans-6c" d="M 603 4863 
L 1178 4863 
L 1178 0 
L 603 0 
L 603 4863 
z
" transform="scale(0.015625)"/>
     </defs>
     <use xlink:href="#DejaVuSans-67"/>
     <use xlink:href="#DejaVuSans-72" transform="translate(63.476562 0)"/>
     <use xlink:href="#DejaVuSans-61" transform="translate(104.589844 0)"/>
     <use xlink:href="#DejaVuSans-79" transform="translate(165.869141 0)"/>
     <use xlink:href="#DejaVuSans-73" transform="translate(225.048828 0)"/>
     <use xlink:href="#DejaVuSans-63" transform="translate(277.148438 0)"/>
     <use xlink:href="#DejaVuSans-61" transform="translate(332.128906 0)"/>
     <use xlink:href="#DejaVuSans-6c" transform="translate(393.408203 0)"/>
     <use xlink:href="#DejaVuSans-65" transform="translate(421.191406 0)"/>
    </g>
   </g>
   <g id="text_3">
    <!-- 4096-pixel -->
    <g style="fill: #050505" transform="translate(470.055881 85.56861) scale(0.162 -0.162)">
     <defs>
      <path id="DejaVuSans-30" d="M 2034 4250 
Q 1547 4250 1301 3770 
Q 1056 3291 1056 2328 
Q 1056 1369 1301 889 
Q 1547 409 2034 409 
Q 2525 409 2770 889 
Q 3016 1369 3016 2328 
Q 3016 3291 2770 3770 
Q 2525 4250 2034 4250 
z
M 2034 4750 
Q 2819 4750 3233 4129 
Q 3647 3509 3647 2328 
Q 3647 1150 3233 529 
Q 2819 -91 2034 -91 
Q 1250 -91 836 529 
Q 422 1150 422 2328 
Q 422 3509 836 4129 
Q 1250 4750 2034 4750 
z
" transform="scale(0.015625)"/>
      <path id="DejaVuSans-39" d="M 703 97 
L 703 672 
Q 941 559 1184 500 
Q 1428 441 1663 441 
Q 2288 441 2617 861 
Q 2947 1281 2994 2138 
Q 2813 1869 2534 1725 
Q 2256 1581 1919 1581 
Q 1219 1581 811 2004 
Q 403 2428 403 3163 
Q 403 3881 828 4315 
Q 1253 4750 1959 4750 
Q 2769 4750 3195 4129 
Q 3622 3509 3622 2328 
Q 3622 1225 3098 567 
Q 2575 -91 1691 -91 
Q 1453 -91 1209 -44 
Q 966 3 703 97 
z
M 1959 2075 
Q 2384 2075 2632 2365 
Q 2881 2656 2881 3163 
Q 2881 3666 2632 3958 
Q 2384 4250 1959 4250 
Q 1534 4250 1286 3958 
Q 1038 3666 1038 3163 
Q 1038 2656 1286 2365 
Q 1534 2075 1959 2075 
z
" transform="scale(0.015625)"/>
      <path id="DejaVuSans-2d" d="M 313 2009 
L 1997 2009 
L 1997 1497 
L 313 1497 
L 313 2009 
z
" transform="scale(0.015625)"/>
      <path id="DejaVuSans-70" d="M 1159 525 
L 1159 -1331 
L 581 -1331 
L 581 3500 
L 1159 3500 
L 1159 2969 
Q 1341 3281 1617 3432 
Q 1894 3584 2278 3584 
Q 2916 3584 3314 3078 
Q 3713 2572 3713 1747 
Q 3713 922 3314 415 
Q 2916 -91 2278 -91 
Q 1894 -91 1617 61 
Q 1341 213 1159 525 
z
M 3116 1747 
Q 3116 2381 2855 2742 
Q 2594 3103 2138 3103 
Q 1681 3103 1420 2742 
Q 1159 2381 1159 1747 
Q 1159 1113 1420 752 
Q 1681 391 2138 391 
Q 2594 391 2855 752 
Q 3116 1113 3116 1747 
z
" transform="scale(0.015625)"/>
     </defs>
     <use xlink:href="#DejaVuSans-34"/>
     <use xlink:href="#DejaVuSans-30" transform="translate(63.623047 0)"/>
     <use xlink:href="#DejaVuSans-39" transform="translate(127.246094 0)"/>
     <use xlink:href="#DejaVuSans-36" transform="translate(190.869141 0)"/>
     <use xlink:href="#DejaVuSans-2d" transform="translate(254.492188 0)"/>
     <use xlink:href="#DejaVuSans-70" transform="translate(290.576172 0)"/>
     <use xlink:href="#DejaVuSans-69" transform="translate(354.052734 0)"/>
     <use xlink:href="#DejaVuSans-78" transform="translate(381.835938 0)"/>
     <use xlink:href="#DejaVuSans-65" transform="translate(437.890625 0)"/>
     <use xlink:href="#DejaVuSans-6c" transform="translate(499.414062 0)"/>
    </g>
    <!-- vectors -->
    <g style="fill: #050505" transform="translate(482.847553 101.862645) scale(0.162 -0.162)">
     <defs>
      <path id="DejaVuSans-76" d="M 191 3500 
L 800 3500 
L 1894 563 
L 2988 3500 
L 3597 3500 
L 2284 0 
L 1503 0 
L 191 3500 
z
" transform="scale(0.015625)"/>
     </defs>
     <use xlink:href="#DejaVuSans-76"/>
     <use xlink:href="#DejaVuSans-65" transform="translate(59.179688 0)"/>
     <use xlink:href="#DejaVuSans-63" transform="translate(120.703125 0)"/>
     <use xlink:href="#DejaVuSans-74" transform="translate(175.683594 0)"/>
     <use xlink:href="#DejaVuSans-6f" transform="translate(214.892578 0)"/>
     <use xlink:href="#DejaVuSans-72" transform="translate(276.074219 0)"/>
     <use xlink:href="#DejaVuSans-73" transform="translate(317.1875 0)"/>
    </g>
   </g>
   <g id="text_4">
    <!-- separator proof -->
    <g style="fill: #050505" transform="translate(41.946666 180.92541) scale(0.162 -0.162)">
     <defs>
      <path id="DejaVuSans-66" d="M 2375 4863 
L 2375 4384 
L 1825 4384 
Q 1516 4384 1395 4259 
Q 1275 4134 1275 3809 
L 1275 3500 
L 2222 3500 
L 2222 3053 
L 1275 3053 
L 1275 0 
L 697 0 
L 697 3053 
L 147 3053 
L 147 3500 
L 697 3500 
L 697 3744 
Q 697 4328 969 4595 
Q 1241 4863 1831 4863 
L 2375 4863 
z
" transform="scale(0.015625)"/>
     </defs>
     <use xlink:href="#DejaVuSans-73"/>
     <use xlink:href="#DejaVuSans-65" transform="translate(52.099609 0)"/>
     <use xlink:href="#DejaVuSans-70" transform="translate(113.623047 0)"/>
     <use xlink:href="#DejaVuSans-61" transform="translate(177.099609 0)"/>
     <use xlink:href="#DejaVuSans-72" transform="translate(238.378906 0)"/>
     <use xlink:href="#DejaVuSans-61" transform="translate(279.492188 0)"/>
     <use xlink:href="#DejaVuSans-74" transform="translate(340.771484 0)"/>
     <use xlink:href="#DejaVuSans-6f" transform="translate(379.980469 0)"/>
     <use xlink:href="#DejaVuSans-72" transform="translate(441.162109 0)"/>
     <use xlink:href="#DejaVuSans-20" transform="translate(482.275391 0)"/>
     <use xlink:href="#DejaVuSans-70" transform="translate(514.0625 0)"/>
     <use xlink:href="#DejaVuSans-72" transform="translate(577.539062 0)"/>
     <use xlink:href="#DejaVuSans-6f" transform="translate(616.402344 0)"/>
     <use xlink:href="#DejaVuSans-6f" transform="translate(677.583984 0)"/>
     <use xlink:href="#DejaVuSans-66" transform="translate(738.765625 0)"/>
    </g>
    <!-- and perceptron -->
    <g style="fill: #050505" transform="translate(42.559228 197.219445) scale(0.162 -0.162)">
     <defs>
      <path id="DejaVuSans-6e" d="M 3513 2113 
L 3513 0 
L 2938 0 
L 2938 2094 
Q 2938 2591 2744 2837 
Q 2550 3084 2163 3084 
Q 1697 3084 1428 2787 
Q 1159 2491 1159 1978 
L 1159 0 
L 581 0 
L 581 3500 
L 1159 3500 
L 1159 2956 
Q 1366 3272 1645 3428 
Q 1925 3584 2291 3584 
Q 2894 3584 3203 3211 
Q 3513 2838 3513 2113 
z
" transform="scale(0.015625)"/>
     </defs>
     <use xlink:href="#DejaVuSans-61"/>
     <use xlink:href="#DejaVuSans-6e" transform="translate(61.279297 0)"/>
     <use xlink:href="#DejaVuSans-64" transform="translate(124.658203 0)"/>
     <use xlink:href="#DejaVuSans-20" transform="translate(188.134766 0)"/>
     <use xlink:href="#DejaVuSans-70" transform="translate(219.921875 0)"/>
     <use xlink:href="#DejaVuSans-65" transform="translate(283.398438 0)"/>
     <use xlink:href="#DejaVuSans-72" transform="translate(344.921875 0)"/>
     <use xlink:href="#DejaVuSans-63" transform="translate(383.785156 0)"/>
     <use xlink:href="#DejaVuSans-65" transform="translate(438.765625 0)"/>
     <use xlink:href="#DejaVuSans-70" transform="translate(500.289062 0)"/>
     <use xlink:href="#DejaVuSans-74" transform="translate(563.765625 0)"/>
     <use xlink:href="#DejaVuSans-72" transform="translate(602.974609 0)"/>
     <use xlink:href="#DejaVuSans-6f" transform="translate(641.837891 0)"/>
     <use xlink:href="#DejaVuSans-6e" transform="translate(703.019531 0)"/>
    </g>
   </g>
   <g id="text_5">
    <!-- random labels -->
    <g style="fill: #050505" transform="translate(250.900172 180.92541) scale(0.162 -0.162)">
     <defs>
      <path id="DejaVuSans-62" d="M 3116 1747 
Q 3116 2381 2855 2742 
Q 2594 3103 2138 3103 
Q 1681 3103 1420 2742 
Q 1159 2381 1159 1747 
Q 1159 1113 1420 752 
Q 1681 391 2138 391 
Q 2594 391 2855 752 
Q 3116 1113 3116 1747 
z
M 1159 2969 
Q 1341 3281 1617 3432 
Q 1894 3584 2278 3584 
Q 2916 3584 3314 3078 
Q 3713 2572 3713 1747 
Q 3713 922 3314 415 
Q 2916 -91 2278 -91 
Q 1894 -91 1617 61 
Q 1341 213 1159 525 
L 1159 0 
L 581 0 
L 581 4863 
L 1159 4863 
L 1159 2969 
z
" transform="scale(0.015625)"/>
     </defs>
     <use xlink:href="#DejaVuSans-72"/>
     <use xlink:href="#DejaVuSans-61" transform="translate(41.113281 0)"/>
     <use xlink:href="#DejaVuSans-6e" transform="translate(102.392578 0)"/>
     <use xlink:href="#DejaVuSans-64" transform="translate(165.771484 0)"/>
     <use xlink:href="#DejaVuSans-6f" transform="translate(229.248047 0)"/>
     <use xlink:href="#DejaVuSans-6d" transform="translate(290.429688 0)"/>
     <use xlink:href="#DejaVuSans-20" transform="translate(387.841797 0)"/>
     <use xlink:href="#DejaVuSans-6c" transform="translate(419.628906 0)"/>
     <use xlink:href="#DejaVuSans-61" transform="translate(447.412109 0)"/>
     <use xlink:href="#DejaVuSans-62" transform="translate(508.691406 0)"/>
     <use xlink:href="#DejaVuSans-65" transform="translate(572.167969 0)"/>
     <use xlink:href="#DejaVuSans-6c" transform="translate(633.691406 0)"/>
     <use xlink:href="#DejaVuSans-73" transform="translate(661.474609 0)"/>
    </g>
    <!-- -1 or +1 -->
    <g style="fill: #050505" transform="translate(275.248266 197.219445) scale(0.162 -0.162)">
     <defs>
      <path id="DejaVuSans-31" d="M 794 531 
L 1825 531 
L 1825 4091 
L 703 3866 
L 703 4441 
L 1819 4666 
L 2450 4666 
L 2450 531 
L 3481 531 
L 3481 0 
L 794 0 
L 794 531 
z
" transform="scale(0.015625)"/>
      <path id="DejaVuSans-2b" d="M 2944 4013 
L 2944 2272 
L 4684 2272 
L 4684 1741 
L 2944 1741 
L 2944 0 
L 2419 0 
L 2419 1741 
L 678 1741 
L 678 2272 
L 2419 2272 
L 2419 4013 
L 2944 4013 
z
" transform="scale(0.015625)"/>
     </defs>
     <use xlink:href="#DejaVuSans-2d"/>
     <use xlink:href="#DejaVuSans-31" transform="translate(36.083984 0)"/>
     <use xlink:href="#DejaVuSans-20" transform="translate(99.707031 0)"/>
     <use xlink:href="#DejaVuSans-6f" transform="translate(131.494141 0)"/>
     <use xlink:href="#DejaVuSans-72" transform="translate(192.675781 0)"/>
     <use xlink:href="#DejaVuSans-20" transform="translate(233.789062 0)"/>
     <use xlink:href="#DejaVuSans-2b" transform="translate(265.576172 0)"/>
     <use xlink:href="#DejaVuSans-31" transform="translate(349.365234 0)"/>
    </g>
   </g>
   <g id="text_6">
    <!-- bias column -->
    <g style="fill: #050505" transform="translate(463.793569 180.92541) scale(0.162 -0.162)">
     <defs>
      <path id="DejaVuSans-75" d="M 544 1381 
L 544 3500 
L 1119 3500 
L 1119 1403 
Q 1119 906 1312 657 
Q 1506 409 1894 409 
Q 2359 409 2629 706 
Q 2900 1003 2900 1516 
L 2900 3500 
L 3475 3500 
L 3475 0 
L 2900 0 
L 2900 538 
Q 2691 219 2414 64 
Q 2138 -91 1772 -91 
Q 1169 -91 856 284 
Q 544 659 544 1381 
z
M 1991 3584 
L 1991 3584 
z
" transform="scale(0.015625)"/>
     </defs>
     <use xlink:href="#DejaVuSans-62"/>
     <use xlink:href="#DejaVuSans-69" transform="translate(63.476562 0)"/>
     <use xlink:href="#DejaVuSans-61" transform="translate(91.259766 0)"/>
     <use xlink:href="#DejaVuSans-73" transform="translate(152.539062 0)"/>
     <use xlink:href="#DejaVuSans-20" transform="translate(204.638672 0)"/>
     <use xlink:href="#DejaVuSans-63" transform="translate(236.425781 0)"/>
     <use xlink:href="#DejaVuSans-6f" transform="translate(291.40625 0)"/>
     <use xlink:href="#DejaVuSans-6c" transform="translate(352.587891 0)"/>
     <use xlink:href="#DejaVuSans-75" transform="translate(380.371094 0)"/>
     <use xlink:href="#DejaVuSans-6d" transform="translate(443.75 0)"/>
     <use xlink:href="#DejaVuSans-6e" transform="translate(541.162109 0)"/>
    </g>
    <!-- 4097 parameters -->
    <g style="fill: #050505" transform="translate(442.589287 197.219445) scale(0.162 -0.162)">
     <defs>
      <path id="DejaVuSans-37" d="M 525 4666 
L 3525 4666 
L 3525 4397 
L 1831 0 
L 1172 0 
L 2766 4134 
L 525 4134 
L 525 4666 
z
" transform="scale(0.015625)"/>
     </defs>
     <use xlink:href="#DejaVuSans-34"/>
     <use xlink:href="#DejaVuSans-30" transform="translate(63.623047 0)"/>
     <use xlink:href="#DejaVuSans-39" transform="translate(127.246094 0)"/>
     <use xlink:href="#DejaVuSans-37" transform="translate(190.869141 0)"/>
     <use xlink:href="#DejaVuSans-20" transform="translate(254.492188 0)"/>
     <use xlink:href="#DejaVuSans-70" transform="translate(286.279297 0)"/>
     <use xlink:href="#DejaVuSans-61" transform="translate(349.755859 0)"/>
     <use xlink:href="#DejaVuSans-72" transform="translate(411.035156 0)"/>
     <use xlink:href="#DejaVuSans-61" transform="translate(452.148438 0)"/>
     <use xlink:href="#DejaVuSans-6d" transform="translate(513.427734 0)"/>
     <use xlink:href="#DejaVuSans-65" transform="translate(610.839844 0)"/>
     <use xlink:href="#DejaVuSans-74" transform="translate(672.363281 0)"/>
     <use xlink:href="#DejaVuSans-65" transform="translate(711.572266 0)"/>
     <use xlink:href="#DejaVuSans-72" transform="translate(773.095703 0)"/>
     <use xlink:href="#DejaVuSans-73" transform="translate(814.208984 0)"/>
    </g>
   </g>
  </g>
 </g>
 <defs>
  <clipPath id="p823a8382c6">
   <rect x="12.96" y="12.96" width="591.48" height="238.392"/>
  </clipPath>
 </defs>
</svg>
