<?xml version="1.0" encoding="utf-8" standalone="no"?>
<!DOCTYPE svg PUBLIC "-//W3C//DTD SVG 1.1//EN"
  "http://www.w3.org/Graphics/SVG/1.1/DTD/svg11.dtd">
<svg xmlns:xlink="http://www.w3.org/1999/xlink" width="628.56pt" height="280.944pt" viewBox="0 0 628.56 280.944" xmlns="http://www.w3.org/2000/svg" version="1.1">
 <metadata>
  <rdf:RDF xmlns:dc="http://purl.org/dc/elements/1.1/" xmlns:cc="http://creativecommons.org/ns#" xmlns:rdf="http://www.w3.org/1999/02/22-rdf-syntax-ns#">
   <cc:Work>
    <dc:type rdf:resource="http://purl.org/dc/dcmitype/StillImage"/>
    <dc:date>2026-05-27T22:06:24.950165</dc:date>
    <dc:format>image/svg+xml</dc:format>
    <dc:creator>
     <cc:Agent>
      <dc:title>Matplotlib v3.10.7, https://matplotlib.org/</dc:title>
     </cc:Agent>
    </dc:creator>
   </cc:Work>
  </rdf:RDF>
 </metadata>
 <defs>
  <style type="text/css">*{stroke-linejoin: round; stroke-linecap: butt}</style>
 </defs>
 <g id="figure_1">
  <g id="patch_1">
   <path d="M 0 280.944 
L 628.56 280.944 
L 628.56 0 
L 0 0 
z
" style="fill: #f4f4f4"/>
  </g>
  <g id="axes_1">
   <g id="patch_2">
    <path d="M 28.026 90.487296 
L 66.59496 90.487296 
L 66.59496 63.9648 
L 28.026 63.9648 
z
" clip-path="url(#paaea608429)" style="fill: #f4f4f4; stroke: #e6e6e6; stroke-width: 0.8; stroke-linejoin: miter"/>
   </g>
   <g id="patch_3">
    <path d="M 66.59496 90.487296 
L 105.16392 90.487296 
L 105.16392 63.9648 
L 66.59496 63.9648 
z
" clip-path="url(#paaea608429)" style="fill: #f4f4f4; stroke: #e6e6e6; stroke-width: 0.8; stroke-linejoin: miter"/>
   </g>
   <g id="patch_4">
    <path d="M 105.16392 90.487296 
L 143.73288 90.487296 
L 143.73288 63.9648 
L 105.16392 63.9648 
z
" clip-path="url(#paaea608429)" style="fill: #f4f4f4; stroke: #e6e6e6; stroke-width: 0.8; stroke-linejoin: miter"/>
   </g>
   <g id="patch_5">
    <path d="M 143.73288 90.487296 
L 182.30184 90.487296 
L 182.30184 63.9648 
L 143.73288 63.9648 
z
" clip-path="url(#paaea608429)" style="fill: #f4f4f4; stroke: #e6e6e6; stroke-width: 0.8; stroke-linejoin: miter"/>
   </g>
   <g id="patch_6">
    <path d="M 182.30184 90.487296 
L 220.8708 90.487296 
L 220.8708 63.9648 
L 182.30184 63.9648 
z
" clip-path="url(#paaea608429)" style="fill: #f4f4f4; stroke: #e6e6e6; stroke-width: 0.8; stroke-linejoin: miter"/>
   </g>
   <g id="patch_7">
    <path d="M 220.8708 90.487296 
L 259.43976 90.487296 
L 259.43976 63.9648 
L 220.8708 63.9648 
z
" clip-path="url(#paaea608429)" style="fill: #f4f4f4; stroke: #e6e6e6; stroke-width: 0.8; stroke-linejoin: miter"/>
   </g>
   <g id="patch_8">
    <path d="M 259.43976 90.487296 
L 298.00872 90.487296 
L 298.00872 63.9648 
L 259.43976 63.9648 
z
" clip-path="url(#paaea608429)" style="fill: #f4f4f4; stroke: #e6e6e6; stroke-width: 0.8; stroke-linejoin: miter"/>
   </g>
   <g id="patch_9">
    <path d="M 298.00872 90.487296 
L 336.57768 90.487296 
L 336.57768 63.9648 
L 298.00872 63.9648 
z
" clip-path="url(#paaea608429)" style="fill: #f4f4f4; stroke: #e6e6e6; stroke-width: 0.8; stroke-linejoin: miter"/>
   </g>
   <g id="patch_10">
    <path d="M 336.57768 90.487296 
L 375.14664 90.487296 
L 375.14664 63.9648 
L 336.57768 63.9648 
z
" clip-path="url(#paaea608429)" style="fill: #e0e0e0; stroke: #e6e6e6; stroke-width: 0.8; stroke-linejoin: miter"/>
   </g>
   <g id="patch_11">
    <path d="M 28.026 117.009792 
L 66.59496 117.009792 
L 66.59496 90.487296 
L 28.026 90.487296 
z
" clip-path="url(#paaea608429)" style="fill: #f4f4f4; stroke: #e6e6e6; stroke-width: 0.8; stroke-linejoin: miter"/>
   </g>
   <g id="patch_12">
    <path d="M 66.59496 117.009792 
L 105.16392 117.009792 
L 105.16392 90.487296 
L 66.59496 90.487296 
z
" clip-path="url(#paaea608429)" style="fill: #f4f4f4; stroke: #e6e6e6; stroke-width: 0.8; stroke-linejoin: miter"/>
   </g>
   <g id="patch_13">
    <path d="M 105.16392 117.009792 
L 143.73288 117.009792 
L 143.73288 90.487296 
L 105.16392 90.487296 
z
" clip-path="url(#paaea608429)" style="fill: #f4f4f4; stroke: #e6e6e6; stroke-width: 0.8; stroke-linejoin: miter"/>
   </g>
   <g id="patch_14">
    <path d="M 143.73288 117.009792 
L 182.30184 117.009792 
L 182.30184 90.487296 
L 143.73288 90.487296 
z
" clip-path="url(#paaea608429)" style="fill: #f4f4f4; stroke: #e6e6e6; stroke-width: 0.8; stroke-linejoin: miter"/>
   </g>
   <g id="patch_15">
    <path d="M 182.30184 117.009792 
L 220.8708 117.009792 
L 220.8708 90.487296 
L 182.30184 90.487296 
z
" clip-path="url(#paaea608429)" style="fill: #f4f4f4; stroke: #e6e6e6; stroke-width: 0.8; stroke-linejoin: miter"/>
   </g>
   <g id="patch_16">
    <path d="M 220.8708 117.009792 
L 259.43976 117.009792 
L 259.43976 90.487296 
L 220.8708 90.487296 
z
" clip-path="url(#paaea608429)" style="fill: #f4f4f4; stroke: #e6e6e6; stroke-width: 0.8; stroke-linejoin: miter"/>
   </g>
   <g id="patch_17">
    <path d="M 259.43976 117.009792 
L 298.00872 117.009792 
L 298.00872 90.487296 
L 259.43976 90.487296 
z
" clip-path="url(#paaea608429)" style="fill: #f4f4f4; stroke: #e6e6e6; stroke-width: 0.8; stroke-linejoin: miter"/>
   </g>
   <g id="patch_18">
    <path d="M 298.00872 117.009792 
L 336.57768 117.009792 
L 336.57768 90.487296 
L 298.00872 90.487296 
z
" clip-path="url(#paaea608429)" style="fill: #f4f4f4; stroke: #e6e6e6; stroke-width: 0.8; stroke-linejoin: miter"/>
   </g>
   <g id="patch_19">
    <path d="M 336.57768 117.009792 
L 375.14664 117.009792 
L 375.14664 90.487296 
L 336.57768 90.487296 
z
" clip-path="url(#paaea608429)" style="fill: #e0e0e0; stroke: #e6e6e6; stroke-width: 0.8; stroke-linejoin: miter"/>
   </g>
   <g id="patch_20">
    <path d="M 28.026 143.532288 
L 66.59496 143.532288 
L 66.59496 117.009792 
L 28.026 117.009792 
z
" clip-path="url(#paaea608429)" style="fill: #f4f4f4; stroke: #e6e6e6; stroke-width: 0.8; stroke-linejoin: miter"/>
   </g>
   <g id="patch_21">
    <path d="M 66.59496 143.532288 
L 105.16392 143.532288 
L 105.16392 117.009792 
L 66.59496 117.009792 
z
" clip-path="url(#paaea608429)" style="fill: #f4f4f4; stroke: #e6e6e6; stroke-width: 0.8; stroke-linejoin: miter"/>
   </g>
   <g id="patch_22">
    <path d="M 105.16392 143.532288 
L 143.73288 143.532288 
L 143.73288 117.009792 
L 105.16392 117.009792 
z
" clip-path="url(#paaea608429)" style="fill: #f4f4f4; stroke: #e6e6e6; stroke-width: 0.8; stroke-linejoin: miter"/>
   </g>
   <g id="patch_23">
    <path d="M 143.73288 143.532288 
L 182.30184 143.532288 
L 182.30184 117.009792 
L 143.73288 117.009792 
z
" clip-path="url(#paaea608429)" style="fill: #f4f4f4; stroke: #e6e6e6; stroke-width: 0.8; stroke-linejoin: miter"/>
   </g>
   <g id="patch_24">
    <path d="M 182.30184 143.532288 
L 220.8708 143.532288 
L 220.8708 117.009792 
L 182.30184 117.009792 
z
" clip-path="url(#paaea608429)" style="fill: #f4f4f4; stroke: #e6e6e6; stroke-width: 0.8; stroke-linejoin: miter"/>
   </g>
   <g id="patch_25">
    <path d="M 220.8708 143.532288 
L 259.43976 143.532288 
L 259.43976 117.009792 
L 220.8708 117.009792 
z
" clip-path="url(#paaea608429)" style="fill: #f4f4f4; stroke: #e6e6e6; stroke-width: 0.8; stroke-linejoin: miter"/>
   </g>
   <g id="patch_26">
    <path d="M 259.43976 143.532288 
L 298.00872 143.532288 
L 298.00872 117.009792 
L 259.43976 117.009792 
z
" clip-path="url(#paaea608429)" style="fill: #f4f4f4; stroke: #e6e6e6; stroke-width: 0.8; stroke-linejoin: miter"/>
   </g>
   <g id="patch_27">
    <path d="M 298.00872 143.532288 
L 336.57768 143.532288 
L 336.57768 117.009792 
L 298.00872 117.009792 
z
" clip-path="url(#paaea608429)" style="fill: #f4f4f4; stroke: #e6e6e6; stroke-width: 0.8; stroke-linejoin: miter"/>
   </g>
   <g id="patch_28">
    <path d="M 336.57768 143.532288 
L 375.14664 143.532288 
L 375.14664 117.009792 
L 336.57768 117.009792 
z
" clip-path="url(#paaea608429)" style="fill: #e0e0e0; stroke: #e6e6e6; stroke-width: 0.8; stroke-linejoin: miter"/>
   </g>
   <g id="patch_29">
    <path d="M 28.026 170.054784 
L 66.59496 170.054784 
L 66.59496 143.532288 
L 28.026 143.532288 
z
" clip-path="url(#paaea608429)" style="fill: #f4f4f4; stroke: #e6e6e6; stroke-width: 0.8; stroke-linejoin: miter"/>
   </g>
   <g id="patch_30">
    <path d="M 66.59496 170.054784 
L 105.16392 170.054784 
L 105.16392 143.532288 
L 66.59496 143.532288 
z
" clip-path="url(#paaea608429)" style="fill: #f4f4f4; stroke: #e6e6e6; stroke-width: 0.8; stroke-linejoin: miter"/>
   </g>
   <g id="patch_31">
    <path d="M 105.16392 170.054784 
L 143.73288 170.054784 
L 143.73288 143.532288 
L 105.16392 143.532288 
z
" clip-path="url(#paaea608429)" style="fill: #f4f4f4; stroke: #e6e6e6; stroke-width: 0.8; stroke-linejoin: miter"/>
   </g>
   <g id="patch_32">
    <path d="M 143.73288 170.054784 
L 182.30184 170.054784 
L 182.30184 143.532288 
L 143.73288 143.532288 
z
" clip-path="url(#paaea608429)" style="fill: #f4f4f4; stroke: #e6e6e6; stroke-width: 0.8; stroke-linejoin: miter"/>
   </g>
   <g id="patch_33">
    <path d="M 182.30184 170.054784 
L 220.8708 170.054784 
L 220.8708 143.532288 
L 182.30184 143.532288 
z
" clip-path="url(#paaea608429)" style="fill: #f4f4f4; stroke: #e6e6e6; stroke-width: 0.8; stroke-linejoin: miter"/>
   </g>
   <g id="patch_34">
    <path d="M 220.8708 170.054784 
L 259.43976 170.054784 
L 259.43976 143.532288 
L 220.8708 143.532288 
z
" clip-path="url(#paaea608429)" style="fill: #f4f4f4; stroke: #e6e6e6; stroke-width: 0.8; stroke-linejoin: miter"/>
   </g>
   <g id="patch_35">
    <path d="M 259.43976 170.054784 
L 298.00872 170.054784 
L 298.00872 143.532288 
L 259.43976 143.532288 
z
" clip-path="url(#paaea608429)" style="fill: #f4f4f4; stroke: #e6e6e6; stroke-width: 0.8; stroke-linejoin: miter"/>
   </g>
   <g id="patch_36">
    <path d="M 298.00872 170.054784 
L 336.57768 170.054784 
L 336.57768 143.532288 
L 298.00872 143.532288 
z
" clip-path="url(#paaea608429)" style="fill: #f4f4f4; stroke: #e6e6e6; stroke-width: 0.8; stroke-linejoin: miter"/>
   </g>
   <g id="patch_37">
    <path d="M 336.57768 170.054784 
L 375.14664 170.054784 
L 375.14664 143.532288 
L 336.57768 143.532288 
z
" clip-path="url(#paaea608429)" style="fill: #e0e0e0; stroke: #e6e6e6; stroke-width: 0.8; stroke-linejoin: miter"/>
   </g>
   <g id="patch_38">
    <path d="M 28.026 196.57728 
L 66.59496 196.57728 
L 66.59496 170.054784 
L 28.026 170.054784 
z
" clip-path="url(#paaea608429)" style="fill: #f4f4f4; stroke: #e6e6e6; stroke-width: 0.8; stroke-linejoin: miter"/>
   </g>
   <g id="patch_39">
    <path d="M 66.59496 196.57728 
L 105.16392 196.57728 
L 105.16392 170.054784 
L 66.59496 170.054784 
z
" clip-path="url(#paaea608429)" style="fill: #f4f4f4; stroke: #e6e6e6; stroke-width: 0.8; stroke-linejoin: miter"/>
   </g>
   <g id="patch_40">
    <path d="M 105.16392 196.57728 
L 143.73288 196.57728 
L 143.73288 170.054784 
L 105.16392 170.054784 
z
" clip-path="url(#paaea608429)" style="fill: #f4f4f4; stroke: #e6e6e6; stroke-width: 0.8; stroke-linejoin: miter"/>
   </g>
   <g id="patch_41">
    <path d="M 143.73288 196.57728 
L 182.30184 196.57728 
L 182.30184 170.054784 
L 143.73288 170.054784 
z
" clip-path="url(#paaea608429)" style="fill: #f4f4f4; stroke: #e6e6e6; stroke-width: 0.8; stroke-linejoin: miter"/>
   </g>
   <g id="patch_42">
    <path d="M 182.30184 196.57728 
L 220.8708 196.57728 
L 220.8708 170.054784 
L 182.30184 170.054784 
z
" clip-path="url(#paaea608429)" style="fill: #f4f4f4; stroke: #e6e6e6; stroke-width: 0.8; stroke-linejoin: miter"/>
   </g>
   <g id="patch_43">
    <path d="M 220.8708 196.57728 
L 259.43976 196.57728 
L 259.43976 170.054784 
L 220.8708 170.054784 
z
" clip-path="url(#paaea608429)" style="fill: #f4f4f4; stroke: #e6e6e6; stroke-width: 0.8; stroke-linejoin: miter"/>
   </g>
   <g id="patch_44">
    <path d="M 259.43976 196.57728 
L 298.00872 196.57728 
L 298.00872 170.054784 
L 259.43976 170.054784 
z
" clip-path="url(#paaea608429)" style="fill: #f4f4f4; stroke: #e6e6e6; stroke-width: 0.8; stroke-linejoin: miter"/>
   </g>
   <g id="patch_45">
    <path d="M 298.00872 196.57728 
L 336.57768 196.57728 
L 336.57768 170.054784 
L 298.00872 170.054784 
z
" clip-path="url(#paaea608429)" style="fill: #f4f4f4; stroke: #e6e6e6; stroke-width: 0.8; stroke-linejoin: miter"/>
   </g>
   <g id="patch_46">
    <path d="M 336.57768 196.57728 
L 375.14664 196.57728 
L 375.14664 170.054784 
L 336.57768 170.054784 
z
" clip-path="url(#paaea608429)" style="fill: #e0e0e0; stroke: #e6e6e6; stroke-width: 0.8; stroke-linejoin: miter"/>
   </g>
   <g id="patch_47">
    <path d="M 434.808 90.487296 
L 484.22448 90.487296 
L 484.22448 63.9648 
L 434.808 63.9648 
z
" clip-path="url(#paaea608429)" style="fill: #f4f4f4; stroke: #e6e6e6; stroke-width: 0.8; stroke-linejoin: miter"/>
   </g>
   <g id="patch_48">
    <path d="M 434.808 117.009792 
L 484.22448 117.009792 
L 484.22448 90.487296 
L 434.808 90.487296 
z
" clip-path="url(#paaea608429)" style="fill: #f4f4f4; stroke: #e6e6e6; stroke-width: 0.8; stroke-linejoin: miter"/>
   </g>
   <g id="patch_49">
    <path d="M 434.808 143.532288 
L 484.22448 143.532288 
L 484.22448 117.009792 
L 434.808 117.009792 
z
" clip-path="url(#paaea608429)" style="fill: #f4f4f4; stroke: #e6e6e6; stroke-width: 0.8; stroke-linejoin: miter"/>
   </g>
   <g id="patch_50">
    <path d="M 434.808 170.054784 
L 484.22448 170.054784 
L 484.22448 143.532288 
L 434.808 143.532288 
z
" clip-path="url(#paaea608429)" style="fill: #f4f4f4; stroke: #e6e6e6; stroke-width: 0.8; stroke-linejoin: miter"/>
   </g>
   <g id="patch_51">
    <path d="M 434.808 196.57728 
L 484.22448 196.57728 
L 484.22448 170.054784 
L 434.808 170.054784 
z
" clip-path="url(#paaea608429)" style="fill: #f4f4f4; stroke: #e6e6e6; stroke-width: 0.8; stroke-linejoin: miter"/>
   </g>
   <g id="patch_52">
    <path d="M 537.2568 90.487296 
L 589.08384 90.487296 
L 589.08384 63.9648 
L 537.2568 63.9648 
z
" clip-path="url(#paaea608429)" style="fill: #f4f4f4; stroke: #e6e6e6; stroke-width: 0.8; stroke-linejoin: miter"/>
   </g>
   <g id="patch_53">
    <path d="M 537.2568 117.009792 
L 589.08384 117.009792 
L 589.08384 90.487296 
L 537.2568 90.487296 
z
" clip-path="url(#paaea608429)" style="fill: #f4f4f4; stroke: #e6e6e6; stroke-width: 0.8; stroke-linejoin: miter"/>
   </g>
   <g id="patch_54">
    <path d="M 537.2568 143.532288 
L 589.08384 143.532288 
L 589.08384 117.009792 
L 537.2568 117.009792 
z
" clip-path="url(#paaea608429)" style="fill: #f4f4f4; stroke: #e6e6e6; stroke-width: 0.8; stroke-linejoin: miter"/>
   </g>
   <g id="patch_55">
    <path d="M 537.2568 170.054784 
L 589.08384 170.054784 
L 589.08384 143.532288 
L 537.2568 143.532288 
z
" clip-path="url(#paaea608429)" style="fill: #f4f4f4; stroke: #e6e6e6; stroke-width: 0.8; stroke-linejoin: miter"/>
   </g>
   <g id="patch_56">
    <path d="M 537.2568 196.57728 
L 589.08384 196.57728 
L 589.08384 170.054784 
L 537.2568 170.054784 
z
" clip-path="url(#paaea608429)" style="fill: #f4f4f4; stroke: #e6e6e6; stroke-width: 0.8; stroke-linejoin: miter"/>
   </g>
   <g id="text_1">
    <!-- $X_{\mathrm{aug}}$ -->
    <g style="fill: #050505" transform="translate(179.25632 43.56288) scale(0.22 -0.22)">
     <defs>
      <path id="DejaVuSans-Oblique-58" d="M 878 4666 
L 1516 4666 
L 2316 2981 
L 3763 4666 
L 4500 4666 
L 2578 2438 
L 3738 0 
L 3103 0 
L 2163 1966 
L 459 0 
L -275 0 
L 1906 2509 
L 878 4666 
z
" transform="scale(0.015625)"/>
      <path id="DejaVuSans-61" d="M 2194 1759 
Q 1497 1759 1228 1600 
Q 959 1441 959 1056 
Q 959 750 1161 570 
Q 1363 391 1709 391 
Q 2188 391 2477 730 
Q 2766 1069 2766 1631 
L 2766 1759 
L 2194 1759 
z
M 3341 1997 
L 3341 0 
L 2766 0 
L 2766 531 
Q 2569 213 2275 61 
Q 1981 -91 1556 -91 
Q 1019 -91 701 211 
Q 384 513 384 1019 
Q 384 1609 779 1909 
Q 1175 2209 1959 2209 
L 2766 2209 
L 2766 2266 
Q 2766 2663 2505 2880 
Q 2244 3097 1772 3097 
Q 1472 3097 1187 3025 
Q 903 2953 641 2809 
L 641 3341 
Q 956 3463 1253 3523 
Q 1550 3584 1831 3584 
Q 2591 3584 2966 3190 
Q 3341 2797 3341 1997 
z
" transform="scale(0.015625)"/>
      <path id="DejaVuSans-75" d="M 544 1381 
L 544 3500 
L 1119 3500 
L 1119 1403 
Q 1119 906 1312 657 
Q 1506 409 1894 409 
Q 2359 409 2629 706 
Q 2900 1003 2900 1516 
L 2900 3500 
L 3475 3500 
L 3475 0 
L 2900 0 
L 2900 538 
Q 2691 219 2414 64 
Q 2138 -91 1772 -91 
Q 1169 -91 856 284 
Q 544 659 544 1381 
z
M 1991 3584 
L 1991 3584 
z
" transform="scale(0.015625)"/>
      <path id="DejaVuSans-67" d="M 2906 1791 
Q 2906 2416 2648 2759 
Q 2391 3103 1925 3103 
Q 1463 3103 1205 2759 
Q 947 2416 947 1791 
Q 947 1169 1205 825 
Q 1463 481 1925 481 
Q 2391 481 2648 825 
Q 2906 1169 2906 1791 
z
M 3481 434 
Q 3481 -459 3084 -895 
Q 2688 -1331 1869 -1331 
Q 1566 -1331 1297 -1286 
Q 1028 -1241 775 -1147 
L 775 -588 
Q 1028 -725 1275 -790 
Q 1522 -856 1778 -856 
Q 2344 -856 2625 -561 
Q 2906 -266 2906 331 
L 2906 616 
Q 2728 306 2450 153 
Q 2172 0 1784 0 
Q 1141 0 747 490 
Q 353 981 353 1791 
Q 353 2603 747 3093 
Q 1141 3584 1784 3584 
Q 2172 3584 2450 3431 
Q 2728 3278 2906 2969 
L 2906 3500 
L 3481 3500 
L 3481 434 
z
" transform="scale(0.015625)"/>
     </defs>
     <use xlink:href="#DejaVuSans-Oblique-58" transform="translate(0 0.09375)"/>
     <use xlink:href="#DejaVuSans-61" transform="translate(68.505859 -16.3125) scale(0.7)"/>
     <use xlink:href="#DejaVuSans-75" transform="translate(111.401367 -16.3125) scale(0.7)"/>
     <use xlink:href="#DejaVuSans-67" transform="translate(155.766602 -16.3125) scale(0.7)"/>
    </g>
   </g>
   <g id="text_2">
    <!-- $N$ image rows, $4097$ columns -->
    <g style="fill: #333333" transform="translate(125.09382 222.07968) scale(0.105 -0.105)">
     <defs>
      <path id="DejaVuSans-Oblique-4e" d="M 1081 4666 
L 1931 4666 
L 3219 666 
L 4000 4666 
L 4616 4666 
L 3706 0 
L 2853 0 
L 1569 4025 
L 788 0 
L 172 0 
L 1081 4666 
z
" transform="scale(0.015625)"/>
      <path id="DejaVuSans-20" transform="scale(0.015625)"/>
      <path id="DejaVuSans-69" d="M 603 3500 
L 1178 3500 
L 1178 0 
L 603 0 
L 603 3500 
z
M 603 4863 
L 1178 4863 
L 1178 4134 
L 603 4134 
L 603 4863 
z
" transform="scale(0.015625)"/>
      <path id="DejaVuSans-6d" d="M 3328 2828 
Q 3544 3216 3844 3400 
Q 4144 3584 4550 3584 
Q 5097 3584 5394 3201 
Q 5691 2819 5691 2113 
L 5691 0 
L 5113 0 
L 5113 2094 
Q 5113 2597 4934 2840 
Q 4756 3084 4391 3084 
Q 3944 3084 3684 2787 
Q 3425 2491 3425 1978 
L 3425 0 
L 2847 0 
L 2847 2094 
Q 2847 2600 2669 2842 
Q 2491 3084 2119 3084 
Q 1678 3084 1418 2786 
Q 1159 2488 1159 1978 
L 1159 0 
L 581 0 
L 581 3500 
L 1159 3500 
L 1159 2956 
Q 1356 3278 1631 3431 
Q 1906 3584 2284 3584 
Q 2666 3584 2933 3390 
Q 3200 3197 3328 2828 
z
" transform="scale(0.015625)"/>
      <path id="DejaVuSans-65" d="M 3597 1894 
L 3597 1613 
L 953 1613 
Q 991 1019 1311 708 
Q 1631 397 2203 397 
Q 2534 397 2845 478 
Q 3156 559 3463 722 
L 3463 178 
Q 3153 47 2828 -22 
Q 2503 -91 2169 -91 
Q 1331 -91 842 396 
Q 353 884 353 1716 
Q 353 2575 817 3079 
Q 1281 3584 2069 3584 
Q 2775 3584 3186 3129 
Q 3597 2675 3597 1894 
z
M 3022 2063 
Q 3016 2534 2758 2815 
Q 2500 3097 2075 3097 
Q 1594 3097 1305 2825 
Q 1016 2553 972 2059 
L 3022 2063 
z
" transform="scale(0.015625)"/>
      <path id="DejaVuSans-72" d="M 2631 2963 
Q 2534 3019 2420 3045 
Q 2306 3072 2169 3072 
Q 1681 3072 1420 2755 
Q 1159 2438 1159 1844 
L 1159 0 
L 581 0 
L 581 3500 
L 1159 3500 
L 1159 2956 
Q 1341 3275 1631 3429 
Q 1922 3584 2338 3584 
Q 2397 3584 2469 3576 
Q 2541 3569 2628 3553 
L 2631 2963 
z
" transform="scale(0.015625)"/>
      <path id="DejaVuSans-6f" d="M 1959 3097 
Q 1497 3097 1228 2736 
Q 959 2375 959 1747 
Q 959 1119 1226 758 
Q 1494 397 1959 397 
Q 2419 397 2687 759 
Q 2956 1122 2956 1747 
Q 2956 2369 2687 2733 
Q 2419 3097 1959 3097 
z
M 1959 3584 
Q 2709 3584 3137 3096 
Q 3566 2609 3566 1747 
Q 3566 888 3137 398 
Q 2709 -91 1959 -91 
Q 1206 -91 779 398 
Q 353 888 353 1747 
Q 353 2609 779 3096 
Q 1206 3584 1959 3584 
z
" transform="scale(0.015625)"/>
      <path id="DejaVuSans-77" d="M 269 3500 
L 844 3500 
L 1563 769 
L 2278 3500 
L 2956 3500 
L 3675 769 
L 4391 3500 
L 4966 3500 
L 4050 0 
L 3372 0 
L 2619 2869 
L 1863 0 
L 1184 0 
L 269 3500 
z
" transform="scale(0.015625)"/>
      <path id="DejaVuSans-73" d="M 2834 3397 
L 2834 2853 
Q 2591 2978 2328 3040 
Q 2066 3103 1784 3103 
Q 1356 3103 1142 2972 
Q 928 2841 928 2578 
Q 928 2378 1081 2264 
Q 1234 2150 1697 2047 
L 1894 2003 
Q 2506 1872 2764 1633 
Q 3022 1394 3022 966 
Q 3022 478 2636 193 
Q 2250 -91 1575 -91 
Q 1294 -91 989 -36 
Q 684 19 347 128 
L 347 722 
Q 666 556 975 473 
Q 1284 391 1588 391 
Q 1994 391 2212 530 
Q 2431 669 2431 922 
Q 2431 1156 2273 1281 
Q 2116 1406 1581 1522 
L 1381 1569 
Q 847 1681 609 1914 
Q 372 2147 372 2553 
Q 372 3047 722 3315 
Q 1072 3584 1716 3584 
Q 2034 3584 2315 3537 
Q 2597 3491 2834 3397 
z
" transform="scale(0.015625)"/>
      <path id="DejaVuSans-2c" d="M 750 794 
L 1409 794 
L 1409 256 
L 897 -744 
L 494 -744 
L 750 256 
L 750 794 
z
" transform="scale(0.015625)"/>
      <path id="DejaVuSans-34" d="M 2419 4116 
L 825 1625 
L 2419 1625 
L 2419 4116 
z
M 2253 4666 
L 3047 4666 
L 3047 1625 
L 3713 1625 
L 3713 1100 
L 3047 1100 
L 3047 0 
L 2419 0 
L 2419 1100 
L 313 1100 
L 313 1709 
L 2253 4666 
z
" transform="scale(0.015625)"/>
      <path id="DejaVuSans-30" d="M 2034 4250 
Q 1547 4250 1301 3770 
Q 1056 3291 1056 2328 
Q 1056 1369 1301 889 
Q 1547 409 2034 409 
Q 2525 409 2770 889 
Q 3016 1369 3016 2328 
Q 3016 3291 2770 3770 
Q 2525 4250 2034 4250 
z
M 2034 4750 
Q 2819 4750 3233 4129 
Q 3647 3509 3647 2328 
Q 3647 1150 3233 529 
Q 2819 -91 2034 -91 
Q 1250 -91 836 529 
Q 422 1150 422 2328 
Q 422 3509 836 4129 
Q 1250 4750 2034 4750 
z
" transform="scale(0.015625)"/>
      <path id="DejaVuSans-39" d="M 703 97 
L 703 672 
Q 941 559 1184 500 
Q 1428 441 1663 441 
Q 2288 441 2617 861 
Q 2947 1281 2994 2138 
Q 2813 1869 2534 1725 
Q 2256 1581 1919 1581 
Q 1219 1581 811 2004 
Q 403 2428 403 3163 
Q 403 3881 828 4315 
Q 1253 4750 1959 4750 
Q 2769 4750 3195 4129 
Q 3622 3509 3622 2328 
Q 3622 1225 3098 567 
Q 2575 -91 1691 -91 
Q 1453 -91 1209 -44 
Q 966 3 703 97 
z
M 1959 2075 
Q 2384 2075 2632 2365 
Q 2881 2656 2881 3163 
Q 2881 3666 2632 3958 
Q 2384 4250 1959 4250 
Q 1534 4250 1286 3958 
Q 1038 3666 1038 3163 
Q 1038 2656 1286 2365 
Q 1534 2075 1959 2075 
z
" transform="scale(0.015625)"/>
      <path id="DejaVuSans-37" d="M 525 4666 
L 3525 4666 
L 3525 4397 
L 1831 0 
L 1172 0 
L 2766 4134 
L 525 4134 
L 525 4666 
z
" transform="scale(0.015625)"/>
      <path id="DejaVuSans-63" d="M 3122 3366 
L 3122 2828 
Q 2878 2963 2633 3030 
Q 2388 3097 2138 3097 
Q 1578 3097 1268 2742 
Q 959 2388 959 1747 
Q 959 1106 1268 751 
Q 1578 397 2138 397 
Q 2388 397 2633 464 
Q 2878 531 3122 666 
L 3122 134 
Q 2881 22 2623 -34 
Q 2366 -91 2075 -91 
Q 1284 -91 818 406 
Q 353 903 353 1747 
Q 353 2603 823 3093 
Q 1294 3584 2113 3584 
Q 2378 3584 2631 3529 
Q 2884 3475 3122 3366 
z
" transform="scale(0.015625)"/>
      <path id="DejaVuSans-6c" d="M 603 4863 
L 1178 4863 
L 1178 0 
L 603 0 
L 603 4863 
z
" transform="scale(0.015625)"/>
      <path id="DejaVuSans-6e" d="M 3513 2113 
L 3513 0 
L 2938 0 
L 2938 2094 
Q 2938 2591 2744 2837 
Q 2550 3084 2163 3084 
Q 1697 3084 1428 2787 
Q 1159 2491 1159 1978 
L 1159 0 
L 581 0 
L 581 3500 
L 1159 3500 
L 1159 2956 
Q 1366 3272 1645 3428 
Q 1925 3584 2291 3584 
Q 2894 3584 3203 3211 
Q 3513 2838 3513 2113 
z
" transform="scale(0.015625)"/>
     </defs>
     <use xlink:href="#DejaVuSans-Oblique-4e" transform="translate(0 0.015625)"/>
     <use xlink:href="#DejaVuSans-20" transform="translate(74.804688 0.015625)"/>
     <use xlink:href="#DejaVuSans-69" transform="translate(106.591797 0.015625)"/>
     <use xlink:href="#DejaVuSans-6d" transform="translate(134.375 0.015625)"/>
     <use xlink:href="#DejaVuSans-61" transform="translate(231.787109 0.015625)"/>
     <use xlink:href="#DejaVuSans-67" transform="translate(293.066406 0.015625)"/>
     <use xlink:href="#DejaVuSans-65" transform="translate(356.542969 0.015625)"/>
     <use xlink:href="#DejaVuSans-20" transform="translate(418.066406 0.015625)"/>
     <use xlink:href="#DejaVuSans-72" transform="translate(449.853516 0.015625)"/>
     <use xlink:href="#DejaVuSans-6f" transform="translate(490.966797 0.015625)"/>
     <use xlink:href="#DejaVuSans-77" transform="translate(552.148438 0.015625)"/>
     <use xlink:href="#DejaVuSans-73" transform="translate(633.935547 0.015625)"/>
     <use xlink:href="#DejaVuSans-2c" transform="translate(686.035156 0.015625)"/>
     <use xlink:href="#DejaVuSans-20" transform="translate(717.822266 0.015625)"/>
     <use xlink:href="#DejaVuSans-34" transform="translate(749.609375 0.015625)"/>
     <use xlink:href="#DejaVuSans-30" transform="translate(813.232422 0.015625)"/>
     <use xlink:href="#DejaVuSans-39" transform="translate(876.855469 0.015625)"/>
     <use xlink:href="#DejaVuSans-37" transform="translate(940.478516 0.015625)"/>
     <use xlink:href="#DejaVuSans-20" transform="translate(1004.101562 0.015625)"/>
     <use xlink:href="#DejaVuSans-63" transform="translate(1035.888672 0.015625)"/>
     <use xlink:href="#DejaVuSans-6f" transform="translate(1090.869141 0.015625)"/>
     <use xlink:href="#DejaVuSans-6c" transform="translate(1152.050781 0.015625)"/>
     <use xlink:href="#DejaVuSans-75" transform="translate(1179.833984 0.015625)"/>
     <use xlink:href="#DejaVuSans-6d" transform="translate(1243.212891 0.015625)"/>
     <use xlink:href="#DejaVuSans-6e" transform="translate(1340.625 0.015625)"/>
     <use xlink:href="#DejaVuSans-73" transform="translate(1404.003906 0.015625)"/>
    </g>
   </g>
   <g id="text_3">
    <!-- bias column -->
    <g style="fill: #666666" transform="translate(327.146926 239.93136) scale(0.095 -0.095)">
     <defs>
      <path id="DejaVuSans-62" d="M 3116 1747 
Q 3116 2381 2855 2742 
Q 2594 3103 2138 3103 
Q 1681 3103 1420 2742 
Q 1159 2381 1159 1747 
Q 1159 1113 1420 752 
Q 1681 391 2138 391 
Q 2594 391 2855 752 
Q 3116 1113 3116 1747 
z
M 1159 2969 
Q 1341 3281 1617 3432 
Q 1894 3584 2278 3584 
Q 2916 3584 3314 3078 
Q 3713 2572 3713 1747 
Q 3713 922 3314 415 
Q 2916 -91 2278 -91 
Q 1894 -91 1617 61 
Q 1341 213 1159 525 
L 1159 0 
L 581 0 
L 581 4863 
L 1159 4863 
L 1159 2969 
z
" transform="scale(0.015625)"/>
     </defs>
     <use xlink:href="#DejaVuSans-62"/>
     <use xlink:href="#DejaVuSans-69" transform="translate(63.476562 0)"/>
     <use xlink:href="#DejaVuSans-61" transform="translate(91.259766 0)"/>
     <use xlink:href="#DejaVuSans-73" transform="translate(152.539062 0)"/>
     <use xlink:href="#DejaVuSans-20" transform="translate(204.638672 0)"/>
     <use xlink:href="#DejaVuSans-63" transform="translate(236.425781 0)"/>
     <use xlink:href="#DejaVuSans-6f" transform="translate(291.40625 0)"/>
     <use xlink:href="#DejaVuSans-6c" transform="translate(352.587891 0)"/>
     <use xlink:href="#DejaVuSans-75" transform="translate(380.371094 0)"/>
     <use xlink:href="#DejaVuSans-6d" transform="translate(443.75 0)"/>
     <use xlink:href="#DejaVuSans-6e" transform="translate(541.162109 0)"/>
    </g>
   </g>
   <g id="text_4">
    <!-- $\times$ -->
    <g style="fill: #050505" transform="translate(383.8764 137.99729) scale(0.28 -0.28)">
     <defs>
      <path id="DejaVuSans-d7" d="M 4488 3438 
L 3059 2003 
L 4488 575 
L 4116 197 
L 2681 1631 
L 1247 197 
L 878 575 
L 2303 2003 
L 878 3438 
L 1247 3816 
L 2681 2381 
L 4116 3816 
L 4488 3438 
z
" transform="scale(0.015625)"/>
     </defs>
     <use xlink:href="#DejaVuSans-d7" transform="translate(0 0.375)"/>
    </g>
   </g>
   <g id="text_5">
    <!-- $\tilde{w}$ -->
    <g style="fill: #050505" transform="translate(450.49624 43.56288) scale(0.22 -0.22)">
     <defs>
      <path id="DejaVuSans-303" d="M -1621 4281 
L -1799 4453 
Q -1867 4516 -1919 4545 
Q -1971 4575 -2011 4575 
Q -2130 4575 -2186 4461 
Q -2242 4347 -2249 4091 
L -2639 4091 
Q -2633 4513 -2473 4742 
Q -2314 4972 -2030 4972 
Q -1911 4972 -1811 4928 
Q -1711 4884 -1596 4781 
L -1417 4609 
Q -1349 4547 -1297 4517 
Q -1246 4488 -1205 4488 
Q -1086 4488 -1030 4602 
Q -974 4716 -967 4972 
L -577 4972 
Q -583 4550 -742 4320 
Q -902 4091 -1186 4091 
Q -1305 4091 -1405 4134 
Q -1505 4178 -1621 4281 
z
" transform="scale(0.015625)"/>
      <path id="DejaVuSans-Oblique-77" d="M 544 3500 
L 1113 3500 
L 1259 684 
L 2566 3500 
L 3231 3500 
L 3425 684 
L 4666 3500 
L 5241 3500 
L 3641 0 
L 2969 0 
L 2797 2900 
L 1459 0 
L 781 0 
L 544 3500 
z
" transform="scale(0.015625)"/>
     </defs>
     <use xlink:href="#DejaVuSans-303" transform="translate(76.681152 3.3125)"/>
     <use xlink:href="#DejaVuSans-Oblique-77" transform="translate(0 0.046875)"/>
    </g>
   </g>
   <g id="text_6">
    <!-- unknown weights -->
    <g style="fill: #333333" transform="translate(413.557412 210.321977) scale(0.105 -0.105)">
     <defs>
      <path id="DejaVuSans-6b" d="M 581 4863 
L 1159 4863 
L 1159 1991 
L 2875 3500 
L 3609 3500 
L 1753 1863 
L 3688 0 
L 2938 0 
L 1159 1709 
L 1159 0 
L 581 0 
L 581 4863 
z
" transform="scale(0.015625)"/>
      <path id="DejaVuSans-68" d="M 3513 2113 
L 3513 0 
L 2938 0 
L 2938 2094 
Q 2938 2591 2744 2837 
Q 2550 3084 2163 3084 
Q 1697 3084 1428 2787 
Q 1159 2491 1159 1978 
L 1159 0 
L 581 0 
L 581 4863 
L 1159 4863 
L 1159 2956 
Q 1366 3272 1645 3428 
Q 1925 3584 2291 3584 
Q 2894 3584 3203 3211 
Q 3513 2838 3513 2113 
z
" transform="scale(0.015625)"/>
      <path id="DejaVuSans-74" d="M 1172 4494 
L 1172 3500 
L 2356 3500 
L 2356 3053 
L 1172 3053 
L 1172 1153 
Q 1172 725 1289 603 
Q 1406 481 1766 481 
L 2356 481 
L 2356 0 
L 1766 0 
Q 1100 0 847 248 
Q 594 497 594 1153 
L 594 3053 
L 172 3053 
L 172 3500 
L 594 3500 
L 594 4494 
L 1172 4494 
z
" transform="scale(0.015625)"/>
     </defs>
     <use xlink:href="#DejaVuSans-75"/>
     <use xlink:href="#DejaVuSans-6e" transform="translate(63.378906 0)"/>
     <use xlink:href="#DejaVuSans-6b" transform="translate(126.757812 0)"/>
     <use xlink:href="#DejaVuSans-6e" transform="translate(184.667969 0)"/>
     <use xlink:href="#DejaVuSans-6f" transform="translate(248.046875 0)"/>
     <use xlink:href="#DejaVuSans-77" transform="translate(309.228516 0)"/>
     <use xlink:href="#DejaVuSans-6e" transform="translate(391.015625 0)"/>
     <use xlink:href="#DejaVuSans-20" transform="translate(454.394531 0)"/>
     <use xlink:href="#DejaVuSans-77" transform="translate(486.181641 0)"/>
     <use xlink:href="#DejaVuSans-65" transform="translate(567.96875 0)"/>
     <use xlink:href="#DejaVuSans-69" transform="translate(629.492188 0)"/>
     <use xlink:href="#DejaVuSans-67" transform="translate(657.275391 0)"/>
     <use xlink:href="#DejaVuSans-68" transform="translate(720.751953 0)"/>
     <use xlink:href="#DejaVuSans-74" transform="translate(784.130859 0)"/>
     <use xlink:href="#DejaVuSans-73" transform="translate(823.339844 0)"/>
    </g>
    <!-- and bias -->
    <g style="fill: #333333" transform="translate(437.226709 222.07968) scale(0.105 -0.105)">
     <defs>
      <path id="DejaVuSans-64" d="M 2906 2969 
L 2906 4863 
L 3481 4863 
L 3481 0 
L 2906 0 
L 2906 525 
Q 2725 213 2448 61 
Q 2172 -91 1784 -91 
Q 1150 -91 751 415 
Q 353 922 353 1747 
Q 353 2572 751 3078 
Q 1150 3584 1784 3584 
Q 2172 3584 2448 3432 
Q 2725 3281 2906 2969 
z
M 947 1747 
Q 947 1113 1208 752 
Q 1469 391 1925 391 
Q 2381 391 2643 752 
Q 2906 1113 2906 1747 
Q 2906 2381 2643 2742 
Q 2381 3103 1925 3103 
Q 1469 3103 1208 2742 
Q 947 2381 947 1747 
z
" transform="scale(0.015625)"/>
     </defs>
     <use xlink:href="#DejaVuSans-61"/>
     <use xlink:href="#DejaVuSans-6e" transform="translate(61.279297 0)"/>
     <use xlink:href="#DejaVuSans-64" transform="translate(124.658203 0)"/>
     <use xlink:href="#DejaVuSans-20" transform="translate(188.134766 0)"/>
     <use xlink:href="#DejaVuSans-62" transform="translate(219.921875 0)"/>
     <use xlink:href="#DejaVuSans-69" transform="translate(283.398438 0)"/>
     <use xlink:href="#DejaVuSans-61" transform="translate(311.181641 0)"/>
     <use xlink:href="#DejaVuSans-73" transform="translate(372.460938 0)"/>
    </g>
   </g>
   <g id="text_7">
    <!-- $=$ -->
    <g style="fill: #050505" transform="translate(480.8652 137.99729) scale(0.28 -0.28)">
     <defs>
      <path id="DejaVuSans-3d" d="M 678 2906 
L 4684 2906 
L 4684 2381 
L 678 2381 
L 678 2906 
z
M 678 1631 
L 4684 1631 
L 4684 1100 
L 678 1100 
L 678 1631 
z
" transform="scale(0.015625)"/>
     </defs>
     <use xlink:href="#DejaVuSans-3d" transform="translate(19.482422 0.59375)"/>
    </g>
   </g>
   <g id="text_8">
    <!-- +1 -->
    <g style="fill: #050505" transform="translate(555.430672 80.123392) scale(0.105 -0.105)">
     <defs>
      <path id="DejaVuSans-2b" d="M 2944 4013 
L 2944 2272 
L 4684 2272 
L 4684 1741 
L 2944 1741 
L 2944 0 
L 2419 0 
L 2419 1741 
L 678 1741 
L 678 2272 
L 2419 2272 
L 2419 4013 
L 2944 4013 
z
" transform="scale(0.015625)"/>
      <path id="DejaVuSans-31" d="M 794 531 
L 1825 531 
L 1825 4091 
L 703 3866 
L 703 4441 
L 1819 4666 
L 2450 4666 
L 2450 531 
L 3481 531 
L 3481 0 
L 794 0 
L 794 531 
z
" transform="scale(0.015625)"/>
     </defs>
     <use xlink:href="#DejaVuSans-2b"/>
     <use xlink:href="#DejaVuSans-31" transform="translate(83.789062 0)"/>
    </g>
   </g>
   <g id="text_9">
    <!-- -1 -->
    <g style="fill: #050505" transform="translate(557.935906 106.645888) scale(0.105 -0.105)">
     <defs>
      <path id="DejaVuSans-2d" d="M 313 2009 
L 1997 2009 
L 1997 1497 
L 313 1497 
L 313 2009 
z
" transform="scale(0.015625)"/>
     </defs>
     <use xlink:href="#DejaVuSans-2d"/>
     <use xlink:href="#DejaVuSans-31" transform="translate(36.083984 0)"/>
    </g>
   </g>
   <g id="text_10">
    <!-- +1 -->
    <g style="fill: #050505" transform="translate(555.430672 133.168384) scale(0.105 -0.105)">
     <use xlink:href="#DejaVuSans-2b"/>
     <use xlink:href="#DejaVuSans-31" transform="translate(83.789062 0)"/>
    </g>
   </g>
   <g id="text_11">
    <!-- ... -->
    <g style="fill: #050505" transform="translate(558.164773 159.69088) scale(0.105 -0.105)">
     <defs>
      <path id="DejaVuSans-2e" d="M 684 794 
L 1344 794 
L 1344 0 
L 684 0 
L 684 794 
z
" transform="scale(0.015625)"/>
     </defs>
     <use xlink:href="#DejaVuSans-2e"/>
     <use xlink:href="#DejaVuSans-2e" transform="translate(31.787109 0)"/>
     <use xlink:href="#DejaVuSans-2e" transform="translate(63.574219 0)"/>
    </g>
   </g>
   <g id="text_12">
    <!-- -1 -->
    <g style="fill: #050505" transform="translate(557.935906 186.213376) scale(0.105 -0.105)">
     <use xlink:href="#DejaVuSans-2d"/>
     <use xlink:href="#DejaVuSans-31" transform="translate(36.083984 0)"/>
    </g>
   </g>
   <g id="text_13">
    <!-- $y$ -->
    <g style="fill: #050505" transform="translate(556.57032 43.56288) scale(0.22 -0.22)">
     <defs>
      <path id="DejaVuSans-Oblique-79" d="M 1588 -325 
Q 1188 -997 936 -1164 
Q 684 -1331 294 -1331 
L -159 -1331 
L -63 -850 
L 269 -850 
Q 509 -850 678 -719 
Q 847 -588 1056 -206 
L 1234 128 
L 459 3500 
L 1069 3500 
L 1650 819 
L 3256 3500 
L 3859 3500 
L 1588 -325 
z
" transform="scale(0.015625)"/>
     </defs>
     <use xlink:href="#DejaVuSans-Oblique-79" transform="translate(0 0.3125)"/>
    </g>
   </g>
   <g id="text_14">
    <!-- assigned labels -->
    <g style="fill: #333333" transform="translate(522.700203 222.07968) scale(0.105 -0.105)">
     <use xlink:href="#DejaVuSans-61"/>
     <use xlink:href="#DejaVuSans-73" transform="translate(61.279297 0)"/>
     <use xlink:href="#DejaVuSans-73" transform="translate(113.378906 0)"/>
     <use xlink:href="#DejaVuSans-69" transform="translate(165.478516 0)"/>
     <use xlink:href="#DejaVuSans-67" transform="translate(193.261719 0)"/>
     <use xlink:href="#DejaVuSans-6e" transform="translate(256.738281 0)"/>
     <use xlink:href="#DejaVuSans-65" transform="translate(320.117188 0)"/>
     <use xlink:href="#DejaVuSans-64" transform="translate(381.640625 0)"/>
     <use xlink:href="#DejaVuSans-20" transform="translate(445.117188 0)"/>
     <use xlink:href="#DejaVuSans-6c" transform="translate(476.904297 0)"/>
     <use xlink:href="#DejaVuSans-61" transform="translate(504.6875 0)"/>
     <use xlink:href="#DejaVuSans-62" transform="translate(565.966797 0)"/>
     <use xlink:href="#DejaVuSans-65" transform="translate(629.443359 0)"/>
     <use xlink:href="#DejaVuSans-6c" transform="translate(690.966797 0)"/>
     <use xlink:href="#DejaVuSans-73" transform="translate(718.75 0)"/>
    </g>
   </g>
  </g>
 </g>
 <defs>
  <clipPath id="paaea608429">
   <rect x="12.96" y="12.96" width="602.64" height="255.024"/>
  </clipPath>
 </defs>
</svg>
