<?xml version="1.0" encoding="utf-8" standalone="no"?>
<!DOCTYPE svg PUBLIC "-//W3C//DTD SVG 1.1//EN"
  "http://www.w3.org/Graphics/SVG/1.1/DTD/svg11.dtd">
<svg xmlns:xlink="http://www.w3.org/1999/xlink" width="672.75pt" height="292.032pt" viewBox="0 0 672.75 292.032" xmlns="http://www.w3.org/2000/svg" version="1.1">
 <metadata>
  <rdf:RDF xmlns:dc="http://purl.org/dc/elements/1.1/" xmlns:cc="http://creativecommons.org/ns#" xmlns:rdf="http://www.w3.org/1999/02/22-rdf-syntax-ns#">
   <cc:Work>
    <dc:type rdf:resource="http://purl.org/dc/dcmitype/StillImage"/>
    <dc:date>2026-05-27T22:06:24.834427</dc:date>
    <dc:format>image/svg+xml</dc:format>
    <dc:creator>
     <cc:Agent>
      <dc:title>Matplotlib v3.10.7, https://matplotlib.org/</dc:title>
     </cc:Agent>
    </dc:creator>
   </cc:Work>
  </rdf:RDF>
 </metadata>
 <defs>
  <style type="text/css">*{stroke-linejoin: round; stroke-linecap: butt}</style>
 </defs>
 <g id="figure_1">
  <g id="patch_1">
   <path d="M 0 292.032 
L 672.75 292.032 
L 672.75 0 
L 0 0 
z
" style="fill: #f4f4f4"/>
  </g>
  <g id="axes_1">
   <g id="patch_2">
    <path d="M 62.064 78.15744 
C 69.389175 78.15744 76.415316 76.895674 81.594996 74.650032 
C 86.774677 72.40439 89.685 69.358218 89.685 66.1824 
C 89.685 63.006582 86.774677 59.96041 81.594996 57.714768 
C 76.415316 55.469126 69.389175 54.20736 62.064 54.20736 
C 54.738825 54.20736 47.712684 55.469126 42.533004 57.714768 
C 37.353323 59.96041 34.443 63.006582 34.443 66.1824 
C 34.443 69.358218 37.353323 72.40439 42.533004 74.650032 
C 47.712684 76.895674 54.738825 78.15744 62.064 78.15744 
z
" clip-path="url(#p8aa90911a8)" style="fill: #f4f4f4; stroke: #050505; stroke-width: 1.4; stroke-linejoin: miter"/>
   </g>
   <g id="patch_3">
    <path d="M 94.572761 67.011695 
Q 185.179949 108.24 279.652109 134.43594 
" clip-path="url(#p8aa90911a8)" style="fill: none; stroke: #777777; stroke-width: 1.35; stroke-linecap: round"/>
    <path d="M 275.003902 130.2414 
L 279.652109 134.43594 
L 273.507553 135.637782 
z
" clip-path="url(#p8aa90911a8)" style="fill: #777777; stroke: #777777; stroke-width: 1.35; stroke-linecap: round"/>
   </g>
   <g id="patch_4">
    <path d="M 62.064 126.0576 
C 69.389175 126.0576 76.415316 124.795834 81.594996 122.550192 
C 86.774677 120.30455 89.685 117.258378 89.685 114.08256 
C 89.685 110.906742 86.774677 107.86057 81.594996 105.614928 
C 76.415316 103.369286 69.389175 102.10752 62.064 102.10752 
C 54.738825 102.10752 47.712684 103.369286 42.533004 105.614928 
C 37.353323 107.86057 34.443 110.906742 34.443 114.08256 
C 34.443 117.258378 37.353323 120.30455 42.533004 122.550192 
C 47.712684 124.795834 54.738825 126.0576 62.064 126.0576 
z
" clip-path="url(#p8aa90911a8)" style="fill: #f4f4f4; stroke: #050505; stroke-width: 1.4; stroke-linejoin: miter"/>
   </g>
   <g id="patch_5">
    <path d="M 94.719466 114.461417 
Q 187.060705 132.181497 279.526351 135.256588 
" clip-path="url(#p8aa90911a8)" style="fill: none; stroke: #777777; stroke-width: 1.35; stroke-linecap: round"/>
    <path d="M 274.022512 132.272001 
L 279.526351 135.256588 
L 273.836378 137.868907 
z
" clip-path="url(#p8aa90911a8)" style="fill: #777777; stroke: #777777; stroke-width: 1.35; stroke-linecap: round"/>
   </g>
   <g id="patch_6">
    <path d="M 62.064 173.95776 
C 69.389175 173.95776 76.415316 172.695994 81.594996 170.450352 
C 86.774677 168.20471 89.685 165.158538 89.685 161.98272 
C 89.685 158.806902 86.774677 155.76073 81.594996 153.515088 
C 76.415316 151.269446 69.389175 150.00768 62.064 150.00768 
C 54.738825 150.00768 47.712684 151.269446 42.533004 153.515088 
C 37.353323 155.76073 34.443 158.806902 34.443 161.98272 
C 34.443 165.158538 37.353323 168.20471 42.533004 170.450352 
C 47.712684 172.695994 54.738825 173.95776 62.064 173.95776 
z
" clip-path="url(#p8aa90911a8)" style="fill: #f4f4f4; stroke: #050505; stroke-width: 1.4; stroke-linejoin: miter"/>
   </g>
   <g id="patch_7">
    <path d="M 94.709331 161.549663 
Q 186.852079 141.222174 279.529668 135.582976 
" clip-path="url(#p8aa90911a8)" style="fill: none; stroke: #777777; stroke-width: 1.35; stroke-linecap: round"/>
    <path d="M 273.769947 133.128262 
L 279.529668 135.582976 
L 274.110064 138.717924 
z
" clip-path="url(#p8aa90911a8)" style="fill: #777777; stroke: #777777; stroke-width: 1.35; stroke-linecap: round"/>
   </g>
   <g id="patch_8">
    <path d="M 62.064 221.85792 
C 69.389175 221.85792 76.415316 220.596154 81.594996 218.350512 
C 86.774677 216.10487 89.685 213.058698 89.685 209.88288 
C 89.685 206.707062 86.774677 203.66089 81.594996 201.415248 
C 76.415316 199.169606 69.389175 197.90784 62.064 197.90784 
C 54.738825 197.90784 47.712684 199.169606 42.533004 201.415248 
C 37.353323 203.66089 34.443 206.707062 34.443 209.88288 
C 34.443 213.058698 37.353323 216.10487 42.533004 218.350512 
C 47.712684 220.596154 54.738825 221.85792 62.064 221.85792 
z
" clip-path="url(#p8aa90911a8)" style="fill: #f4f4f4; stroke: #050505; stroke-width: 1.4; stroke-linejoin: miter"/>
   </g>
   <g id="patch_9">
    <path d="M 94.551726 209.009392 
Q 184.970507 165.162858 279.675866 136.38956 
" clip-path="url(#p8aa90911a8)" style="fill: none; stroke: #777777; stroke-width: 1.35; stroke-linecap: round"/>
    <path d="M 273.503748 135.338391 
L 279.675866 136.38956 
L 275.13166 140.696553 
z
" clip-path="url(#p8aa90911a8)" style="fill: #777777; stroke: #777777; stroke-width: 1.35; stroke-linecap: round"/>
   </g>
   <g id="patch_10">
    <path d="M 319.86 167.30496 
C 339.3938 167.30496 358.130175 163.940251 371.942657 157.951872 
C 385.755139 151.963493 393.516 143.840367 393.516 135.37152 
C 393.516 126.902673 385.755139 118.779547 371.942657 112.791168 
C 358.130175 106.802789 339.3938 103.43808 319.86 103.43808 
C 300.3262 103.43808 281.589825 106.802789 267.777343 112.791168 
C 253.964861 118.779547 246.204 126.902673 246.204 135.37152 
C 246.204 143.840367 253.964861 151.963493 267.777343 157.951872 
C 281.589825 163.940251 300.3262 167.30496 319.86 167.30496 
z
" clip-path="url(#p8aa90911a8)" style="fill: #f4f4f4; stroke: #050505; stroke-width: 1.6; stroke-linejoin: miter"/>
   </g>
   <g id="patch_11">
    <path d="M 422.9784 164.64384 
L 529.7796 164.64384 
Q 540.828 164.64384 540.828 159.853824 
L 540.828 110.889216 
Q 540.828 106.0992 529.7796 106.0992 
L 422.9784 106.0992 
Q 411.93 106.0992 411.93 110.889216 
L 411.93 159.853824 
Q 411.93 164.64384 422.9784 164.64384 
z
" clip-path="url(#p8aa90911a8)" style="fill: #f4f4f4; stroke: #050505; stroke-width: 1.25; stroke-linejoin: miter"/>
   </g>
   <g id="patch_12">
    <path d="M 395.512798 135.37152 
Q 408.85941 135.37152 420.584873 135.37152 
" clip-path="url(#p8aa90911a8)" style="fill: none; stroke: #777777; stroke-width: 1.45; stroke-linecap: round"/>
    <path d="M 414.984873 132.57152 
L 420.584873 135.37152 
L 414.984873 138.17152 
z
" clip-path="url(#p8aa90911a8)" style="fill: #777777; stroke: #777777; stroke-width: 1.45; stroke-linecap: round"/>
   </g>
   <g id="patch_13">
    <path d="M 530.47588 121.535601 
Q 566.526401 111.283243 587.796123 82.414401 
" clip-path="url(#p8aa90911a8)" style="fill: none; stroke: #222222; stroke-width: 1.45; stroke-linecap: round"/>
    <path d="M 582.220184 85.262013 
L 587.796123 82.414401 
L 586.72865 88.58372 
z
" clip-path="url(#p8aa90911a8)" style="fill: #222222; stroke: #222222; stroke-width: 1.45; stroke-linecap: round"/>
   </g>
   <g id="patch_14">
    <path d="M 530.47588 149.207439 
Q 566.526401 159.459797 587.796123 188.328639 
" clip-path="url(#p8aa90911a8)" style="fill: none; stroke: #9a9a9a; stroke-width: 1.45; stroke-linecap: round"/>
    <path d="M 586.72865 182.15932 
L 587.796123 188.328639 
L 582.220184 185.481027 
z
" clip-path="url(#p8aa90911a8)" style="fill: #9a9a9a; stroke: #9a9a9a; stroke-width: 1.45; stroke-linecap: round"/>
   </g>
   <g id="text_1">
    <!-- $x_1$ -->
    <g style="fill: #050505" transform="translate(55.109 69.769587) scale(0.13 -0.13)">
     <defs>
      <path id="DejaVuSans-Oblique-78" d="M 3841 3500 
L 2234 1784 
L 3219 0 
L 2559 0 
L 1819 1388 
L 531 0 
L -166 0 
L 1556 1844 
L 641 3500 
L 1300 3500 
L 1972 2234 
L 3144 3500 
L 3841 3500 
z
" transform="scale(0.015625)"/>
      <path id="DejaVuSans-31" d="M 794 531 
L 1825 531 
L 1825 4091 
L 703 3866 
L 703 4441 
L 1819 4666 
L 2450 4666 
L 2450 531 
L 3481 531 
L 3481 0 
L 794 0 
L 794 531 
z
" transform="scale(0.015625)"/>
     </defs>
     <use xlink:href="#DejaVuSans-Oblique-78" transform="translate(0 0.3125)"/>
     <use xlink:href="#DejaVuSans-31" transform="translate(59.179688 -16.09375) scale(0.7)"/>
    </g>
   </g>
   <g id="text_2">
    <!-- $w_1$ -->
    <g style="fill: #333333" transform="translate(158.61 61.51029) scale(0.12 -0.12)">
     <defs>
      <path id="DejaVuSans-Oblique-77" d="M 544 3500 
L 1113 3500 
L 1259 684 
L 2566 3500 
L 3231 3500 
L 3425 684 
L 4666 3500 
L 5241 3500 
L 3641 0 
L 2969 0 
L 2797 2900 
L 1459 0 
L 781 0 
L 544 3500 
z
" transform="scale(0.015625)"/>
     </defs>
     <use xlink:href="#DejaVuSans-Oblique-77" transform="translate(0 0.3125)"/>
     <use xlink:href="#DejaVuSans-31" transform="translate(81.787109 -16.09375) scale(0.7)"/>
    </g>
   </g>
   <g id="text_3">
    <!-- $x_2$ -->
    <g style="fill: #050505" transform="translate(55.109 117.669747) scale(0.13 -0.13)">
     <defs>
      <path id="DejaVuSans-32" d="M 1228 531 
L 3431 531 
L 3431 0 
L 469 0 
L 469 531 
Q 828 903 1448 1529 
Q 2069 2156 2228 2338 
Q 2531 2678 2651 2914 
Q 2772 3150 2772 3378 
Q 2772 3750 2511 3984 
Q 2250 4219 1831 4219 
Q 1534 4219 1204 4116 
Q 875 4013 500 3803 
L 500 4441 
Q 881 4594 1212 4672 
Q 1544 4750 1819 4750 
Q 2544 4750 2975 4387 
Q 3406 4025 3406 3419 
Q 3406 3131 3298 2873 
Q 3191 2616 2906 2266 
Q 2828 2175 2409 1742 
Q 1991 1309 1228 531 
z
" transform="scale(0.015625)"/>
     </defs>
     <use xlink:href="#DejaVuSans-Oblique-78" transform="translate(0 0.3125)"/>
     <use xlink:href="#DejaVuSans-32" transform="translate(59.179688 -16.09375) scale(0.7)"/>
    </g>
   </g>
   <g id="text_4">
    <!-- $w_2$ -->
    <g style="fill: #333333" transform="translate(158.61 109.41045) scale(0.12 -0.12)">
     <use xlink:href="#DejaVuSans-Oblique-77" transform="translate(0 0.3125)"/>
     <use xlink:href="#DejaVuSans-32" transform="translate(81.787109 -16.09375) scale(0.7)"/>
    </g>
   </g>
   <g id="text_5">
    <!-- $x_3$ -->
    <g style="fill: #050505" transform="translate(55.109 165.569907) scale(0.13 -0.13)">
     <defs>
      <path id="DejaVuSans-33" d="M 2597 2516 
Q 3050 2419 3304 2112 
Q 3559 1806 3559 1356 
Q 3559 666 3084 287 
Q 2609 -91 1734 -91 
Q 1441 -91 1130 -33 
Q 819 25 488 141 
L 488 750 
Q 750 597 1062 519 
Q 1375 441 1716 441 
Q 2309 441 2620 675 
Q 2931 909 2931 1356 
Q 2931 1769 2642 2001 
Q 2353 2234 1838 2234 
L 1294 2234 
L 1294 2753 
L 1863 2753 
Q 2328 2753 2575 2939 
Q 2822 3125 2822 3475 
Q 2822 3834 2567 4026 
Q 2313 4219 1838 4219 
Q 1578 4219 1281 4162 
Q 984 4106 628 3988 
L 628 4550 
Q 988 4650 1302 4700 
Q 1616 4750 1894 4750 
Q 2613 4750 3031 4423 
Q 3450 4097 3450 3541 
Q 3450 3153 3228 2886 
Q 3006 2619 2597 2516 
z
" transform="scale(0.015625)"/>
     </defs>
     <use xlink:href="#DejaVuSans-Oblique-78" transform="translate(0 0.3125)"/>
     <use xlink:href="#DejaVuSans-33" transform="translate(59.179688 -16.09375) scale(0.7)"/>
    </g>
   </g>
   <g id="text_6">
    <!-- $w_3$ -->
    <g style="fill: #333333" transform="translate(158.61 157.31061) scale(0.12 -0.12)">
     <use xlink:href="#DejaVuSans-Oblique-77" transform="translate(0 0.3125)"/>
     <use xlink:href="#DejaVuSans-33" transform="translate(81.787109 -16.09375) scale(0.7)"/>
    </g>
   </g>
   <g id="text_7">
    <!-- $x_{4096}$ -->
    <g style="fill: #050505" transform="translate(46.399 213.470067) scale(0.13 -0.13)">
     <defs>
      <path id="DejaVuSans-34" d="M 2419 4116 
L 825 1625 
L 2419 1625 
L 2419 4116 
z
M 2253 4666 
L 3047 4666 
L 3047 1625 
L 3713 1625 
L 3713 1100 
L 3047 1100 
L 3047 0 
L 2419 0 
L 2419 1100 
L 313 1100 
L 313 1709 
L 2253 4666 
z
" transform="scale(0.015625)"/>
      <path id="DejaVuSans-30" d="M 2034 4250 
Q 1547 4250 1301 3770 
Q 1056 3291 1056 2328 
Q 1056 1369 1301 889 
Q 1547 409 2034 409 
Q 2525 409 2770 889 
Q 3016 1369 3016 2328 
Q 3016 3291 2770 3770 
Q 2525 4250 2034 4250 
z
M 2034 4750 
Q 2819 4750 3233 4129 
Q 3647 3509 3647 2328 
Q 3647 1150 3233 529 
Q 2819 -91 2034 -91 
Q 1250 -91 836 529 
Q 422 1150 422 2328 
Q 422 3509 836 4129 
Q 1250 4750 2034 4750 
z
" transform="scale(0.015625)"/>
      <path id="DejaVuSans-39" d="M 703 97 
L 703 672 
Q 941 559 1184 500 
Q 1428 441 1663 441 
Q 2288 441 2617 861 
Q 2947 1281 2994 2138 
Q 2813 1869 2534 1725 
Q 2256 1581 1919 1581 
Q 1219 1581 811 2004 
Q 403 2428 403 3163 
Q 403 3881 828 4315 
Q 1253 4750 1959 4750 
Q 2769 4750 3195 4129 
Q 3622 3509 3622 2328 
Q 3622 1225 3098 567 
Q 2575 -91 1691 -91 
Q 1453 -91 1209 -44 
Q 966 3 703 97 
z
M 1959 2075 
Q 2384 2075 2632 2365 
Q 2881 2656 2881 3163 
Q 2881 3666 2632 3958 
Q 2384 4250 1959 4250 
Q 1534 4250 1286 3958 
Q 1038 3666 1038 3163 
Q 1038 2656 1286 2365 
Q 1534 2075 1959 2075 
z
" transform="scale(0.015625)"/>
      <path id="DejaVuSans-36" d="M 2113 2584 
Q 1688 2584 1439 2293 
Q 1191 2003 1191 1497 
Q 1191 994 1439 701 
Q 1688 409 2113 409 
Q 2538 409 2786 701 
Q 3034 994 3034 1497 
Q 3034 2003 2786 2293 
Q 2538 2584 2113 2584 
z
M 3366 4563 
L 3366 3988 
Q 3128 4100 2886 4159 
Q 2644 4219 2406 4219 
Q 1781 4219 1451 3797 
Q 1122 3375 1075 2522 
Q 1259 2794 1537 2939 
Q 1816 3084 2150 3084 
Q 2853 3084 3261 2657 
Q 3669 2231 3669 1497 
Q 3669 778 3244 343 
Q 2819 -91 2113 -91 
Q 1303 -91 875 529 
Q 447 1150 447 2328 
Q 447 3434 972 4092 
Q 1497 4750 2381 4750 
Q 2619 4750 2861 4703 
Q 3103 4656 3366 4563 
z
" transform="scale(0.015625)"/>
     </defs>
     <use xlink:href="#DejaVuSans-Oblique-78" transform="translate(0 0.3125)"/>
     <use xlink:href="#DejaVuSans-34" transform="translate(59.179688 -16.09375) scale(0.7)"/>
     <use xlink:href="#DejaVuSans-30" transform="translate(103.71582 -16.09375) scale(0.7)"/>
     <use xlink:href="#DejaVuSans-39" transform="translate(148.251953 -16.09375) scale(0.7)"/>
     <use xlink:href="#DejaVuSans-36" transform="translate(192.788086 -16.09375) scale(0.7)"/>
    </g>
   </g>
   <g id="text_8">
    <!-- $w_{4096}$ -->
    <g style="fill: #333333" transform="translate(150.63 205.21077) scale(0.12 -0.12)">
     <use xlink:href="#DejaVuSans-Oblique-77" transform="translate(0 0.3125)"/>
     <use xlink:href="#DejaVuSans-34" transform="translate(81.787109 -16.09375) scale(0.7)"/>
     <use xlink:href="#DejaVuSans-30" transform="translate(126.323242 -16.09375) scale(0.7)"/>
     <use xlink:href="#DejaVuSans-39" transform="translate(170.859375 -16.09375) scale(0.7)"/>
     <use xlink:href="#DejaVuSans-36" transform="translate(215.395508 -16.09375) scale(0.7)"/>
    </g>
   </g>
   <g id="text_9">
    <!-- 4096 pixel values -->
    <g style="fill: #333333" transform="translate(18.066344 257.78304) scale(0.1 -0.1)">
     <defs>
      <path id="DejaVuSans-20" transform="scale(0.015625)"/>
      <path id="DejaVuSans-70" d="M 1159 525 
L 1159 -1331 
L 581 -1331 
L 581 3500 
L 1159 3500 
L 1159 2969 
Q 1341 3281 1617 3432 
Q 1894 3584 2278 3584 
Q 2916 3584 3314 3078 
Q 3713 2572 3713 1747 
Q 3713 922 3314 415 
Q 2916 -91 2278 -91 
Q 1894 -91 1617 61 
Q 1341 213 1159 525 
z
M 3116 1747 
Q 3116 2381 2855 2742 
Q 2594 3103 2138 3103 
Q 1681 3103 1420 2742 
Q 1159 2381 1159 1747 
Q 1159 1113 1420 752 
Q 1681 391 2138 391 
Q 2594 391 2855 752 
Q 3116 1113 3116 1747 
z
" transform="scale(0.015625)"/>
      <path id="DejaVuSans-69" d="M 603 3500 
L 1178 3500 
L 1178 0 
L 603 0 
L 603 3500 
z
M 603 4863 
L 1178 4863 
L 1178 4134 
L 603 4134 
L 603 4863 
z
" transform="scale(0.015625)"/>
      <path id="DejaVuSans-78" d="M 3513 3500 
L 2247 1797 
L 3578 0 
L 2900 0 
L 1881 1375 
L 863 0 
L 184 0 
L 1544 1831 
L 300 3500 
L 978 3500 
L 1906 2253 
L 2834 3500 
L 3513 3500 
z
" transform="scale(0.015625)"/>
      <path id="DejaVuSans-65" d="M 3597 1894 
L 3597 1613 
L 953 1613 
Q 991 1019 1311 708 
Q 1631 397 2203 397 
Q 2534 397 2845 478 
Q 3156 559 3463 722 
L 3463 178 
Q 3153 47 2828 -22 
Q 2503 -91 2169 -91 
Q 1331 -91 842 396 
Q 353 884 353 1716 
Q 353 2575 817 3079 
Q 1281 3584 2069 3584 
Q 2775 3584 3186 3129 
Q 3597 2675 3597 1894 
z
M 3022 2063 
Q 3016 2534 2758 2815 
Q 2500 3097 2075 3097 
Q 1594 3097 1305 2825 
Q 1016 2553 972 2059 
L 3022 2063 
z
" transform="scale(0.015625)"/>
      <path id="DejaVuSans-6c" d="M 603 4863 
L 1178 4863 
L 1178 0 
L 603 0 
L 603 4863 
z
" transform="scale(0.015625)"/>
      <path id="DejaVuSans-76" d="M 191 3500 
L 800 3500 
L 1894 563 
L 2988 3500 
L 3597 3500 
L 2284 0 
L 1503 0 
L 191 3500 
z
" transform="scale(0.015625)"/>
      <path id="DejaVuSans-61" d="M 2194 1759 
Q 1497 1759 1228 1600 
Q 959 1441 959 1056 
Q 959 750 1161 570 
Q 1363 391 1709 391 
Q 2188 391 2477 730 
Q 2766 1069 2766 1631 
L 2766 1759 
L 2194 1759 
z
M 3341 1997 
L 3341 0 
L 2766 0 
L 2766 531 
Q 2569 213 2275 61 
Q 1981 -91 1556 -91 
Q 1019 -91 701 211 
Q 384 513 384 1019 
Q 384 1609 779 1909 
Q 1175 2209 1959 2209 
L 2766 2209 
L 2766 2266 
Q 2766 2663 2505 2880 
Q 2244 3097 1772 3097 
Q 1472 3097 1187 3025 
Q 903 2953 641 2809 
L 641 3341 
Q 956 3463 1253 3523 
Q 1550 3584 1831 3584 
Q 2591 3584 2966 3190 
Q 3341 2797 3341 1997 
z
" transform="scale(0.015625)"/>
      <path id="DejaVuSans-75" d="M 544 1381 
L 544 3500 
L 1119 3500 
L 1119 1403 
Q 1119 906 1312 657 
Q 1506 409 1894 409 
Q 2359 409 2629 706 
Q 2900 1003 2900 1516 
L 2900 3500 
L 3475 3500 
L 3475 0 
L 2900 0 
L 2900 538 
Q 2691 219 2414 64 
Q 2138 -91 1772 -91 
Q 1169 -91 856 284 
Q 544 659 544 1381 
z
M 1991 3584 
L 1991 3584 
z
" transform="scale(0.015625)"/>
      <path id="DejaVuSans-73" d="M 2834 3397 
L 2834 2853 
Q 2591 2978 2328 3040 
Q 2066 3103 1784 3103 
Q 1356 3103 1142 2972 
Q 928 2841 928 2578 
Q 928 2378 1081 2264 
Q 1234 2150 1697 2047 
L 1894 2003 
Q 2506 1872 2764 1633 
Q 3022 1394 3022 966 
Q 3022 478 2636 193 
Q 2250 -91 1575 -91 
Q 1294 -91 989 -36 
Q 684 19 347 128 
L 347 722 
Q 666 556 975 473 
Q 1284 391 1588 391 
Q 1994 391 2212 530 
Q 2431 669 2431 922 
Q 2431 1156 2273 1281 
Q 2116 1406 1581 1522 
L 1381 1569 
Q 847 1681 609 1914 
Q 372 2147 372 2553 
Q 372 3047 722 3315 
Q 1072 3584 1716 3584 
Q 2034 3584 2315 3537 
Q 2597 3491 2834 3397 
z
" transform="scale(0.015625)"/>
     </defs>
     <use xlink:href="#DejaVuSans-34"/>
     <use xlink:href="#DejaVuSans-30" transform="translate(63.623047 0)"/>
     <use xlink:href="#DejaVuSans-39" transform="translate(127.246094 0)"/>
     <use xlink:href="#DejaVuSans-36" transform="translate(190.869141 0)"/>
     <use xlink:href="#DejaVuSans-20" transform="translate(254.492188 0)"/>
     <use xlink:href="#DejaVuSans-70" transform="translate(286.279297 0)"/>
     <use xlink:href="#DejaVuSans-69" transform="translate(349.755859 0)"/>
     <use xlink:href="#DejaVuSans-78" transform="translate(377.539062 0)"/>
     <use xlink:href="#DejaVuSans-65" transform="translate(433.59375 0)"/>
     <use xlink:href="#DejaVuSans-6c" transform="translate(495.117188 0)"/>
     <use xlink:href="#DejaVuSans-20" transform="translate(522.900391 0)"/>
     <use xlink:href="#DejaVuSans-76" transform="translate(554.6875 0)"/>
     <use xlink:href="#DejaVuSans-61" transform="translate(613.867188 0)"/>
     <use xlink:href="#DejaVuSans-6c" transform="translate(675.146484 0)"/>
     <use xlink:href="#DejaVuSans-75" transform="translate(702.929688 0)"/>
     <use xlink:href="#DejaVuSans-65" transform="translate(766.308594 0)"/>
     <use xlink:href="#DejaVuSans-73" transform="translate(827.832031 0)"/>
    </g>
   </g>
   <g id="text_10">
    <!-- $\sum w_jx_j + b$ -->
    <g style="fill: #050505" transform="translate(284.835 135.37428) scale(0.15 -0.15)">
     <defs>
      <path id="DejaVuSansDisplay-2211" d="M 244 6509 
L 5803 6509 
L 5803 5656 
L 1566 5656 
L 4534 2488 
L 1469 -888 
L 5919 -888 
L 5919 -1738 
L 109 -1738 
L 109 -1078 
L 3316 2463 
L 244 5728 
L 244 6509 
z
" transform="scale(0.015625)"/>
      <path id="DejaVuSans-Oblique-6a" d="M 928 3500 
L 1503 3500 
L 813 -63 
L 809 -78 
Q 694 -675 544 -897 
Q 403 -1106 132 -1218 
Q -138 -1331 -506 -1331 
L -722 -1331 
L -628 -844 
L -481 -844 
Q -144 -844 -1 -703 
Q 141 -563 238 -63 
L 928 3500 
z
M 1197 4863 
L 1772 4863 
L 1631 4134 
L 1056 4134 
L 1197 4863 
z
" transform="scale(0.015625)"/>
      <path id="DejaVuSans-2b" d="M 2944 4013 
L 2944 2272 
L 4684 2272 
L 4684 1741 
L 2944 1741 
L 2944 0 
L 2419 0 
L 2419 1741 
L 678 1741 
L 678 2272 
L 2419 2272 
L 2419 4013 
L 2944 4013 
z
" transform="scale(0.015625)"/>
      <path id="DejaVuSans-Oblique-62" d="M 3169 2138 
Q 3169 2591 2961 2847 
Q 2753 3103 2388 3103 
Q 2122 3103 1889 2973 
Q 1656 2844 1484 2597 
Q 1303 2338 1198 1995 
Q 1094 1653 1094 1313 
Q 1094 881 1298 636 
Q 1503 391 1863 391 
Q 2134 391 2365 517 
Q 2597 644 2772 891 
Q 2950 1147 3059 1487 
Q 3169 1828 3169 2138 
z
M 1381 2969 
Q 1594 3256 1914 3420 
Q 2234 3584 2584 3584 
Q 3122 3584 3439 3221 
Q 3756 2859 3756 2241 
Q 3756 1734 3570 1259 
Q 3384 784 3041 416 
Q 2816 172 2522 40 
Q 2228 -91 1906 -91 
Q 1566 -91 1316 65 
Q 1066 222 909 531 
L 806 0 
L 231 0 
L 1178 4863 
L 1753 4863 
L 1381 2969 
z
" transform="scale(0.015625)"/>
     </defs>
     <use xlink:href="#DejaVuSansDisplay-2211" transform="translate(0 0.296875)"/>
     <use xlink:href="#DejaVuSans-Oblique-77" transform="translate(95.263672 0.296875)"/>
     <use xlink:href="#DejaVuSans-Oblique-6a" transform="translate(177.050781 -16.109375) scale(0.7)"/>
     <use xlink:href="#DejaVuSans-Oblique-78" transform="translate(199.233398 0.296875)"/>
     <use xlink:href="#DejaVuSans-Oblique-6a" transform="translate(258.413086 -16.109375) scale(0.7)"/>
     <use xlink:href="#DejaVuSans-2b" transform="translate(300.078125 0.296875)"/>
     <use xlink:href="#DejaVuSans-Oblique-62" transform="translate(403.349609 0.296875)"/>
    </g>
   </g>
   <g id="text_11">
    <!-- score -->
    <g style="fill: #333333" transform="translate(306.427188 154.097615) scale(0.1 -0.1)">
     <defs>
      <path id="DejaVuSans-63" d="M 3122 3366 
L 3122 2828 
Q 2878 2963 2633 3030 
Q 2388 3097 2138 3097 
Q 1578 3097 1268 2742 
Q 959 2388 959 1747 
Q 959 1106 1268 751 
Q 1578 397 2138 397 
Q 2388 397 2633 464 
Q 2878 531 3122 666 
L 3122 134 
Q 2881 22 2623 -34 
Q 2366 -91 2075 -91 
Q 1284 -91 818 406 
Q 353 903 353 1747 
Q 353 2603 823 3093 
Q 1294 3584 2113 3584 
Q 2378 3584 2631 3529 
Q 2884 3475 3122 3366 
z
" transform="scale(0.015625)"/>
      <path id="DejaVuSans-6f" d="M 1959 3097 
Q 1497 3097 1228 2736 
Q 959 2375 959 1747 
Q 959 1119 1226 758 
Q 1494 397 1959 397 
Q 2419 397 2687 759 
Q 2956 1122 2956 1747 
Q 2956 2369 2687 2733 
Q 2419 3097 1959 3097 
z
M 1959 3584 
Q 2709 3584 3137 3096 
Q 3566 2609 3566 1747 
Q 3566 888 3137 398 
Q 2709 -91 1959 -91 
Q 1206 -91 779 398 
Q 353 888 353 1747 
Q 353 2609 779 3096 
Q 1206 3584 1959 3584 
z
" transform="scale(0.015625)"/>
      <path id="DejaVuSans-72" d="M 2631 2963 
Q 2534 3019 2420 3045 
Q 2306 3072 2169 3072 
Q 1681 3072 1420 2755 
Q 1159 2438 1159 1844 
L 1159 0 
L 581 0 
L 581 3500 
L 1159 3500 
L 1159 2956 
Q 1341 3275 1631 3429 
Q 1922 3584 2338 3584 
Q 2397 3584 2469 3576 
Q 2541 3569 2628 3553 
L 2631 2963 
z
" transform="scale(0.015625)"/>
     </defs>
     <use xlink:href="#DejaVuSans-73"/>
     <use xlink:href="#DejaVuSans-63" transform="translate(52.099609 0)"/>
     <use xlink:href="#DejaVuSans-6f" transform="translate(107.080078 0)"/>
     <use xlink:href="#DejaVuSans-72" transform="translate(168.261719 0)"/>
     <use xlink:href="#DejaVuSans-65" transform="translate(207.125 0)"/>
    </g>
   </g>
   <g id="text_12">
    <!-- sign check -->
    <g style="fill: #050505" transform="translate(444.501188 131.964082) scale(0.12 -0.12)">
     <defs>
      <path id="DejaVuSans-67" d="M 2906 1791 
Q 2906 2416 2648 2759 
Q 2391 3103 1925 3103 
Q 1463 3103 1205 2759 
Q 947 2416 947 1791 
Q 947 1169 1205 825 
Q 1463 481 1925 481 
Q 2391 481 2648 825 
Q 2906 1169 2906 1791 
z
M 3481 434 
Q 3481 -459 3084 -895 
Q 2688 -1331 1869 -1331 
Q 1566 -1331 1297 -1286 
Q 1028 -1241 775 -1147 
L 775 -588 
Q 1028 -725 1275 -790 
Q 1522 -856 1778 -856 
Q 2344 -856 2625 -561 
Q 2906 -266 2906 331 
L 2906 616 
Q 2728 306 2450 153 
Q 2172 0 1784 0 
Q 1141 0 747 490 
Q 353 981 353 1791 
Q 353 2603 747 3093 
Q 1141 3584 1784 3584 
Q 2172 3584 2450 3431 
Q 2728 3278 2906 2969 
L 2906 3500 
L 3481 3500 
L 3481 434 
z
" transform="scale(0.015625)"/>
      <path id="DejaVuSans-6e" d="M 3513 2113 
L 3513 0 
L 2938 0 
L 2938 2094 
Q 2938 2591 2744 2837 
Q 2550 3084 2163 3084 
Q 1697 3084 1428 2787 
Q 1159 2491 1159 1978 
L 1159 0 
L 581 0 
L 581 3500 
L 1159 3500 
L 1159 2956 
Q 1366 3272 1645 3428 
Q 1925 3584 2291 3584 
Q 2894 3584 3203 3211 
Q 3513 2838 3513 2113 
z
" transform="scale(0.015625)"/>
      <path id="DejaVuSans-68" d="M 3513 2113 
L 3513 0 
L 2938 0 
L 2938 2094 
Q 2938 2591 2744 2837 
Q 2550 3084 2163 3084 
Q 1697 3084 1428 2787 
Q 1159 2491 1159 1978 
L 1159 0 
L 581 0 
L 581 4863 
L 1159 4863 
L 1159 2956 
Q 1366 3272 1645 3428 
Q 1925 3584 2291 3584 
Q 2894 3584 3203 3211 
Q 3513 2838 3513 2113 
z
" transform="scale(0.015625)"/>
      <path id="DejaVuSans-6b" d="M 581 4863 
L 1159 4863 
L 1159 1991 
L 2875 3500 
L 3609 3500 
L 1753 1863 
L 3688 0 
L 2938 0 
L 1159 1709 
L 1159 0 
L 581 0 
L 581 4863 
z
" transform="scale(0.015625)"/>
     </defs>
     <use xlink:href="#DejaVuSans-73"/>
     <use xlink:href="#DejaVuSans-69" transform="translate(52.099609 0)"/>
     <use xlink:href="#DejaVuSans-67" transform="translate(79.882812 0)"/>
     <use xlink:href="#DejaVuSans-6e" transform="translate(143.359375 0)"/>
     <use xlink:href="#DejaVuSans-20" transform="translate(206.738281 0)"/>
     <use xlink:href="#DejaVuSans-63" transform="translate(238.525391 0)"/>
     <use xlink:href="#DejaVuSans-68" transform="translate(293.505859 0)"/>
     <use xlink:href="#DejaVuSans-65" transform="translate(356.884766 0)"/>
     <use xlink:href="#DejaVuSans-63" transform="translate(418.408203 0)"/>
     <use xlink:href="#DejaVuSans-6b" transform="translate(473.388672 0)"/>
    </g>
    <!-- $s \geq 0$? -->
    <g style="fill: #050505" transform="translate(458.859 145.401457) scale(0.12 -0.12)">
     <defs>
      <path id="DejaVuSans-Oblique-73" d="M 3200 3397 
L 3091 2853 
Q 2863 2978 2609 3040 
Q 2356 3103 2088 3103 
Q 1634 3103 1373 2948 
Q 1113 2794 1113 2528 
Q 1113 2219 1719 2053 
Q 1766 2041 1788 2034 
L 1972 1978 
Q 2547 1819 2739 1644 
Q 2931 1469 2931 1166 
Q 2931 609 2489 259 
Q 2047 -91 1331 -91 
Q 1053 -91 747 -37 
Q 441 16 72 128 
L 184 722 
Q 500 559 806 475 
Q 1113 391 1394 391 
Q 1816 391 2080 572 
Q 2344 753 2344 1031 
Q 2344 1331 1650 1516 
L 1591 1531 
L 1394 1581 
Q 956 1697 753 1886 
Q 550 2075 550 2369 
Q 550 2928 970 3256 
Q 1391 3584 2113 3584 
Q 2397 3584 2667 3537 
Q 2938 3491 3200 3397 
z
" transform="scale(0.015625)"/>
      <path id="DejaVuSans-2265" d="M 678 3175 
L 678 3725 
L 4684 2578 
L 4684 2047 
L 678 897 
L 678 1453 
L 3681 2309 
L 678 3175 
z
M 4684 531 
L 4684 0 
L 678 0 
L 678 531 
L 4684 531 
z
" transform="scale(0.015625)"/>
      <path id="DejaVuSans-3f" d="M 1222 794 
L 1856 794 
L 1856 0 
L 1222 0 
L 1222 794 
z
M 1838 1253 
L 1241 1253 
L 1241 1734 
Q 1241 2050 1328 2253 
Q 1416 2456 1697 2725 
L 1978 3003 
Q 2156 3169 2236 3316 
Q 2316 3463 2316 3616 
Q 2316 3894 2111 4066 
Q 1906 4238 1569 4238 
Q 1322 4238 1042 4128 
Q 763 4019 459 3809 
L 459 4397 
Q 753 4575 1054 4662 
Q 1356 4750 1678 4750 
Q 2253 4750 2601 4447 
Q 2950 4144 2950 3647 
Q 2950 3409 2837 3195 
Q 2725 2981 2444 2713 
L 2169 2444 
Q 2022 2297 1961 2214 
Q 1900 2131 1875 2053 
Q 1856 1988 1847 1894 
Q 1838 1800 1838 1638 
L 1838 1253 
z
" transform="scale(0.015625)"/>
     </defs>
     <use xlink:href="#DejaVuSans-Oblique-73" transform="translate(0 0.78125)"/>
     <use xlink:href="#DejaVuSans-2265" transform="translate(71.582031 0.78125)"/>
     <use xlink:href="#DejaVuSans-30" transform="translate(174.853516 0.78125)"/>
     <use xlink:href="#DejaVuSans-3f" transform="translate(238.476562 0.78125)"/>
    </g>
   </g>
   <g id="text_13">
    <!-- predict $+1$ -->
    <g style="fill: #050505" transform="translate(596.07 77.46576) scale(0.12 -0.12)">
     <defs>
      <path id="DejaVuSans-64" d="M 2906 2969 
L 2906 4863 
L 3481 4863 
L 3481 0 
L 2906 0 
L 2906 525 
Q 2725 213 2448 61 
Q 2172 -91 1784 -91 
Q 1150 -91 751 415 
Q 353 922 353 1747 
Q 353 2572 751 3078 
Q 1150 3584 1784 3584 
Q 2172 3584 2448 3432 
Q 2725 3281 2906 2969 
z
M 947 1747 
Q 947 1113 1208 752 
Q 1469 391 1925 391 
Q 2381 391 2643 752 
Q 2906 1113 2906 1747 
Q 2906 2381 2643 2742 
Q 2381 3103 1925 3103 
Q 1469 3103 1208 2742 
Q 947 2381 947 1747 
z
" transform="scale(0.015625)"/>
      <path id="DejaVuSans-74" d="M 1172 4494 
L 1172 3500 
L 2356 3500 
L 2356 3053 
L 1172 3053 
L 1172 1153 
Q 1172 725 1289 603 
Q 1406 481 1766 481 
L 2356 481 
L 2356 0 
L 1766 0 
Q 1100 0 847 248 
Q 594 497 594 1153 
L 594 3053 
L 172 3053 
L 172 3500 
L 594 3500 
L 594 4494 
L 1172 4494 
z
" transform="scale(0.015625)"/>
     </defs>
     <use xlink:href="#DejaVuSans-70" transform="translate(0 0.015625)"/>
     <use xlink:href="#DejaVuSans-72" transform="translate(63.476562 0.015625)"/>
     <use xlink:href="#DejaVuSans-65" transform="translate(104.589844 0.015625)"/>
     <use xlink:href="#DejaVuSans-64" transform="translate(166.113281 0.015625)"/>
     <use xlink:href="#DejaVuSans-69" transform="translate(229.589844 0.015625)"/>
     <use xlink:href="#DejaVuSans-63" transform="translate(257.373047 0.015625)"/>
     <use xlink:href="#DejaVuSans-74" transform="translate(312.353516 0.015625)"/>
     <use xlink:href="#DejaVuSans-20" transform="translate(351.5625 0.015625)"/>
     <use xlink:href="#DejaVuSans-2b" transform="translate(383.349609 0.015625)"/>
     <use xlink:href="#DejaVuSans-31" transform="translate(467.138672 0.015625)"/>
    </g>
   </g>
   <g id="text_14">
    <!-- predict $-1$ -->
    <g style="fill: #333333" transform="translate(596.07 199.87728) scale(0.12 -0.12)">
     <defs>
      <path id="DejaVuSans-2212" d="M 678 2272 
L 4684 2272 
L 4684 1741 
L 678 1741 
L 678 2272 
z
" transform="scale(0.015625)"/>
     </defs>
     <use xlink:href="#DejaVuSans-70" transform="translate(0 0.015625)"/>
     <use xlink:href="#DejaVuSans-72" transform="translate(63.476562 0.015625)"/>
     <use xlink:href="#DejaVuSans-65" transform="translate(104.589844 0.015625)"/>
     <use xlink:href="#DejaVuSans-64" transform="translate(166.113281 0.015625)"/>
     <use xlink:href="#DejaVuSans-69" transform="translate(229.589844 0.015625)"/>
     <use xlink:href="#DejaVuSans-63" transform="translate(257.373047 0.015625)"/>
     <use xlink:href="#DejaVuSans-74" transform="translate(312.353516 0.015625)"/>
     <use xlink:href="#DejaVuSans-20" transform="translate(351.5625 0.015625)"/>
     <use xlink:href="#DejaVuSans-2212" transform="translate(383.349609 0.015625)"/>
     <use xlink:href="#DejaVuSans-31" transform="translate(467.138672 0.015625)"/>
    </g>
   </g>
  </g>
 </g>
 <defs>
  <clipPath id="p8aa90911a8">
   <rect x="12.96" y="12.96" width="613.8" height="266.112"/>
  </clipPath>
 </defs>
</svg>
