<?xml version="1.0" encoding="utf-8" standalone="no"?>
<!DOCTYPE svg PUBLIC "-//W3C//DTD SVG 1.1//EN"
  "http://www.w3.org/Graphics/SVG/1.1/DTD/svg11.dtd">
<svg xmlns:xlink="http://www.w3.org/1999/xlink" width="436.920313pt" height="367.689563pt" viewBox="0 0 436.920313 367.689563" xmlns="http://www.w3.org/2000/svg" version="1.1">
 <metadata>
  <rdf:RDF xmlns:dc="http://purl.org/dc/elements/1.1/" xmlns:cc="http://creativecommons.org/ns#" xmlns:rdf="http://www.w3.org/1999/02/22-rdf-syntax-ns#">
   <cc:Work>
    <dc:type rdf:resource="http://purl.org/dc/dcmitype/StillImage"/>
    <dc:date>2026-05-27T22:06:24.593016</dc:date>
    <dc:format>image/svg+xml</dc:format>
    <dc:creator>
     <cc:Agent>
      <dc:title>Matplotlib v3.10.7, https://matplotlib.org/</dc:title>
     </cc:Agent>
    </dc:creator>
   </cc:Work>
  </rdf:RDF>
 </metadata>
 <defs>
  <style type="text/css">*{stroke-linejoin: round; stroke-linecap: butt}</style>
 </defs>
 <g id="figure_1">
  <g id="patch_1">
   <path d="M 0 367.689563 
L 436.920313 367.689563 
L 436.920313 0 
L 0 0 
z
" style="fill: #1a1a1a"/>
  </g>
  <g id="axes_1">
   <g id="patch_2">
    <path d="M 58.88875 323.4055 
L 416.00875 323.4055 
L 416.00875 35.1175 
L 58.88875 35.1175 
z
" style="fill: #1a1a1a"/>
   </g>
   <g id="matplotlib.axis_1">
    <g id="xtick_1">
     <g id="line2d_1">
      <path d="M 58.88875 323.4055 
L 58.88875 35.1175 
" clip-path="url(#pb798feda63)" style="fill: none; stroke: #2f2f2f; stroke-opacity: 0.65; stroke-width: 0.6; stroke-linecap: square"/>
     </g>
     <g id="line2d_2">
      <defs>
       <path id="m565ca49fe3" d="M 0 0 
L 0 3.5 
" style="stroke: #bdbdbd; stroke-width: 0.8"/>
      </defs>
      <g>
       <use xlink:href="#m565ca49fe3" x="58.88875" y="323.4055" style="fill: #bdbdbd; stroke: #bdbdbd; stroke-width: 0.8"/>
      </g>
     </g>
     <g id="text_1">
      <!-- −0.2 -->
      <g style="fill: #bdbdbd" transform="translate(46.747344 338.003938) scale(0.1 -0.1)">
       <defs>
        <path id="DejaVuSans-2212" d="M 678 2272 
L 4684 2272 
L 4684 1741 
L 678 1741 
L 678 2272 
z
" transform="scale(0.015625)"/>
        <path id="DejaVuSans-30" d="M 2034 4250 
Q 1547 4250 1301 3770 
Q 1056 3291 1056 2328 
Q 1056 1369 1301 889 
Q 1547 409 2034 409 
Q 2525 409 2770 889 
Q 3016 1369 3016 2328 
Q 3016 3291 2770 3770 
Q 2525 4250 2034 4250 
z
M 2034 4750 
Q 2819 4750 3233 4129 
Q 3647 3509 3647 2328 
Q 3647 1150 3233 529 
Q 2819 -91 2034 -91 
Q 1250 -91 836 529 
Q 422 1150 422 2328 
Q 422 3509 836 4129 
Q 1250 4750 2034 4750 
z
" transform="scale(0.015625)"/>
        <path id="DejaVuSans-2e" d="M 684 794 
L 1344 794 
L 1344 0 
L 684 0 
L 684 794 
z
" transform="scale(0.015625)"/>
        <path id="DejaVuSans-32" d="M 1228 531 
L 3431 531 
L 3431 0 
L 469 0 
L 469 531 
Q 828 903 1448 1529 
Q 2069 2156 2228 2338 
Q 2531 2678 2651 2914 
Q 2772 3150 2772 3378 
Q 2772 3750 2511 3984 
Q 2250 4219 1831 4219 
Q 1534 4219 1204 4116 
Q 875 4013 500 3803 
L 500 4441 
Q 881 4594 1212 4672 
Q 1544 4750 1819 4750 
Q 2544 4750 2975 4387 
Q 3406 4025 3406 3419 
Q 3406 3131 3298 2873 
Q 3191 2616 2906 2266 
Q 2828 2175 2409 1742 
Q 1991 1309 1228 531 
z
" transform="scale(0.015625)"/>
       </defs>
       <use xlink:href="#DejaVuSans-2212"/>
       <use xlink:href="#DejaVuSans-30" transform="translate(83.789062 0)"/>
       <use xlink:href="#DejaVuSans-2e" transform="translate(147.412109 0)"/>
       <use xlink:href="#DejaVuSans-32" transform="translate(179.199219 0)"/>
      </g>
     </g>
    </g>
    <g id="xtick_2">
     <g id="line2d_3">
      <path d="M 109.905893 323.4055 
L 109.905893 35.1175 
" clip-path="url(#pb798feda63)" style="fill: none; stroke: #2f2f2f; stroke-opacity: 0.65; stroke-width: 0.6; stroke-linecap: square"/>
     </g>
     <g id="line2d_4">
      <g>
       <use xlink:href="#m565ca49fe3" x="109.905893" y="323.4055" style="fill: #bdbdbd; stroke: #bdbdbd; stroke-width: 0.8"/>
      </g>
     </g>
     <g id="text_2">
      <!-- 0.0 -->
      <g style="fill: #bdbdbd" transform="translate(101.95433 338.003938) scale(0.1 -0.1)">
       <use xlink:href="#DejaVuSans-30"/>
       <use xlink:href="#DejaVuSans-2e" transform="translate(63.623047 0)"/>
       <use xlink:href="#DejaVuSans-30" transform="translate(95.410156 0)"/>
      </g>
     </g>
    </g>
    <g id="xtick_3">
     <g id="line2d_5">
      <path d="M 160.923036 323.4055 
L 160.923036 35.1175 
" clip-path="url(#pb798feda63)" style="fill: none; stroke: #2f2f2f; stroke-opacity: 0.65; stroke-width: 0.6; stroke-linecap: square"/>
     </g>
     <g id="line2d_6">
      <g>
       <use xlink:href="#m565ca49fe3" x="160.923036" y="323.4055" style="fill: #bdbdbd; stroke: #bdbdbd; stroke-width: 0.8"/>
      </g>
     </g>
     <g id="text_3">
      <!-- 0.2 -->
      <g style="fill: #bdbdbd" transform="translate(152.971473 338.003938) scale(0.1 -0.1)">
       <use xlink:href="#DejaVuSans-30"/>
       <use xlink:href="#DejaVuSans-2e" transform="translate(63.623047 0)"/>
       <use xlink:href="#DejaVuSans-32" transform="translate(95.410156 0)"/>
      </g>
     </g>
    </g>
    <g id="xtick_4">
     <g id="line2d_7">
      <path d="M 211.940179 323.4055 
L 211.940179 35.1175 
" clip-path="url(#pb798feda63)" style="fill: none; stroke: #2f2f2f; stroke-opacity: 0.65; stroke-width: 0.6; stroke-linecap: square"/>
     </g>
     <g id="line2d_8">
      <g>
       <use xlink:href="#m565ca49fe3" x="211.940179" y="323.4055" style="fill: #bdbdbd; stroke: #bdbdbd; stroke-width: 0.8"/>
      </g>
     </g>
     <g id="text_4">
      <!-- 0.4 -->
      <g style="fill: #bdbdbd" transform="translate(203.988616 338.003938) scale(0.1 -0.1)">
       <defs>
        <path id="DejaVuSans-34" d="M 2419 4116 
L 825 1625 
L 2419 1625 
L 2419 4116 
z
M 2253 4666 
L 3047 4666 
L 3047 1625 
L 3713 1625 
L 3713 1100 
L 3047 1100 
L 3047 0 
L 2419 0 
L 2419 1100 
L 313 1100 
L 313 1709 
L 2253 4666 
z
" transform="scale(0.015625)"/>
       </defs>
       <use xlink:href="#DejaVuSans-30"/>
       <use xlink:href="#DejaVuSans-2e" transform="translate(63.623047 0)"/>
       <use xlink:href="#DejaVuSans-34" transform="translate(95.410156 0)"/>
      </g>
     </g>
    </g>
    <g id="xtick_5">
     <g id="line2d_9">
      <path d="M 262.957321 323.4055 
L 262.957321 35.1175 
" clip-path="url(#pb798feda63)" style="fill: none; stroke: #2f2f2f; stroke-opacity: 0.65; stroke-width: 0.6; stroke-linecap: square"/>
     </g>
     <g id="line2d_10">
      <g>
       <use xlink:href="#m565ca49fe3" x="262.957321" y="323.4055" style="fill: #bdbdbd; stroke: #bdbdbd; stroke-width: 0.8"/>
      </g>
     </g>
     <g id="text_5">
      <!-- 0.6 -->
      <g style="fill: #bdbdbd" transform="translate(255.005759 338.003938) scale(0.1 -0.1)">
       <defs>
        <path id="DejaVuSans-36" d="M 2113 2584 
Q 1688 2584 1439 2293 
Q 1191 2003 1191 1497 
Q 1191 994 1439 701 
Q 1688 409 2113 409 
Q 2538 409 2786 701 
Q 3034 994 3034 1497 
Q 3034 2003 2786 2293 
Q 2538 2584 2113 2584 
z
M 3366 4563 
L 3366 3988 
Q 3128 4100 2886 4159 
Q 2644 4219 2406 4219 
Q 1781 4219 1451 3797 
Q 1122 3375 1075 2522 
Q 1259 2794 1537 2939 
Q 1816 3084 2150 3084 
Q 2853 3084 3261 2657 
Q 3669 2231 3669 1497 
Q 3669 778 3244 343 
Q 2819 -91 2113 -91 
Q 1303 -91 875 529 
Q 447 1150 447 2328 
Q 447 3434 972 4092 
Q 1497 4750 2381 4750 
Q 2619 4750 2861 4703 
Q 3103 4656 3366 4563 
z
" transform="scale(0.015625)"/>
       </defs>
       <use xlink:href="#DejaVuSans-30"/>
       <use xlink:href="#DejaVuSans-2e" transform="translate(63.623047 0)"/>
       <use xlink:href="#DejaVuSans-36" transform="translate(95.410156 0)"/>
      </g>
     </g>
    </g>
    <g id="xtick_6">
     <g id="line2d_11">
      <path d="M 313.974464 323.4055 
L 313.974464 35.1175 
" clip-path="url(#pb798feda63)" style="fill: none; stroke: #2f2f2f; stroke-opacity: 0.65; stroke-width: 0.6; stroke-linecap: square"/>
     </g>
     <g id="line2d_12">
      <g>
       <use xlink:href="#m565ca49fe3" x="313.974464" y="323.4055" style="fill: #bdbdbd; stroke: #bdbdbd; stroke-width: 0.8"/>
      </g>
     </g>
     <g id="text_6">
      <!-- 0.8 -->
      <g style="fill: #bdbdbd" transform="translate(306.022902 338.003938) scale(0.1 -0.1)">
       <defs>
        <path id="DejaVuSans-38" d="M 2034 2216 
Q 1584 2216 1326 1975 
Q 1069 1734 1069 1313 
Q 1069 891 1326 650 
Q 1584 409 2034 409 
Q 2484 409 2743 651 
Q 3003 894 3003 1313 
Q 3003 1734 2745 1975 
Q 2488 2216 2034 2216 
z
M 1403 2484 
Q 997 2584 770 2862 
Q 544 3141 544 3541 
Q 544 4100 942 4425 
Q 1341 4750 2034 4750 
Q 2731 4750 3128 4425 
Q 3525 4100 3525 3541 
Q 3525 3141 3298 2862 
Q 3072 2584 2669 2484 
Q 3125 2378 3379 2068 
Q 3634 1759 3634 1313 
Q 3634 634 3220 271 
Q 2806 -91 2034 -91 
Q 1263 -91 848 271 
Q 434 634 434 1313 
Q 434 1759 690 2068 
Q 947 2378 1403 2484 
z
M 1172 3481 
Q 1172 3119 1398 2916 
Q 1625 2713 2034 2713 
Q 2441 2713 2670 2916 
Q 2900 3119 2900 3481 
Q 2900 3844 2670 4047 
Q 2441 4250 2034 4250 
Q 1625 4250 1398 4047 
Q 1172 3844 1172 3481 
z
" transform="scale(0.015625)"/>
       </defs>
       <use xlink:href="#DejaVuSans-30"/>
       <use xlink:href="#DejaVuSans-2e" transform="translate(63.623047 0)"/>
       <use xlink:href="#DejaVuSans-38" transform="translate(95.410156 0)"/>
      </g>
     </g>
    </g>
    <g id="xtick_7">
     <g id="line2d_13">
      <path d="M 364.991607 323.4055 
L 364.991607 35.1175 
" clip-path="url(#pb798feda63)" style="fill: none; stroke: #2f2f2f; stroke-opacity: 0.65; stroke-width: 0.6; stroke-linecap: square"/>
     </g>
     <g id="line2d_14">
      <g>
       <use xlink:href="#m565ca49fe3" x="364.991607" y="323.4055" style="fill: #bdbdbd; stroke: #bdbdbd; stroke-width: 0.8"/>
      </g>
     </g>
     <g id="text_7">
      <!-- 1.0 -->
      <g style="fill: #bdbdbd" transform="translate(357.040045 338.003938) scale(0.1 -0.1)">
       <defs>
        <path id="DejaVuSans-31" d="M 794 531 
L 1825 531 
L 1825 4091 
L 703 3866 
L 703 4441 
L 1819 4666 
L 2450 4666 
L 2450 531 
L 3481 531 
L 3481 0 
L 794 0 
L 794 531 
z
" transform="scale(0.015625)"/>
       </defs>
       <use xlink:href="#DejaVuSans-31"/>
       <use xlink:href="#DejaVuSans-2e" transform="translate(63.623047 0)"/>
       <use xlink:href="#DejaVuSans-30" transform="translate(95.410156 0)"/>
      </g>
     </g>
    </g>
    <g id="xtick_8">
     <g id="line2d_15">
      <path d="M 416.00875 323.4055 
L 416.00875 35.1175 
" clip-path="url(#pb798feda63)" style="fill: none; stroke: #2f2f2f; stroke-opacity: 0.65; stroke-width: 0.6; stroke-linecap: square"/>
     </g>
     <g id="line2d_16">
      <g>
       <use xlink:href="#m565ca49fe3" x="416.00875" y="323.4055" style="fill: #bdbdbd; stroke: #bdbdbd; stroke-width: 0.8"/>
      </g>
     </g>
     <g id="text_8">
      <!-- 1.2 -->
      <g style="fill: #bdbdbd" transform="translate(408.057188 338.003938) scale(0.1 -0.1)">
       <use xlink:href="#DejaVuSans-31"/>
       <use xlink:href="#DejaVuSans-2e" transform="translate(63.623047 0)"/>
       <use xlink:href="#DejaVuSans-32" transform="translate(95.410156 0)"/>
      </g>
     </g>
    </g>
    <g id="text_9">
     <!-- $x_1$ -->
     <g style="fill: #f0f0f0" transform="translate(231.56375 352.441906) scale(0.11 -0.11)">
      <defs>
       <path id="DejaVuSans-Oblique-78" d="M 3841 3500 
L 2234 1784 
L 3219 0 
L 2559 0 
L 1819 1388 
L 531 0 
L -166 0 
L 1556 1844 
L 641 3500 
L 1300 3500 
L 1972 2234 
L 3144 3500 
L 3841 3500 
z
" transform="scale(0.015625)"/>
      </defs>
      <use xlink:href="#DejaVuSans-Oblique-78" transform="translate(0 0.3125)"/>
      <use xlink:href="#DejaVuSans-31" transform="translate(59.179688 -16.09375) scale(0.7)"/>
     </g>
    </g>
   </g>
   <g id="matplotlib.axis_2">
    <g id="ytick_1">
     <g id="line2d_17">
      <path d="M 58.88875 323.4055 
L 416.00875 323.4055 
" clip-path="url(#pb798feda63)" style="fill: none; stroke: #2f2f2f; stroke-width: 0.8; stroke-linecap: square"/>
     </g>
     <g id="line2d_18">
      <defs>
       <path id="mbfbbcfe289" d="M 0 0 
L -3.5 0 
" style="stroke: #bdbdbd; stroke-width: 0.8"/>
      </defs>
      <g>
       <use xlink:href="#mbfbbcfe289" x="58.88875" y="323.4055" style="fill: #bdbdbd; stroke: #bdbdbd; stroke-width: 0.8"/>
      </g>
     </g>
     <g id="text_10">
      <!-- −0.2 -->
      <g style="fill: #bdbdbd" transform="translate(27.605937 327.204719) scale(0.1 -0.1)">
       <use xlink:href="#DejaVuSans-2212"/>
       <use xlink:href="#DejaVuSans-30" transform="translate(83.789062 0)"/>
       <use xlink:href="#DejaVuSans-2e" transform="translate(147.412109 0)"/>
       <use xlink:href="#DejaVuSans-32" transform="translate(179.199219 0)"/>
      </g>
     </g>
    </g>
    <g id="ytick_2">
     <g id="line2d_19">
      <path d="M 58.88875 282.2215 
L 416.00875 282.2215 
" clip-path="url(#pb798feda63)" style="fill: none; stroke: #2f2f2f; stroke-width: 0.8; stroke-linecap: square"/>
     </g>
     <g id="line2d_20">
      <g>
       <use xlink:href="#mbfbbcfe289" x="58.88875" y="282.2215" style="fill: #bdbdbd; stroke: #bdbdbd; stroke-width: 0.8"/>
      </g>
     </g>
     <g id="text_11">
      <!-- 0.0 -->
      <g style="fill: #bdbdbd" transform="translate(35.985625 286.020719) scale(0.1 -0.1)">
       <use xlink:href="#DejaVuSans-30"/>
       <use xlink:href="#DejaVuSans-2e" transform="translate(63.623047 0)"/>
       <use xlink:href="#DejaVuSans-30" transform="translate(95.410156 0)"/>
      </g>
     </g>
    </g>
    <g id="ytick_3">
     <g id="line2d_21">
      <path d="M 58.88875 241.0375 
L 416.00875 241.0375 
" clip-path="url(#pb798feda63)" style="fill: none; stroke: #2f2f2f; stroke-width: 0.8; stroke-linecap: square"/>
     </g>
     <g id="line2d_22">
      <g>
       <use xlink:href="#mbfbbcfe289" x="58.88875" y="241.0375" style="fill: #bdbdbd; stroke: #bdbdbd; stroke-width: 0.8"/>
      </g>
     </g>
     <g id="text_12">
      <!-- 0.2 -->
      <g style="fill: #bdbdbd" transform="translate(35.985625 244.836719) scale(0.1 -0.1)">
       <use xlink:href="#DejaVuSans-30"/>
       <use xlink:href="#DejaVuSans-2e" transform="translate(63.623047 0)"/>
       <use xlink:href="#DejaVuSans-32" transform="translate(95.410156 0)"/>
      </g>
     </g>
    </g>
    <g id="ytick_4">
     <g id="line2d_23">
      <path d="M 58.88875 199.8535 
L 416.00875 199.8535 
" clip-path="url(#pb798feda63)" style="fill: none; stroke: #2f2f2f; stroke-width: 0.8; stroke-linecap: square"/>
     </g>
     <g id="line2d_24">
      <g>
       <use xlink:href="#mbfbbcfe289" x="58.88875" y="199.8535" style="fill: #bdbdbd; stroke: #bdbdbd; stroke-width: 0.8"/>
      </g>
     </g>
     <g id="text_13">
      <!-- 0.4 -->
      <g style="fill: #bdbdbd" transform="translate(35.985625 203.652719) scale(0.1 -0.1)">
       <use xlink:href="#DejaVuSans-30"/>
       <use xlink:href="#DejaVuSans-2e" transform="translate(63.623047 0)"/>
       <use xlink:href="#DejaVuSans-34" transform="translate(95.410156 0)"/>
      </g>
     </g>
    </g>
    <g id="ytick_5">
     <g id="line2d_25">
      <path d="M 58.88875 158.6695 
L 416.00875 158.6695 
" clip-path="url(#pb798feda63)" style="fill: none; stroke: #2f2f2f; stroke-width: 0.8; stroke-linecap: square"/>
     </g>
     <g id="line2d_26">
      <g>
       <use xlink:href="#mbfbbcfe289" x="58.88875" y="158.6695" style="fill: #bdbdbd; stroke: #bdbdbd; stroke-width: 0.8"/>
      </g>
     </g>
     <g id="text_14">
      <!-- 0.6 -->
      <g style="fill: #bdbdbd" transform="translate(35.985625 162.468719) scale(0.1 -0.1)">
       <use xlink:href="#DejaVuSans-30"/>
       <use xlink:href="#DejaVuSans-2e" transform="translate(63.623047 0)"/>
       <use xlink:href="#DejaVuSans-36" transform="translate(95.410156 0)"/>
      </g>
     </g>
    </g>
    <g id="ytick_6">
     <g id="line2d_27">
      <path d="M 58.88875 117.4855 
L 416.00875 117.4855 
" clip-path="url(#pb798feda63)" style="fill: none; stroke: #2f2f2f; stroke-width: 0.8; stroke-linecap: square"/>
     </g>
     <g id="line2d_28">
      <g>
       <use xlink:href="#mbfbbcfe289" x="58.88875" y="117.4855" style="fill: #bdbdbd; stroke: #bdbdbd; stroke-width: 0.8"/>
      </g>
     </g>
     <g id="text_15">
      <!-- 0.8 -->
      <g style="fill: #bdbdbd" transform="translate(35.985625 121.284719) scale(0.1 -0.1)">
       <use xlink:href="#DejaVuSans-30"/>
       <use xlink:href="#DejaVuSans-2e" transform="translate(63.623047 0)"/>
       <use xlink:href="#DejaVuSans-38" transform="translate(95.410156 0)"/>
      </g>
     </g>
    </g>
    <g id="ytick_7">
     <g id="line2d_29">
      <path d="M 58.88875 76.3015 
L 416.00875 76.3015 
" clip-path="url(#pb798feda63)" style="fill: none; stroke: #2f2f2f; stroke-width: 0.8; stroke-linecap: square"/>
     </g>
     <g id="line2d_30">
      <g>
       <use xlink:href="#mbfbbcfe289" x="58.88875" y="76.3015" style="fill: #bdbdbd; stroke: #bdbdbd; stroke-width: 0.8"/>
      </g>
     </g>
     <g id="text_16">
      <!-- 1.0 -->
      <g style="fill: #bdbdbd" transform="translate(35.985625 80.100719) scale(0.1 -0.1)">
       <use xlink:href="#DejaVuSans-31"/>
       <use xlink:href="#DejaVuSans-2e" transform="translate(63.623047 0)"/>
       <use xlink:href="#DejaVuSans-30" transform="translate(95.410156 0)"/>
      </g>
     </g>
    </g>
    <g id="ytick_8">
     <g id="line2d_31">
      <path d="M 58.88875 35.1175 
L 416.00875 35.1175 
" clip-path="url(#pb798feda63)" style="fill: none; stroke: #2f2f2f; stroke-width: 0.8; stroke-linecap: square"/>
     </g>
     <g id="line2d_32">
      <g>
       <use xlink:href="#mbfbbcfe289" x="58.88875" y="35.1175" style="fill: #bdbdbd; stroke: #bdbdbd; stroke-width: 0.8"/>
      </g>
     </g>
     <g id="text_17">
      <!-- 1.2 -->
      <g style="fill: #bdbdbd" transform="translate(35.985625 38.916719) scale(0.1 -0.1)">
       <use xlink:href="#DejaVuSans-31"/>
       <use xlink:href="#DejaVuSans-2e" transform="translate(63.623047 0)"/>
       <use xlink:href="#DejaVuSans-32" transform="translate(95.410156 0)"/>
      </g>
     </g>
    </g>
    <g id="text_18">
     <!-- $x_2$ -->
     <g style="fill: #f0f0f0" transform="translate(21.318281 185.1465) rotate(-90) scale(0.11 -0.11)">
      <use xlink:href="#DejaVuSans-Oblique-78" transform="translate(0 0.3125)"/>
      <use xlink:href="#DejaVuSans-32" transform="translate(59.179688 -16.09375) scale(0.7)"/>
     </g>
    </g>
   </g>
   <g id="FillBetweenPolyCollection_1">
    <path d="M 58.88875 24.8215 
L 58.88875 138.0775 
L 60.683323 139.526183 
L 62.477896 140.974867 
L 64.272469 142.42355 
L 66.067041 143.872234 
L 67.861614 145.320917 
L 69.656187 146.769601 
L 71.45076 148.218284 
L 73.245333 149.666967 
L 75.039906 151.115651 
L 76.834479 152.564334 
L 78.629052 154.013018 
L 80.423624 155.461701 
L 82.218197 156.910384 
L 84.01277 158.359068 
L 85.807343 159.807751 
L 87.601916 161.256435 
L 89.396489 162.705118 
L 91.191062 164.153802 
L 92.985634 165.602485 
L 94.780207 167.051168 
L 96.57478 168.499852 
L 98.369353 169.948535 
L 100.163926 171.397219 
L 101.958499 172.845902 
L 103.753072 174.294585 
L 105.547644 175.743269 
L 107.342217 177.191952 
L 109.13679 178.640636 
L 110.931363 180.089319 
L 112.725936 181.538003 
L 114.520509 182.986686 
L 116.315082 184.435369 
L 118.109655 185.884053 
L 119.904227 187.332736 
L 121.6988 188.78142 
L 123.493373 190.230103 
L 125.287946 191.678786 
L 127.082519 193.12747 
L 128.877092 194.576153 
L 130.671665 196.024837 
L 132.466237 197.47352 
L 134.26081 198.922204 
L 136.055383 200.370887 
L 137.849956 201.81957 
L 139.644529 203.268254 
L 141.439102 204.716937 
L 143.233675 206.165621 
L 145.028247 207.614304 
L 146.82282 209.062987 
L 148.617393 210.511671 
L 150.411966 211.960354 
L 152.206539 213.409038 
L 154.001112 214.857721 
L 155.795685 216.306405 
L 157.590258 217.755088 
L 159.38483 219.203771 
L 161.179403 220.652455 
L 162.973976 222.101138 
L 164.768549 223.549822 
L 166.563122 224.998505 
L 168.357695 226.447188 
L 170.152268 227.895872 
L 171.94684 229.344555 
L 173.741413 230.793239 
L 175.535986 232.241922 
L 177.330559 233.690606 
L 179.125132 235.139289 
L 180.919705 236.587972 
L 182.714278 238.036656 
L 184.508851 239.485339 
L 186.303423 240.934023 
L 188.097996 242.382706 
L 189.892569 243.831389 
L 191.687142 245.280073 
L 193.481715 246.728756 
L 195.276288 248.17744 
L 197.070861 249.626123 
L 198.865433 251.074807 
L 200.660006 252.52349 
L 202.454579 253.972173 
L 204.249152 255.420857 
L 206.043725 256.86954 
L 207.838298 258.318224 
L 209.632871 259.766907 
L 211.427443 261.21559 
L 213.222016 262.664274 
L 215.016589 264.112957 
L 216.811162 265.561641 
L 218.605735 267.010324 
L 220.400308 268.459008 
L 222.194881 269.907691 
L 223.989454 271.356374 
L 225.784026 272.805058 
L 227.578599 274.253741 
L 229.373172 275.702425 
L 231.167745 277.151108 
L 232.962318 278.599791 
L 234.756891 280.048475 
L 236.551464 281.497158 
L 238.346036 282.945842 
L 240.140609 284.394525 
L 241.935182 285.843209 
L 243.729755 287.291892 
L 245.524328 288.740575 
L 247.318901 290.189259 
L 249.113474 291.637942 
L 250.908046 293.086626 
L 252.702619 294.535309 
L 254.497192 295.983992 
L 256.291765 297.432676 
L 258.086338 298.881359 
L 259.880911 300.330043 
L 261.675484 301.778726 
L 263.470057 303.22741 
L 265.264629 304.676093 
L 267.059202 306.124776 
L 268.853775 307.57346 
L 270.648348 309.022143 
L 272.442921 310.470827 
L 274.237494 311.91951 
L 276.032067 313.368193 
L 277.826639 314.816877 
L 279.621212 316.26556 
L 281.415785 317.714244 
L 283.210358 319.162927 
L 285.004931 320.611611 
L 286.799504 322.060294 
L 288.594077 323.508977 
L 290.388649 324.957661 
L 292.183222 326.406344 
L 293.977795 327.855028 
L 295.772368 329.303711 
L 297.566941 330.752394 
L 299.361514 332.201078 
L 301.156087 333.649761 
L 302.95066 335.098445 
L 304.745232 336.547128 
L 306.539805 337.995812 
L 308.334378 339.444495 
L 310.128951 340.893178 
L 311.923524 342.341862 
L 313.718097 343.790545 
L 315.51267 345.239229 
L 317.307242 346.687912 
L 319.101815 348.136595 
L 320.896388 349.585279 
L 322.690961 351.033962 
L 324.485534 352.482646 
L 326.280107 353.931329 
L 328.07468 355.380013 
L 329.869253 356.828696 
L 331.663825 358.277379 
L 333.458398 359.726063 
L 335.252971 361.174746 
L 337.047544 362.62343 
L 338.842117 364.072113 
L 340.63669 365.520796 
L 342.431263 366.96948 
L 344.225835 368.418163 
L 346.020408 369.866847 
L 347.814981 371.31553 
L 349.609554 372.764214 
L 351.404127 374.212897 
L 353.1987 375.66158 
L 354.993273 377.110264 
L 356.787845 378.558947 
L 358.582418 380.007631 
L 360.376991 381.456314 
L 362.171564 382.904997 
L 363.966137 384.353681 
L 365.76071 385.802364 
L 367.555283 387.251048 
L 369.349856 388.699731 
L 371.144428 390.148415 
L 372.939001 391.597098 
L 374.733574 393.045781 
L 376.528147 394.494465 
L 378.32272 395.943148 
L 380.117293 397.391832 
L 381.911866 398.840515 
L 383.706438 400.289198 
L 385.501011 401.737882 
L 387.295584 403.186565 
L 389.090157 404.635249 
L 390.88473 406.083932 
L 392.679303 407.532616 
L 394.473876 408.981299 
L 396.268448 410.429982 
L 398.063021 411.878666 
L 399.857594 413.327349 
L 401.652167 414.776033 
L 403.44674 416.224716 
L 405.241313 417.673399 
L 407.035886 419.122083 
L 408.830459 420.570766 
L 410.625031 422.01945 
L 412.419604 423.468133 
L 414.214177 424.916817 
L 416.00875 426.3655 
L 416.00875 24.8215 
L 416.00875 24.8215 
L 414.214177 24.8215 
L 412.419604 24.8215 
L 410.625031 24.8215 
L 408.830459 24.8215 
L 407.035886 24.8215 
L 405.241313 24.8215 
L 403.44674 24.8215 
L 401.652167 24.8215 
L 399.857594 24.8215 
L 398.063021 24.8215 
L 396.268448 24.8215 
L 394.473876 24.8215 
L 392.679303 24.8215 
L 390.88473 24.8215 
L 389.090157 24.8215 
L 387.295584 24.8215 
L 385.501011 24.8215 
L 383.706438 24.8215 
L 381.911866 24.8215 
L 380.117293 24.8215 
L 378.32272 24.8215 
L 376.528147 24.8215 
L 374.733574 24.8215 
L 372.939001 24.8215 
L 371.144428 24.8215 
L 369.349856 24.8215 
L 367.555283 24.8215 
L 365.76071 24.8215 
L 363.966137 24.8215 
L 362.171564 24.8215 
L 360.376991 24.8215 
L 358.582418 24.8215 
L 356.787845 24.8215 
L 354.993273 24.8215 
L 353.1987 24.8215 
L 351.404127 24.8215 
L 349.609554 24.8215 
L 347.814981 24.8215 
L 346.020408 24.8215 
L 344.225835 24.8215 
L 342.431263 24.8215 
L 340.63669 24.8215 
L 338.842117 24.8215 
L 337.047544 24.8215 
L 335.252971 24.8215 
L 333.458398 24.8215 
L 331.663825 24.8215 
L 329.869253 24.8215 
L 328.07468 24.8215 
L 326.280107 24.8215 
L 324.485534 24.8215 
L 322.690961 24.8215 
L 320.896388 24.8215 
L 319.101815 24.8215 
L 317.307242 24.8215 
L 315.51267 24.8215 
L 313.718097 24.8215 
L 311.923524 24.8215 
L 310.128951 24.8215 
L 308.334378 24.8215 
L 306.539805 24.8215 
L 304.745232 24.8215 
L 302.95066 24.8215 
L 301.156087 24.8215 
L 299.361514 24.8215 
L 297.566941 24.8215 
L 295.772368 24.8215 
L 293.977795 24.8215 
L 292.183222 24.8215 
L 290.388649 24.8215 
L 288.594077 24.8215 
L 286.799504 24.8215 
L 285.004931 24.8215 
L 283.210358 24.8215 
L 281.415785 24.8215 
L 279.621212 24.8215 
L 277.826639 24.8215 
L 276.032067 24.8215 
L 274.237494 24.8215 
L 272.442921 24.8215 
L 270.648348 24.8215 
L 268.853775 24.8215 
L 267.059202 24.8215 
L 265.264629 24.8215 
L 263.470057 24.8215 
L 261.675484 24.8215 
L 259.880911 24.8215 
L 258.086338 24.8215 
L 256.291765 24.8215 
L 254.497192 24.8215 
L 252.702619 24.8215 
L 250.908046 24.8215 
L 249.113474 24.8215 
L 247.318901 24.8215 
L 245.524328 24.8215 
L 243.729755 24.8215 
L 241.935182 24.8215 
L 240.140609 24.8215 
L 238.346036 24.8215 
L 236.551464 24.8215 
L 234.756891 24.8215 
L 232.962318 24.8215 
L 231.167745 24.8215 
L 229.373172 24.8215 
L 227.578599 24.8215 
L 225.784026 24.8215 
L 223.989454 24.8215 
L 222.194881 24.8215 
L 220.400308 24.8215 
L 218.605735 24.8215 
L 216.811162 24.8215 
L 215.016589 24.8215 
L 213.222016 24.8215 
L 211.427443 24.8215 
L 209.632871 24.8215 
L 207.838298 24.8215 
L 206.043725 24.8215 
L 204.249152 24.8215 
L 202.454579 24.8215 
L 200.660006 24.8215 
L 198.865433 24.8215 
L 197.070861 24.8215 
L 195.276288 24.8215 
L 193.481715 24.8215 
L 191.687142 24.8215 
L 189.892569 24.8215 
L 188.097996 24.8215 
L 186.303423 24.8215 
L 184.508851 24.8215 
L 182.714278 24.8215 
L 180.919705 24.8215 
L 179.125132 24.8215 
L 177.330559 24.8215 
L 175.535986 24.8215 
L 173.741413 24.8215 
L 171.94684 24.8215 
L 170.152268 24.8215 
L 168.357695 24.8215 
L 166.563122 24.8215 
L 164.768549 24.8215 
L 162.973976 24.8215 
L 161.179403 24.8215 
L 159.38483 24.8215 
L 157.590258 24.8215 
L 155.795685 24.8215 
L 154.001112 24.8215 
L 152.206539 24.8215 
L 150.411966 24.8215 
L 148.617393 24.8215 
L 146.82282 24.8215 
L 145.028247 24.8215 
L 143.233675 24.8215 
L 141.439102 24.8215 
L 139.644529 24.8215 
L 137.849956 24.8215 
L 136.055383 24.8215 
L 134.26081 24.8215 
L 132.466237 24.8215 
L 130.671665 24.8215 
L 128.877092 24.8215 
L 127.082519 24.8215 
L 125.287946 24.8215 
L 123.493373 24.8215 
L 121.6988 24.8215 
L 119.904227 24.8215 
L 118.109655 24.8215 
L 116.315082 24.8215 
L 114.520509 24.8215 
L 112.725936 24.8215 
L 110.931363 24.8215 
L 109.13679 24.8215 
L 107.342217 24.8215 
L 105.547644 24.8215 
L 103.753072 24.8215 
L 101.958499 24.8215 
L 100.163926 24.8215 
L 98.369353 24.8215 
L 96.57478 24.8215 
L 94.780207 24.8215 
L 92.985634 24.8215 
L 91.191062 24.8215 
L 89.396489 24.8215 
L 87.601916 24.8215 
L 85.807343 24.8215 
L 84.01277 24.8215 
L 82.218197 24.8215 
L 80.423624 24.8215 
L 78.629052 24.8215 
L 76.834479 24.8215 
L 75.039906 24.8215 
L 73.245333 24.8215 
L 71.45076 24.8215 
L 69.656187 24.8215 
L 67.861614 24.8215 
L 66.067041 24.8215 
L 64.272469 24.8215 
L 62.477896 24.8215 
L 60.683323 24.8215 
L 58.88875 24.8215 
z
" clip-path="url(#pb798feda63)" style="fill: #242424; fill-opacity: 0.86; stroke: #242424; stroke-opacity: 0.86"/>
   </g>
   <g id="FillBetweenPolyCollection_2">
    <defs>
     <path id="m6f8b90e1d6" d="M 58.88875 -229.612063 
L 58.88875 -33.988062 
L 60.683323 -33.988062 
L 62.477896 -33.988062 
L 64.272469 -33.988062 
L 66.067041 -33.988062 
L 67.861614 -33.988062 
L 69.656187 -33.988062 
L 71.45076 -33.988062 
L 73.245333 -33.988062 
L 75.039906 -33.988062 
L 76.834479 -33.988062 
L 78.629052 -33.988062 
L 80.423624 -33.988062 
L 82.218197 -33.988062 
L 84.01277 -33.988062 
L 85.807343 -33.988062 
L 87.601916 -33.988062 
L 89.396489 -33.988062 
L 91.191062 -33.988062 
L 92.985634 -33.988062 
L 94.780207 -33.988062 
L 96.57478 -33.988062 
L 98.369353 -33.988062 
L 100.163926 -33.988062 
L 101.958499 -33.988062 
L 103.753072 -33.988062 
L 105.547644 -33.988062 
L 107.342217 -33.988062 
L 109.13679 -33.988062 
L 110.931363 -33.988062 
L 112.725936 -33.988062 
L 114.520509 -33.988062 
L 116.315082 -33.988062 
L 118.109655 -33.988062 
L 119.904227 -33.988062 
L 121.6988 -33.988062 
L 123.493373 -33.988062 
L 125.287946 -33.988062 
L 127.082519 -33.988062 
L 128.877092 -33.988062 
L 130.671665 -33.988062 
L 132.466237 -33.988062 
L 134.26081 -33.988062 
L 136.055383 -33.988062 
L 137.849956 -33.988062 
L 139.644529 -33.988062 
L 141.439102 -33.988062 
L 143.233675 -33.988062 
L 145.028247 -33.988062 
L 146.82282 -33.988062 
L 148.617393 -33.988062 
L 150.411966 -33.988062 
L 152.206539 -33.988062 
L 154.001112 -33.988062 
L 155.795685 -33.988062 
L 157.590258 -33.988062 
L 159.38483 -33.988062 
L 161.179403 -33.988062 
L 162.973976 -33.988062 
L 164.768549 -33.988062 
L 166.563122 -33.988062 
L 168.357695 -33.988062 
L 170.152268 -33.988062 
L 171.94684 -33.988062 
L 173.741413 -33.988062 
L 175.535986 -33.988062 
L 177.330559 -33.988062 
L 179.125132 -33.988062 
L 180.919705 -33.988062 
L 182.714278 -33.988062 
L 184.508851 -33.988062 
L 186.303423 -33.988062 
L 188.097996 -33.988062 
L 189.892569 -33.988062 
L 191.687142 -33.988062 
L 193.481715 -33.988062 
L 195.276288 -33.988062 
L 197.070861 -33.988062 
L 198.865433 -33.988062 
L 200.660006 -33.988062 
L 202.454579 -33.988062 
L 204.249152 -33.988062 
L 206.043725 -33.988062 
L 207.838298 -33.988062 
L 209.632871 -33.988062 
L 211.427443 -33.988062 
L 213.222016 -33.988062 
L 215.016589 -33.988062 
L 216.811162 -33.988062 
L 218.605735 -33.988062 
L 220.400308 -33.988062 
L 222.194881 -33.988062 
L 223.989454 -33.988062 
L 225.784026 -33.988062 
L 227.578599 -33.988062 
L 229.373172 -33.988062 
L 231.167745 -33.988062 
L 232.962318 -33.988062 
L 234.756891 -33.988062 
L 236.551464 -33.988062 
L 238.346036 -33.988062 
L 240.140609 -33.988062 
L 241.935182 -33.988062 
L 243.729755 -33.988062 
L 245.524328 -33.988062 
L 247.318901 -33.988062 
L 249.113474 -33.988062 
L 250.908046 -33.988062 
L 252.702619 -33.988062 
L 254.497192 -33.988062 
L 256.291765 -33.988062 
L 258.086338 -33.988062 
L 259.880911 -33.988062 
L 261.675484 -33.988062 
L 263.470057 -33.988062 
L 265.264629 -33.988062 
L 267.059202 -33.988062 
L 268.853775 -33.988062 
L 270.648348 -33.988062 
L 272.442921 -33.988062 
L 274.237494 -33.988062 
L 276.032067 -33.988062 
L 277.826639 -33.988062 
L 279.621212 -33.988062 
L 281.415785 -33.988062 
L 283.210358 -33.988062 
L 285.004931 -33.988062 
L 286.799504 -33.988062 
L 288.594077 -33.988062 
L 290.388649 -33.988062 
L 292.183222 -33.988062 
L 293.977795 -33.988062 
L 295.772368 -33.988062 
L 297.566941 -33.988062 
L 299.361514 -33.988062 
L 301.156087 -33.988062 
L 302.95066 -33.988062 
L 304.745232 -33.988062 
L 306.539805 -33.988062 
L 308.334378 -33.988062 
L 310.128951 -33.988062 
L 311.923524 -33.988062 
L 313.718097 -33.988062 
L 315.51267 -33.988062 
L 317.307242 -33.988062 
L 319.101815 -33.988062 
L 320.896388 -33.988062 
L 322.690961 -33.988062 
L 324.485534 -33.988062 
L 326.280107 -33.988062 
L 328.07468 -33.988062 
L 329.869253 -33.988062 
L 331.663825 -33.988062 
L 333.458398 -33.988062 
L 335.252971 -33.988062 
L 337.047544 -33.988062 
L 338.842117 -33.988062 
L 340.63669 -33.988062 
L 342.431263 -33.988062 
L 344.225835 -33.988062 
L 346.020408 -33.988062 
L 347.814981 -33.988062 
L 349.609554 -33.988062 
L 351.404127 -33.988062 
L 353.1987 -33.988062 
L 354.993273 -33.988062 
L 356.787845 -33.988062 
L 358.582418 -33.988062 
L 360.376991 -33.988062 
L 362.171564 -33.988062 
L 363.966137 -33.988062 
L 365.76071 -33.988062 
L 367.555283 -33.988062 
L 369.349856 -33.988062 
L 371.144428 -33.988062 
L 372.939001 -33.988062 
L 374.733574 -33.988062 
L 376.528147 -33.988062 
L 378.32272 -33.988062 
L 380.117293 -33.988062 
L 381.911866 -33.988062 
L 383.706438 -33.988062 
L 385.501011 -33.988062 
L 387.295584 -33.988062 
L 389.090157 -33.988062 
L 390.88473 -33.988062 
L 392.679303 -33.988062 
L 394.473876 -33.988062 
L 396.268448 -33.988062 
L 398.063021 -33.988062 
L 399.857594 -33.988062 
L 401.652167 -33.988062 
L 403.44674 -33.988062 
L 405.241313 -33.988062 
L 407.035886 -33.988062 
L 408.830459 -33.988062 
L 410.625031 -33.988062 
L 412.419604 -33.988062 
L 414.214177 -33.988062 
L 416.00875 -33.988062 
L 416.00875 58.675938 
L 416.00875 58.675938 
L 414.214177 57.227254 
L 412.419604 55.778571 
L 410.625031 54.329887 
L 408.830459 52.881204 
L 407.035886 51.43252 
L 405.241313 49.983837 
L 403.44674 48.535154 
L 401.652167 47.08647 
L 399.857594 45.637787 
L 398.063021 44.189103 
L 396.268448 42.74042 
L 394.473876 41.291736 
L 392.679303 39.843053 
L 390.88473 38.39437 
L 389.090157 36.945686 
L 387.295584 35.497003 
L 385.501011 34.048319 
L 383.706438 32.599636 
L 381.911866 31.150953 
L 380.117293 29.702269 
L 378.32272 28.253586 
L 376.528147 26.804902 
L 374.733574 25.356219 
L 372.939001 23.907535 
L 371.144428 22.458852 
L 369.349856 21.010169 
L 367.555283 19.561485 
L 365.76071 18.112802 
L 363.966137 16.664118 
L 362.171564 15.215435 
L 360.376991 13.766752 
L 358.582418 12.318068 
L 356.787845 10.869385 
L 354.993273 9.420701 
L 353.1987 7.972018 
L 351.404127 6.523334 
L 349.609554 5.074651 
L 347.814981 3.625968 
L 346.020408 2.177284 
L 344.225835 0.728601 
L 342.431263 -0.720083 
L 340.63669 -2.168766 
L 338.842117 -3.617449 
L 337.047544 -5.066133 
L 335.252971 -6.514816 
L 333.458398 -7.9635 
L 331.663825 -9.412183 
L 329.869253 -10.860867 
L 328.07468 -12.30955 
L 326.280107 -13.758233 
L 324.485534 -15.206917 
L 322.690961 -16.6556 
L 320.896388 -18.104284 
L 319.101815 -19.552967 
L 317.307242 -21.00165 
L 315.51267 -22.450334 
L 313.718097 -23.899017 
L 311.923524 -25.347701 
L 310.128951 -26.796384 
L 308.334378 -28.245068 
L 306.539805 -29.693751 
L 304.745232 -31.142434 
L 302.95066 -32.591118 
L 301.156087 -34.039801 
L 299.361514 -35.488485 
L 297.566941 -36.937168 
L 295.772368 -38.385851 
L 293.977795 -39.834535 
L 292.183222 -41.283218 
L 290.388649 -42.731902 
L 288.594077 -44.180585 
L 286.799504 -45.629269 
L 285.004931 -47.077952 
L 283.210358 -48.526635 
L 281.415785 -49.975319 
L 279.621212 -51.424002 
L 277.826639 -52.872686 
L 276.032067 -54.321369 
L 274.237494 -55.770052 
L 272.442921 -57.218736 
L 270.648348 -58.667419 
L 268.853775 -60.116103 
L 267.059202 -61.564786 
L 265.264629 -63.01347 
L 263.470057 -64.462153 
L 261.675484 -65.910836 
L 259.880911 -67.35952 
L 258.086338 -68.808203 
L 256.291765 -70.256887 
L 254.497192 -71.70557 
L 252.702619 -73.154253 
L 250.908046 -74.602937 
L 249.113474 -76.05162 
L 247.318901 -77.500304 
L 245.524328 -78.948987 
L 243.729755 -80.397671 
L 241.935182 -81.846354 
L 240.140609 -83.295037 
L 238.346036 -84.743721 
L 236.551464 -86.192404 
L 234.756891 -87.641088 
L 232.962318 -89.089771 
L 231.167745 -90.538454 
L 229.373172 -91.987138 
L 227.578599 -93.435821 
L 225.784026 -94.884505 
L 223.989454 -96.333188 
L 222.194881 -97.781872 
L 220.400308 -99.230555 
L 218.605735 -100.679238 
L 216.811162 -102.127922 
L 215.016589 -103.576605 
L 213.222016 -105.025289 
L 211.427443 -106.473972 
L 209.632871 -107.922655 
L 207.838298 -109.371339 
L 206.043725 -110.820022 
L 204.249152 -112.268706 
L 202.454579 -113.717389 
L 200.660006 -115.166073 
L 198.865433 -116.614756 
L 197.070861 -118.063439 
L 195.276288 -119.512123 
L 193.481715 -120.960806 
L 191.687142 -122.40949 
L 189.892569 -123.858173 
L 188.097996 -125.306856 
L 186.303423 -126.75554 
L 184.508851 -128.204223 
L 182.714278 -129.652907 
L 180.919705 -131.10159 
L 179.125132 -132.550274 
L 177.330559 -133.998957 
L 175.535986 -135.44764 
L 173.741413 -136.896324 
L 171.94684 -138.345007 
L 170.152268 -139.793691 
L 168.357695 -141.242374 
L 166.563122 -142.691057 
L 164.768549 -144.139741 
L 162.973976 -145.588424 
L 161.179403 -147.037108 
L 159.38483 -148.485791 
L 157.590258 -149.934475 
L 155.795685 -151.383158 
L 154.001112 -152.831841 
L 152.206539 -154.280525 
L 150.411966 -155.729208 
L 148.617393 -157.177892 
L 146.82282 -158.626575 
L 145.028247 -160.075258 
L 143.233675 -161.523942 
L 141.439102 -162.972625 
L 139.644529 -164.421309 
L 137.849956 -165.869992 
L 136.055383 -167.318676 
L 134.26081 -168.767359 
L 132.466237 -170.216042 
L 130.671665 -171.664726 
L 128.877092 -173.113409 
L 127.082519 -174.562093 
L 125.287946 -176.010776 
L 123.493373 -177.459459 
L 121.6988 -178.908143 
L 119.904227 -180.356826 
L 118.109655 -181.80551 
L 116.315082 -183.254193 
L 114.520509 -184.702877 
L 112.725936 -186.15156 
L 110.931363 -187.600243 
L 109.13679 -189.048927 
L 107.342217 -190.49761 
L 105.547644 -191.946294 
L 103.753072 -193.394977 
L 101.958499 -194.84366 
L 100.163926 -196.292344 
L 98.369353 -197.741027 
L 96.57478 -199.189711 
L 94.780207 -200.638394 
L 92.985634 -202.087078 
L 91.191062 -203.535761 
L 89.396489 -204.984444 
L 87.601916 -206.433128 
L 85.807343 -207.881811 
L 84.01277 -209.330495 
L 82.218197 -210.779178 
L 80.423624 -212.227861 
L 78.629052 -213.676545 
L 76.834479 -215.125228 
L 75.039906 -216.573912 
L 73.245333 -218.022595 
L 71.45076 -219.471279 
L 69.656187 -220.919962 
L 67.861614 -222.368645 
L 66.067041 -223.817329 
L 64.272469 -225.266012 
L 62.477896 -226.714696 
L 60.683323 -228.163379 
L 58.88875 -229.612063 
z
" style="stroke: #2b2b2b; stroke-opacity: 0.7"/>
    </defs>
    <g clip-path="url(#pb798feda63)">
     <use xlink:href="#m6f8b90e1d6" x="0" y="367.689563" style="fill: #2b2b2b; fill-opacity: 0.7; stroke: #2b2b2b; stroke-opacity: 0.7"/>
    </g>
   </g>
   <g id="line2d_33">
    <path d="M 58.88875 138.0775 
L 344.562034 368.689563 
L 344.562034 368.689563 
" clip-path="url(#pb798feda63)" style="fill: none; stroke: #f0f0f0; stroke-width: 1.75; stroke-linecap: square"/>
   </g>
   <g id="patch_3">
    <path d="M 58.88875 323.4055 
L 58.88875 35.1175 
" style="fill: none; stroke: #f0f0f0; stroke-width: 0.8; stroke-linejoin: miter; stroke-linecap: square"/>
   </g>
   <g id="patch_4">
    <path d="M 58.88875 323.4055 
L 416.00875 323.4055 
" style="fill: none; stroke: #f0f0f0; stroke-width: 0.8; stroke-linejoin: miter; stroke-linecap: square"/>
   </g>
   <g id="PathCollection_1">
    <defs>
     <path id="C0_0_59d9511c37" d="M 0 5.43139 
C 1.440422 5.43139 2.822041 4.859105 3.840573 3.840573 
C 4.859105 2.822041 5.43139 1.440422 5.43139 -0 
C 5.43139 -1.440422 4.859105 -2.822041 3.840573 -3.840573 
C 2.822041 -4.859105 1.440422 -5.43139 0 -5.43139 
C -1.440422 -5.43139 -2.822041 -4.859105 -3.840573 -3.840573 
C -4.859105 -2.822041 -5.43139 -1.440422 -5.43139 0 
C -5.43139 1.440422 -4.859105 2.822041 -3.840573 3.840573 
C -2.822041 4.859105 -1.440422 5.43139 0 5.43139 
z
"/>
    </defs>
    <g clip-path="url(#pb798feda63)">
     <use xlink:href="#C0_0_59d9511c37" x="109.905893" y="282.2215" style="fill: #777777; stroke: #f0f0f0"/>
    </g>
    <g clip-path="url(#pb798feda63)">
     <use xlink:href="#C0_0_59d9511c37" x="364.991607" y="282.2215" style="fill: #f0f0f0; stroke: #f0f0f0"/>
    </g>
    <g clip-path="url(#pb798feda63)">
     <use xlink:href="#C0_0_59d9511c37" x="109.905893" y="76.3015" style="fill: #f0f0f0; stroke: #f0f0f0"/>
    </g>
   </g>
   <g id="text_19">
    <!-- A: -1 -->
    <g style="fill: #f0f0f0" transform="translate(117.905893 274.2215) scale(0.1 -0.1)">
     <defs>
      <path id="DejaVuSans-41" d="M 2188 4044 
L 1331 1722 
L 3047 1722 
L 2188 4044 
z
M 1831 4666 
L 2547 4666 
L 4325 0 
L 3669 0 
L 3244 1197 
L 1141 1197 
L 716 0 
L 50 0 
L 1831 4666 
z
" transform="scale(0.015625)"/>
      <path id="DejaVuSans-3a" d="M 750 794 
L 1409 794 
L 1409 0 
L 750 0 
L 750 794 
z
M 750 3309 
L 1409 3309 
L 1409 2516 
L 750 2516 
L 750 3309 
z
" transform="scale(0.015625)"/>
      <path id="DejaVuSans-20" transform="scale(0.015625)"/>
      <path id="DejaVuSans-2d" d="M 313 2009 
L 1997 2009 
L 1997 1497 
L 313 1497 
L 313 2009 
z
" transform="scale(0.015625)"/>
     </defs>
     <use xlink:href="#DejaVuSans-41"/>
     <use xlink:href="#DejaVuSans-3a" transform="translate(66.658203 0)"/>
     <use xlink:href="#DejaVuSans-20" transform="translate(100.349609 0)"/>
     <use xlink:href="#DejaVuSans-2d" transform="translate(132.136719 0)"/>
     <use xlink:href="#DejaVuSans-31" transform="translate(168.220703 0)"/>
    </g>
   </g>
   <g id="text_20">
    <!-- B: +1 -->
    <g style="fill: #f0f0f0" transform="translate(372.991607 274.2215) scale(0.1 -0.1)">
     <defs>
      <path id="DejaVuSans-42" d="M 1259 2228 
L 1259 519 
L 2272 519 
Q 2781 519 3026 730 
Q 3272 941 3272 1375 
Q 3272 1813 3026 2020 
Q 2781 2228 2272 2228 
L 1259 2228 
z
M 1259 4147 
L 1259 2741 
L 2194 2741 
Q 2656 2741 2882 2914 
Q 3109 3088 3109 3444 
Q 3109 3797 2882 3972 
Q 2656 4147 2194 4147 
L 1259 4147 
z
M 628 4666 
L 2241 4666 
Q 2963 4666 3353 4366 
Q 3744 4066 3744 3513 
Q 3744 3084 3544 2831 
Q 3344 2578 2956 2516 
Q 3422 2416 3680 2098 
Q 3938 1781 3938 1306 
Q 3938 681 3513 340 
Q 3088 0 2303 0 
L 628 0 
L 628 4666 
z
" transform="scale(0.015625)"/>
      <path id="DejaVuSans-2b" d="M 2944 4013 
L 2944 2272 
L 4684 2272 
L 4684 1741 
L 2944 1741 
L 2944 0 
L 2419 0 
L 2419 1741 
L 678 1741 
L 678 2272 
L 2419 2272 
L 2419 4013 
L 2944 4013 
z
" transform="scale(0.015625)"/>
     </defs>
     <use xlink:href="#DejaVuSans-42"/>
     <use xlink:href="#DejaVuSans-3a" transform="translate(68.603516 0)"/>
     <use xlink:href="#DejaVuSans-20" transform="translate(102.294922 0)"/>
     <use xlink:href="#DejaVuSans-2b" transform="translate(134.082031 0)"/>
     <use xlink:href="#DejaVuSans-31" transform="translate(217.871094 0)"/>
    </g>
   </g>
   <g id="text_21">
    <!-- C: +1 -->
    <g style="fill: #f0f0f0" transform="translate(117.905893 68.3015) scale(0.1 -0.1)">
     <defs>
      <path id="DejaVuSans-43" d="M 4122 4306 
L 4122 3641 
Q 3803 3938 3442 4084 
Q 3081 4231 2675 4231 
Q 1875 4231 1450 3742 
Q 1025 3253 1025 2328 
Q 1025 1406 1450 917 
Q 1875 428 2675 428 
Q 3081 428 3442 575 
Q 3803 722 4122 1019 
L 4122 359 
Q 3791 134 3420 21 
Q 3050 -91 2638 -91 
Q 1578 -91 968 557 
Q 359 1206 359 2328 
Q 359 3453 968 4101 
Q 1578 4750 2638 4750 
Q 3056 4750 3426 4639 
Q 3797 4528 4122 4306 
z
" transform="scale(0.015625)"/>
     </defs>
     <use xlink:href="#DejaVuSans-43"/>
     <use xlink:href="#DejaVuSans-3a" transform="translate(69.824219 0)"/>
     <use xlink:href="#DejaVuSans-20" transform="translate(103.515625 0)"/>
     <use xlink:href="#DejaVuSans-2b" transform="translate(135.302734 0)"/>
     <use xlink:href="#DejaVuSans-31" transform="translate(219.091797 0)"/>
    </g>
   </g>
   <g id="text_22">
    <!-- A line separates the three-point toy set -->
    <g style="fill: #f0f0f0" transform="translate(80.225 25.1175) scale(0.16 -0.16)">
     <defs>
      <path id="DejaVuSans-6c" d="M 603 4863 
L 1178 4863 
L 1178 0 
L 603 0 
L 603 4863 
z
" transform="scale(0.015625)"/>
      <path id="DejaVuSans-69" d="M 603 3500 
L 1178 3500 
L 1178 0 
L 603 0 
L 603 3500 
z
M 603 4863 
L 1178 4863 
L 1178 4134 
L 603 4134 
L 603 4863 
z
" transform="scale(0.015625)"/>
      <path id="DejaVuSans-6e" d="M 3513 2113 
L 3513 0 
L 2938 0 
L 2938 2094 
Q 2938 2591 2744 2837 
Q 2550 3084 2163 3084 
Q 1697 3084 1428 2787 
Q 1159 2491 1159 1978 
L 1159 0 
L 581 0 
L 581 3500 
L 1159 3500 
L 1159 2956 
Q 1366 3272 1645 3428 
Q 1925 3584 2291 3584 
Q 2894 3584 3203 3211 
Q 3513 2838 3513 2113 
z
" transform="scale(0.015625)"/>
      <path id="DejaVuSans-65" d="M 3597 1894 
L 3597 1613 
L 953 1613 
Q 991 1019 1311 708 
Q 1631 397 2203 397 
Q 2534 397 2845 478 
Q 3156 559 3463 722 
L 3463 178 
Q 3153 47 2828 -22 
Q 2503 -91 2169 -91 
Q 1331 -91 842 396 
Q 353 884 353 1716 
Q 353 2575 817 3079 
Q 1281 3584 2069 3584 
Q 2775 3584 3186 3129 
Q 3597 2675 3597 1894 
z
M 3022 2063 
Q 3016 2534 2758 2815 
Q 2500 3097 2075 3097 
Q 1594 3097 1305 2825 
Q 1016 2553 972 2059 
L 3022 2063 
z
" transform="scale(0.015625)"/>
      <path id="DejaVuSans-73" d="M 2834 3397 
L 2834 2853 
Q 2591 2978 2328 3040 
Q 2066 3103 1784 3103 
Q 1356 3103 1142 2972 
Q 928 2841 928 2578 
Q 928 2378 1081 2264 
Q 1234 2150 1697 2047 
L 1894 2003 
Q 2506 1872 2764 1633 
Q 3022 1394 3022 966 
Q 3022 478 2636 193 
Q 2250 -91 1575 -91 
Q 1294 -91 989 -36 
Q 684 19 347 128 
L 347 722 
Q 666 556 975 473 
Q 1284 391 1588 391 
Q 1994 391 2212 530 
Q 2431 669 2431 922 
Q 2431 1156 2273 1281 
Q 2116 1406 1581 1522 
L 1381 1569 
Q 847 1681 609 1914 
Q 372 2147 372 2553 
Q 372 3047 722 3315 
Q 1072 3584 1716 3584 
Q 2034 3584 2315 3537 
Q 2597 3491 2834 3397 
z
" transform="scale(0.015625)"/>
      <path id="DejaVuSans-70" d="M 1159 525 
L 1159 -1331 
L 581 -1331 
L 581 3500 
L 1159 3500 
L 1159 2969 
Q 1341 3281 1617 3432 
Q 1894 3584 2278 3584 
Q 2916 3584 3314 3078 
Q 3713 2572 3713 1747 
Q 3713 922 3314 415 
Q 2916 -91 2278 -91 
Q 1894 -91 1617 61 
Q 1341 213 1159 525 
z
M 3116 1747 
Q 3116 2381 2855 2742 
Q 2594 3103 2138 3103 
Q 1681 3103 1420 2742 
Q 1159 2381 1159 1747 
Q 1159 1113 1420 752 
Q 1681 391 2138 391 
Q 2594 391 2855 752 
Q 3116 1113 3116 1747 
z
" transform="scale(0.015625)"/>
      <path id="DejaVuSans-61" d="M 2194 1759 
Q 1497 1759 1228 1600 
Q 959 1441 959 1056 
Q 959 750 1161 570 
Q 1363 391 1709 391 
Q 2188 391 2477 730 
Q 2766 1069 2766 1631 
L 2766 1759 
L 2194 1759 
z
M 3341 1997 
L 3341 0 
L 2766 0 
L 2766 531 
Q 2569 213 2275 61 
Q 1981 -91 1556 -91 
Q 1019 -91 701 211 
Q 384 513 384 1019 
Q 384 1609 779 1909 
Q 1175 2209 1959 2209 
L 2766 2209 
L 2766 2266 
Q 2766 2663 2505 2880 
Q 2244 3097 1772 3097 
Q 1472 3097 1187 3025 
Q 903 2953 641 2809 
L 641 3341 
Q 956 3463 1253 3523 
Q 1550 3584 1831 3584 
Q 2591 3584 2966 3190 
Q 3341 2797 3341 1997 
z
" transform="scale(0.015625)"/>
      <path id="DejaVuSans-72" d="M 2631 2963 
Q 2534 3019 2420 3045 
Q 2306 3072 2169 3072 
Q 1681 3072 1420 2755 
Q 1159 2438 1159 1844 
L 1159 0 
L 581 0 
L 581 3500 
L 1159 3500 
L 1159 2956 
Q 1341 3275 1631 3429 
Q 1922 3584 2338 3584 
Q 2397 3584 2469 3576 
Q 2541 3569 2628 3553 
L 2631 2963 
z
" transform="scale(0.015625)"/>
      <path id="DejaVuSans-74" d="M 1172 4494 
L 1172 3500 
L 2356 3500 
L 2356 3053 
L 1172 3053 
L 1172 1153 
Q 1172 725 1289 603 
Q 1406 481 1766 481 
L 2356 481 
L 2356 0 
L 1766 0 
Q 1100 0 847 248 
Q 594 497 594 1153 
L 594 3053 
L 172 3053 
L 172 3500 
L 594 3500 
L 594 4494 
L 1172 4494 
z
" transform="scale(0.015625)"/>
      <path id="DejaVuSans-68" d="M 3513 2113 
L 3513 0 
L 2938 0 
L 2938 2094 
Q 2938 2591 2744 2837 
Q 2550 3084 2163 3084 
Q 1697 3084 1428 2787 
Q 1159 2491 1159 1978 
L 1159 0 
L 581 0 
L 581 4863 
L 1159 4863 
L 1159 2956 
Q 1366 3272 1645 3428 
Q 1925 3584 2291 3584 
Q 2894 3584 3203 3211 
Q 3513 2838 3513 2113 
z
" transform="scale(0.015625)"/>
      <path id="DejaVuSans-6f" d="M 1959 3097 
Q 1497 3097 1228 2736 
Q 959 2375 959 1747 
Q 959 1119 1226 758 
Q 1494 397 1959 397 
Q 2419 397 2687 759 
Q 2956 1122 2956 1747 
Q 2956 2369 2687 2733 
Q 2419 3097 1959 3097 
z
M 1959 3584 
Q 2709 3584 3137 3096 
Q 3566 2609 3566 1747 
Q 3566 888 3137 398 
Q 2709 -91 1959 -91 
Q 1206 -91 779 398 
Q 353 888 353 1747 
Q 353 2609 779 3096 
Q 1206 3584 1959 3584 
z
" transform="scale(0.015625)"/>
      <path id="DejaVuSans-79" d="M 2059 -325 
Q 1816 -950 1584 -1140 
Q 1353 -1331 966 -1331 
L 506 -1331 
L 506 -850 
L 844 -850 
Q 1081 -850 1212 -737 
Q 1344 -625 1503 -206 
L 1606 56 
L 191 3500 
L 800 3500 
L 1894 763 
L 2988 3500 
L 3597 3500 
L 2059 -325 
z
" transform="scale(0.015625)"/>
     </defs>
     <use xlink:href="#DejaVuSans-41"/>
     <use xlink:href="#DejaVuSans-20" transform="translate(68.408203 0)"/>
     <use xlink:href="#DejaVuSans-6c" transform="translate(100.195312 0)"/>
     <use xlink:href="#DejaVuSans-69" transform="translate(127.978516 0)"/>
     <use xlink:href="#DejaVuSans-6e" transform="translate(155.761719 0)"/>
     <use xlink:href="#DejaVuSans-65" transform="translate(219.140625 0)"/>
     <use xlink:href="#DejaVuSans-20" transform="translate(280.664062 0)"/>
     <use xlink:href="#DejaVuSans-73" transform="translate(312.451172 0)"/>
     <use xlink:href="#DejaVuSans-65" transform="translate(364.550781 0)"/>
     <use xlink:href="#DejaVuSans-70" transform="translate(426.074219 0)"/>
     <use xlink:href="#DejaVuSans-61" transform="translate(489.550781 0)"/>
     <use xlink:href="#DejaVuSans-72" transform="translate(550.830078 0)"/>
     <use xlink:href="#DejaVuSans-61" transform="translate(591.943359 0)"/>
     <use xlink:href="#DejaVuSans-74" transform="translate(653.222656 0)"/>
     <use xlink:href="#DejaVuSans-65" transform="translate(692.431641 0)"/>
     <use xlink:href="#DejaVuSans-73" transform="translate(753.955078 0)"/>
     <use xlink:href="#DejaVuSans-20" transform="translate(806.054688 0)"/>
     <use xlink:href="#DejaVuSans-74" transform="translate(837.841797 0)"/>
     <use xlink:href="#DejaVuSans-68" transform="translate(877.050781 0)"/>
     <use xlink:href="#DejaVuSans-65" transform="translate(940.429688 0)"/>
     <use xlink:href="#DejaVuSans-20" transform="translate(1001.953125 0)"/>
     <use xlink:href="#DejaVuSans-74" transform="translate(1033.740234 0)"/>
     <use xlink:href="#DejaVuSans-68" transform="translate(1072.949219 0)"/>
     <use xlink:href="#DejaVuSans-72" transform="translate(1136.328125 0)"/>
     <use xlink:href="#DejaVuSans-65" transform="translate(1175.191406 0)"/>
     <use xlink:href="#DejaVuSans-65" transform="translate(1236.714844 0)"/>
     <use xlink:href="#DejaVuSans-2d" transform="translate(1298.238281 0)"/>
     <use xlink:href="#DejaVuSans-70" transform="translate(1334.322266 0)"/>
     <use xlink:href="#DejaVuSans-6f" transform="translate(1397.798828 0)"/>
     <use xlink:href="#DejaVuSans-69" transform="translate(1458.980469 0)"/>
     <use xlink:href="#DejaVuSans-6e" transform="translate(1486.763672 0)"/>
     <use xlink:href="#DejaVuSans-74" transform="translate(1550.142578 0)"/>
     <use xlink:href="#DejaVuSans-20" transform="translate(1589.351562 0)"/>
     <use xlink:href="#DejaVuSans-74" transform="translate(1621.138672 0)"/>
     <use xlink:href="#DejaVuSans-6f" transform="translate(1660.347656 0)"/>
     <use xlink:href="#DejaVuSans-79" transform="translate(1721.529297 0)"/>
     <use xlink:href="#DejaVuSans-20" transform="translate(1780.708984 0)"/>
     <use xlink:href="#DejaVuSans-73" transform="translate(1812.496094 0)"/>
     <use xlink:href="#DejaVuSans-65" transform="translate(1864.595703 0)"/>
     <use xlink:href="#DejaVuSans-74" transform="translate(1926.119141 0)"/>
    </g>
   </g>
   <g id="legend_1">
    <g id="line2d_34">
     <path d="M 313.49875 46.251172 
L 321.99875 46.251172 
L 330.49875 46.251172 
" style="fill: none; stroke: #f0f0f0; stroke-width: 1.75; stroke-linecap: square"/>
    </g>
    <g id="text_23">
     <!-- $2x_1 + 2x_2 - 1 = 0$ -->
     <g style="fill: #f0f0f0" transform="translate(337.29875 49.226172) scale(0.085 -0.085)">
      <defs>
       <path id="DejaVuSans-3d" d="M 678 2906 
L 4684 2906 
L 4684 2381 
L 678 2381 
L 678 2906 
z
M 678 1631 
L 4684 1631 
L 4684 1100 
L 678 1100 
L 678 1631 
z
" transform="scale(0.015625)"/>
      </defs>
      <use xlink:href="#DejaVuSans-32" transform="translate(0 0.78125)"/>
      <use xlink:href="#DejaVuSans-Oblique-78" transform="translate(63.623047 0.78125)"/>
      <use xlink:href="#DejaVuSans-31" transform="translate(122.802734 -15.625) scale(0.7)"/>
      <use xlink:href="#DejaVuSans-2b" transform="translate(189.555664 0.78125)"/>
      <use xlink:href="#DejaVuSans-32" transform="translate(292.827148 0.78125)"/>
      <use xlink:href="#DejaVuSans-Oblique-78" transform="translate(356.450195 0.78125)"/>
      <use xlink:href="#DejaVuSans-32" transform="translate(415.629883 -15.625) scale(0.7)"/>
      <use xlink:href="#DejaVuSans-2212" transform="translate(482.382812 0.78125)"/>
      <use xlink:href="#DejaVuSans-31" transform="translate(585.654297 0.78125)"/>
      <use xlink:href="#DejaVuSans-3d" transform="translate(668.759766 0.78125)"/>
      <use xlink:href="#DejaVuSans-30" transform="translate(772.03125 0.78125)"/>
     </g>
    </g>
   </g>
  </g>
 </g>
 <defs>
  <clipPath id="pb798feda63">
   <rect x="58.88875" y="35.1175" width="357.12" height="288.288"/>
  </clipPath>
 </defs>
</svg>
