<?xml version="1.0" encoding="utf-8" standalone="no"?>
<!DOCTYPE svg PUBLIC "-//W3C//DTD SVG 1.1//EN"
  "http://www.w3.org/Graphics/SVG/1.1/DTD/svg11.dtd">
<svg xmlns:xlink="http://www.w3.org/1999/xlink" width="549.711562pt" height="345.513562pt" viewBox="0 0 549.711562 345.513562" xmlns="http://www.w3.org/2000/svg" version="1.1">
 <metadata>
  <rdf:RDF xmlns:dc="http://purl.org/dc/elements/1.1/" xmlns:cc="http://creativecommons.org/ns#" xmlns:rdf="http://www.w3.org/1999/02/22-rdf-syntax-ns#">
   <cc:Work>
    <dc:type rdf:resource="http://purl.org/dc/dcmitype/StillImage"/>
    <dc:date>2026-05-27T22:06:24.321534</dc:date>
    <dc:format>image/svg+xml</dc:format>
    <dc:creator>
     <cc:Agent>
      <dc:title>Matplotlib v3.10.7, https://matplotlib.org/</dc:title>
     </cc:Agent>
    </dc:creator>
   </cc:Work>
  </rdf:RDF>
 </metadata>
 <defs>
  <style type="text/css">*{stroke-linejoin: round; stroke-linecap: butt}</style>
 </defs>
 <g id="figure_1">
  <g id="patch_1">
   <path d="M 0 345.513562 
L 549.711562 345.513562 
L 549.711562 0 
L 0 0 
z
" style="fill: #1a1a1a"/>
  </g>
  <g id="axes_1">
   <g id="patch_2">
    <path d="M 56.871563 301.2295 
L 536.751562 301.2295 
L 536.751562 35.1175 
L 56.871563 35.1175 
z
" style="fill: #1a1a1a"/>
   </g>
   <g id="matplotlib.axis_1">
    <g id="xtick_1">
     <g id="line2d_1">
      <path d="M 121.855313 301.2295 
L 121.855313 35.1175 
" clip-path="url(#pe9058f6818)" style="fill: none; stroke: #2f2f2f; stroke-opacity: 0.65; stroke-width: 0.6; stroke-linecap: square"/>
     </g>
     <g id="line2d_2">
      <defs>
       <path id="m5ef0ba2f89" d="M 0 0 
L 0 3.5 
" style="stroke: #bdbdbd; stroke-width: 0.8"/>
      </defs>
      <g>
       <use xlink:href="#m5ef0ba2f89" x="121.855313" y="301.2295" style="fill: #bdbdbd; stroke: #bdbdbd; stroke-width: 0.8"/>
      </g>
     </g>
     <g id="text_1">
      <!-- 1000 -->
      <g style="fill: #bdbdbd" transform="translate(109.130313 315.827937) scale(0.1 -0.1)">
       <defs>
        <path id="DejaVuSans-31" d="M 794 531 
L 1825 531 
L 1825 4091 
L 703 3866 
L 703 4441 
L 1819 4666 
L 2450 4666 
L 2450 531 
L 3481 531 
L 3481 0 
L 794 0 
L 794 531 
z
" transform="scale(0.015625)"/>
        <path id="DejaVuSans-30" d="M 2034 4250 
Q 1547 4250 1301 3770 
Q 1056 3291 1056 2328 
Q 1056 1369 1301 889 
Q 1547 409 2034 409 
Q 2525 409 2770 889 
Q 3016 1369 3016 2328 
Q 3016 3291 2770 3770 
Q 2525 4250 2034 4250 
z
M 2034 4750 
Q 2819 4750 3233 4129 
Q 3647 3509 3647 2328 
Q 3647 1150 3233 529 
Q 2819 -91 2034 -91 
Q 1250 -91 836 529 
Q 422 1150 422 2328 
Q 422 3509 836 4129 
Q 1250 4750 2034 4750 
z
" transform="scale(0.015625)"/>
       </defs>
       <use xlink:href="#DejaVuSans-31"/>
       <use xlink:href="#DejaVuSans-30" transform="translate(63.623047 0)"/>
       <use xlink:href="#DejaVuSans-30" transform="translate(127.246094 0)"/>
       <use xlink:href="#DejaVuSans-30" transform="translate(190.869141 0)"/>
      </g>
     </g>
    </g>
    <g id="xtick_2">
     <g id="line2d_3">
      <path d="M 221.830313 301.2295 
L 221.830313 35.1175 
" clip-path="url(#pe9058f6818)" style="fill: none; stroke: #2f2f2f; stroke-opacity: 0.65; stroke-width: 0.6; stroke-linecap: square"/>
     </g>
     <g id="line2d_4">
      <g>
       <use xlink:href="#m5ef0ba2f89" x="221.830313" y="301.2295" style="fill: #bdbdbd; stroke: #bdbdbd; stroke-width: 0.8"/>
      </g>
     </g>
     <g id="text_2">
      <!-- 2000 -->
      <g style="fill: #bdbdbd" transform="translate(209.105313 315.827937) scale(0.1 -0.1)">
       <defs>
        <path id="DejaVuSans-32" d="M 1228 531 
L 3431 531 
L 3431 0 
L 469 0 
L 469 531 
Q 828 903 1448 1529 
Q 2069 2156 2228 2338 
Q 2531 2678 2651 2914 
Q 2772 3150 2772 3378 
Q 2772 3750 2511 3984 
Q 2250 4219 1831 4219 
Q 1534 4219 1204 4116 
Q 875 4013 500 3803 
L 500 4441 
Q 881 4594 1212 4672 
Q 1544 4750 1819 4750 
Q 2544 4750 2975 4387 
Q 3406 4025 3406 3419 
Q 3406 3131 3298 2873 
Q 3191 2616 2906 2266 
Q 2828 2175 2409 1742 
Q 1991 1309 1228 531 
z
" transform="scale(0.015625)"/>
       </defs>
       <use xlink:href="#DejaVuSans-32"/>
       <use xlink:href="#DejaVuSans-30" transform="translate(63.623047 0)"/>
       <use xlink:href="#DejaVuSans-30" transform="translate(127.246094 0)"/>
       <use xlink:href="#DejaVuSans-30" transform="translate(190.869141 0)"/>
      </g>
     </g>
    </g>
    <g id="xtick_3">
     <g id="line2d_5">
      <path d="M 321.805313 301.2295 
L 321.805313 35.1175 
" clip-path="url(#pe9058f6818)" style="fill: none; stroke: #2f2f2f; stroke-opacity: 0.65; stroke-width: 0.6; stroke-linecap: square"/>
     </g>
     <g id="line2d_6">
      <g>
       <use xlink:href="#m5ef0ba2f89" x="321.805313" y="301.2295" style="fill: #bdbdbd; stroke: #bdbdbd; stroke-width: 0.8"/>
      </g>
     </g>
     <g id="text_3">
      <!-- 3000 -->
      <g style="fill: #bdbdbd" transform="translate(309.080312 315.827937) scale(0.1 -0.1)">
       <defs>
        <path id="DejaVuSans-33" d="M 2597 2516 
Q 3050 2419 3304 2112 
Q 3559 1806 3559 1356 
Q 3559 666 3084 287 
Q 2609 -91 1734 -91 
Q 1441 -91 1130 -33 
Q 819 25 488 141 
L 488 750 
Q 750 597 1062 519 
Q 1375 441 1716 441 
Q 2309 441 2620 675 
Q 2931 909 2931 1356 
Q 2931 1769 2642 2001 
Q 2353 2234 1838 2234 
L 1294 2234 
L 1294 2753 
L 1863 2753 
Q 2328 2753 2575 2939 
Q 2822 3125 2822 3475 
Q 2822 3834 2567 4026 
Q 2313 4219 1838 4219 
Q 1578 4219 1281 4162 
Q 984 4106 628 3988 
L 628 4550 
Q 988 4650 1302 4700 
Q 1616 4750 1894 4750 
Q 2613 4750 3031 4423 
Q 3450 4097 3450 3541 
Q 3450 3153 3228 2886 
Q 3006 2619 2597 2516 
z
" transform="scale(0.015625)"/>
       </defs>
       <use xlink:href="#DejaVuSans-33"/>
       <use xlink:href="#DejaVuSans-30" transform="translate(63.623047 0)"/>
       <use xlink:href="#DejaVuSans-30" transform="translate(127.246094 0)"/>
       <use xlink:href="#DejaVuSans-30" transform="translate(190.869141 0)"/>
      </g>
     </g>
    </g>
    <g id="xtick_4">
     <g id="line2d_7">
      <path d="M 421.780313 301.2295 
L 421.780313 35.1175 
" clip-path="url(#pe9058f6818)" style="fill: none; stroke: #2f2f2f; stroke-opacity: 0.65; stroke-width: 0.6; stroke-linecap: square"/>
     </g>
     <g id="line2d_8">
      <g>
       <use xlink:href="#m5ef0ba2f89" x="421.780313" y="301.2295" style="fill: #bdbdbd; stroke: #bdbdbd; stroke-width: 0.8"/>
      </g>
     </g>
     <g id="text_4">
      <!-- 4000 -->
      <g style="fill: #bdbdbd" transform="translate(409.055313 315.827937) scale(0.1 -0.1)">
       <defs>
        <path id="DejaVuSans-34" d="M 2419 4116 
L 825 1625 
L 2419 1625 
L 2419 4116 
z
M 2253 4666 
L 3047 4666 
L 3047 1625 
L 3713 1625 
L 3713 1100 
L 3047 1100 
L 3047 0 
L 2419 0 
L 2419 1100 
L 313 1100 
L 313 1709 
L 2253 4666 
z
" transform="scale(0.015625)"/>
       </defs>
       <use xlink:href="#DejaVuSans-34"/>
       <use xlink:href="#DejaVuSans-30" transform="translate(63.623047 0)"/>
       <use xlink:href="#DejaVuSans-30" transform="translate(127.246094 0)"/>
       <use xlink:href="#DejaVuSans-30" transform="translate(190.869141 0)"/>
      </g>
     </g>
    </g>
    <g id="xtick_5">
     <g id="line2d_9">
      <path d="M 521.755313 301.2295 
L 521.755313 35.1175 
" clip-path="url(#pe9058f6818)" style="fill: none; stroke: #2f2f2f; stroke-opacity: 0.65; stroke-width: 0.6; stroke-linecap: square"/>
     </g>
     <g id="line2d_10">
      <g>
       <use xlink:href="#m5ef0ba2f89" x="521.755313" y="301.2295" style="fill: #bdbdbd; stroke: #bdbdbd; stroke-width: 0.8"/>
      </g>
     </g>
     <g id="text_5">
      <!-- 5000 -->
      <g style="fill: #bdbdbd" transform="translate(509.030313 315.827937) scale(0.1 -0.1)">
       <defs>
        <path id="DejaVuSans-35" d="M 691 4666 
L 3169 4666 
L 3169 4134 
L 1269 4134 
L 1269 2991 
Q 1406 3038 1543 3061 
Q 1681 3084 1819 3084 
Q 2600 3084 3056 2656 
Q 3513 2228 3513 1497 
Q 3513 744 3044 326 
Q 2575 -91 1722 -91 
Q 1428 -91 1123 -41 
Q 819 9 494 109 
L 494 744 
Q 775 591 1075 516 
Q 1375 441 1709 441 
Q 2250 441 2565 725 
Q 2881 1009 2881 1497 
Q 2881 1984 2565 2268 
Q 2250 2553 1709 2553 
Q 1456 2553 1204 2497 
Q 953 2441 691 2322 
L 691 4666 
z
" transform="scale(0.015625)"/>
       </defs>
       <use xlink:href="#DejaVuSans-35"/>
       <use xlink:href="#DejaVuSans-30" transform="translate(63.623047 0)"/>
       <use xlink:href="#DejaVuSans-30" transform="translate(127.246094 0)"/>
       <use xlink:href="#DejaVuSans-30" transform="translate(190.869141 0)"/>
      </g>
     </g>
    </g>
    <g id="text_6">
     <!-- Number of randomly labeled examples -->
     <g style="fill: #f0f0f0" transform="translate(189.590781 330.265906) scale(0.11 -0.11)">
      <defs>
       <path id="DejaVuSans-4e" d="M 628 4666 
L 1478 4666 
L 3547 763 
L 3547 4666 
L 4159 4666 
L 4159 0 
L 3309 0 
L 1241 3903 
L 1241 0 
L 628 0 
L 628 4666 
z
" transform="scale(0.015625)"/>
       <path id="DejaVuSans-75" d="M 544 1381 
L 544 3500 
L 1119 3500 
L 1119 1403 
Q 1119 906 1312 657 
Q 1506 409 1894 409 
Q 2359 409 2629 706 
Q 2900 1003 2900 1516 
L 2900 3500 
L 3475 3500 
L 3475 0 
L 2900 0 
L 2900 538 
Q 2691 219 2414 64 
Q 2138 -91 1772 -91 
Q 1169 -91 856 284 
Q 544 659 544 1381 
z
M 1991 3584 
L 1991 3584 
z
" transform="scale(0.015625)"/>
       <path id="DejaVuSans-6d" d="M 3328 2828 
Q 3544 3216 3844 3400 
Q 4144 3584 4550 3584 
Q 5097 3584 5394 3201 
Q 5691 2819 5691 2113 
L 5691 0 
L 5113 0 
L 5113 2094 
Q 5113 2597 4934 2840 
Q 4756 3084 4391 3084 
Q 3944 3084 3684 2787 
Q 3425 2491 3425 1978 
L 3425 0 
L 2847 0 
L 2847 2094 
Q 2847 2600 2669 2842 
Q 2491 3084 2119 3084 
Q 1678 3084 1418 2786 
Q 1159 2488 1159 1978 
L 1159 0 
L 581 0 
L 581 3500 
L 1159 3500 
L 1159 2956 
Q 1356 3278 1631 3431 
Q 1906 3584 2284 3584 
Q 2666 3584 2933 3390 
Q 3200 3197 3328 2828 
z
" transform="scale(0.015625)"/>
       <path id="DejaVuSans-62" d="M 3116 1747 
Q 3116 2381 2855 2742 
Q 2594 3103 2138 3103 
Q 1681 3103 1420 2742 
Q 1159 2381 1159 1747 
Q 1159 1113 1420 752 
Q 1681 391 2138 391 
Q 2594 391 2855 752 
Q 3116 1113 3116 1747 
z
M 1159 2969 
Q 1341 3281 1617 3432 
Q 1894 3584 2278 3584 
Q 2916 3584 3314 3078 
Q 3713 2572 3713 1747 
Q 3713 922 3314 415 
Q 2916 -91 2278 -91 
Q 1894 -91 1617 61 
Q 1341 213 1159 525 
L 1159 0 
L 581 0 
L 581 4863 
L 1159 4863 
L 1159 2969 
z
" transform="scale(0.015625)"/>
       <path id="DejaVuSans-65" d="M 3597 1894 
L 3597 1613 
L 953 1613 
Q 991 1019 1311 708 
Q 1631 397 2203 397 
Q 2534 397 2845 478 
Q 3156 559 3463 722 
L 3463 178 
Q 3153 47 2828 -22 
Q 2503 -91 2169 -91 
Q 1331 -91 842 396 
Q 353 884 353 1716 
Q 353 2575 817 3079 
Q 1281 3584 2069 3584 
Q 2775 3584 3186 3129 
Q 3597 2675 3597 1894 
z
M 3022 2063 
Q 3016 2534 2758 2815 
Q 2500 3097 2075 3097 
Q 1594 3097 1305 2825 
Q 1016 2553 972 2059 
L 3022 2063 
z
" transform="scale(0.015625)"/>
       <path id="DejaVuSans-72" d="M 2631 2963 
Q 2534 3019 2420 3045 
Q 2306 3072 2169 3072 
Q 1681 3072 1420 2755 
Q 1159 2438 1159 1844 
L 1159 0 
L 581 0 
L 581 3500 
L 1159 3500 
L 1159 2956 
Q 1341 3275 1631 3429 
Q 1922 3584 2338 3584 
Q 2397 3584 2469 3576 
Q 2541 3569 2628 3553 
L 2631 2963 
z
" transform="scale(0.015625)"/>
       <path id="DejaVuSans-20" transform="scale(0.015625)"/>
       <path id="DejaVuSans-6f" d="M 1959 3097 
Q 1497 3097 1228 2736 
Q 959 2375 959 1747 
Q 959 1119 1226 758 
Q 1494 397 1959 397 
Q 2419 397 2687 759 
Q 2956 1122 2956 1747 
Q 2956 2369 2687 2733 
Q 2419 3097 1959 3097 
z
M 1959 3584 
Q 2709 3584 3137 3096 
Q 3566 2609 3566 1747 
Q 3566 888 3137 398 
Q 2709 -91 1959 -91 
Q 1206 -91 779 398 
Q 353 888 353 1747 
Q 353 2609 779 3096 
Q 1206 3584 1959 3584 
z
" transform="scale(0.015625)"/>
       <path id="DejaVuSans-66" d="M 2375 4863 
L 2375 4384 
L 1825 4384 
Q 1516 4384 1395 4259 
Q 1275 4134 1275 3809 
L 1275 3500 
L 2222 3500 
L 2222 3053 
L 1275 3053 
L 1275 0 
L 697 0 
L 697 3053 
L 147 3053 
L 147 3500 
L 697 3500 
L 697 3744 
Q 697 4328 969 4595 
Q 1241 4863 1831 4863 
L 2375 4863 
z
" transform="scale(0.015625)"/>
       <path id="DejaVuSans-61" d="M 2194 1759 
Q 1497 1759 1228 1600 
Q 959 1441 959 1056 
Q 959 750 1161 570 
Q 1363 391 1709 391 
Q 2188 391 2477 730 
Q 2766 1069 2766 1631 
L 2766 1759 
L 2194 1759 
z
M 3341 1997 
L 3341 0 
L 2766 0 
L 2766 531 
Q 2569 213 2275 61 
Q 1981 -91 1556 -91 
Q 1019 -91 701 211 
Q 384 513 384 1019 
Q 384 1609 779 1909 
Q 1175 2209 1959 2209 
L 2766 2209 
L 2766 2266 
Q 2766 2663 2505 2880 
Q 2244 3097 1772 3097 
Q 1472 3097 1187 3025 
Q 903 2953 641 2809 
L 641 3341 
Q 956 3463 1253 3523 
Q 1550 3584 1831 3584 
Q 2591 3584 2966 3190 
Q 3341 2797 3341 1997 
z
" transform="scale(0.015625)"/>
       <path id="DejaVuSans-6e" d="M 3513 2113 
L 3513 0 
L 2938 0 
L 2938 2094 
Q 2938 2591 2744 2837 
Q 2550 3084 2163 3084 
Q 1697 3084 1428 2787 
Q 1159 2491 1159 1978 
L 1159 0 
L 581 0 
L 581 3500 
L 1159 3500 
L 1159 2956 
Q 1366 3272 1645 3428 
Q 1925 3584 2291 3584 
Q 2894 3584 3203 3211 
Q 3513 2838 3513 2113 
z
" transform="scale(0.015625)"/>
       <path id="DejaVuSans-64" d="M 2906 2969 
L 2906 4863 
L 3481 4863 
L 3481 0 
L 2906 0 
L 2906 525 
Q 2725 213 2448 61 
Q 2172 -91 1784 -91 
Q 1150 -91 751 415 
Q 353 922 353 1747 
Q 353 2572 751 3078 
Q 1150 3584 1784 3584 
Q 2172 3584 2448 3432 
Q 2725 3281 2906 2969 
z
M 947 1747 
Q 947 1113 1208 752 
Q 1469 391 1925 391 
Q 2381 391 2643 752 
Q 2906 1113 2906 1747 
Q 2906 2381 2643 2742 
Q 2381 3103 1925 3103 
Q 1469 3103 1208 2742 
Q 947 2381 947 1747 
z
" transform="scale(0.015625)"/>
       <path id="DejaVuSans-6c" d="M 603 4863 
L 1178 4863 
L 1178 0 
L 603 0 
L 603 4863 
z
" transform="scale(0.015625)"/>
       <path id="DejaVuSans-79" d="M 2059 -325 
Q 1816 -950 1584 -1140 
Q 1353 -1331 966 -1331 
L 506 -1331 
L 506 -850 
L 844 -850 
Q 1081 -850 1212 -737 
Q 1344 -625 1503 -206 
L 1606 56 
L 191 3500 
L 800 3500 
L 1894 763 
L 2988 3500 
L 3597 3500 
L 2059 -325 
z
" transform="scale(0.015625)"/>
       <path id="DejaVuSans-78" d="M 3513 3500 
L 2247 1797 
L 3578 0 
L 2900 0 
L 1881 1375 
L 863 0 
L 184 0 
L 1544 1831 
L 300 3500 
L 978 3500 
L 1906 2253 
L 2834 3500 
L 3513 3500 
z
" transform="scale(0.015625)"/>
       <path id="DejaVuSans-70" d="M 1159 525 
L 1159 -1331 
L 581 -1331 
L 581 3500 
L 1159 3500 
L 1159 2969 
Q 1341 3281 1617 3432 
Q 1894 3584 2278 3584 
Q 2916 3584 3314 3078 
Q 3713 2572 3713 1747 
Q 3713 922 3314 415 
Q 2916 -91 2278 -91 
Q 1894 -91 1617 61 
Q 1341 213 1159 525 
z
M 3116 1747 
Q 3116 2381 2855 2742 
Q 2594 3103 2138 3103 
Q 1681 3103 1420 2742 
Q 1159 2381 1159 1747 
Q 1159 1113 1420 752 
Q 1681 391 2138 391 
Q 2594 391 2855 752 
Q 3116 1113 3116 1747 
z
" transform="scale(0.015625)"/>
       <path id="DejaVuSans-73" d="M 2834 3397 
L 2834 2853 
Q 2591 2978 2328 3040 
Q 2066 3103 1784 3103 
Q 1356 3103 1142 2972 
Q 928 2841 928 2578 
Q 928 2378 1081 2264 
Q 1234 2150 1697 2047 
L 1894 2003 
Q 2506 1872 2764 1633 
Q 3022 1394 3022 966 
Q 3022 478 2636 193 
Q 2250 -91 1575 -91 
Q 1294 -91 989 -36 
Q 684 19 347 128 
L 347 722 
Q 666 556 975 473 
Q 1284 391 1588 391 
Q 1994 391 2212 530 
Q 2431 669 2431 922 
Q 2431 1156 2273 1281 
Q 2116 1406 1581 1522 
L 1381 1569 
Q 847 1681 609 1914 
Q 372 2147 372 2553 
Q 372 3047 722 3315 
Q 1072 3584 1716 3584 
Q 2034 3584 2315 3537 
Q 2597 3491 2834 3397 
z
" transform="scale(0.015625)"/>
      </defs>
      <use xlink:href="#DejaVuSans-4e"/>
      <use xlink:href="#DejaVuSans-75" transform="translate(74.804688 0)"/>
      <use xlink:href="#DejaVuSans-6d" transform="translate(138.183594 0)"/>
      <use xlink:href="#DejaVuSans-62" transform="translate(235.595703 0)"/>
      <use xlink:href="#DejaVuSans-65" transform="translate(299.072266 0)"/>
      <use xlink:href="#DejaVuSans-72" transform="translate(360.595703 0)"/>
      <use xlink:href="#DejaVuSans-20" transform="translate(401.708984 0)"/>
      <use xlink:href="#DejaVuSans-6f" transform="translate(433.496094 0)"/>
      <use xlink:href="#DejaVuSans-66" transform="translate(494.677734 0)"/>
      <use xlink:href="#DejaVuSans-20" transform="translate(529.882812 0)"/>
      <use xlink:href="#DejaVuSans-72" transform="translate(561.669922 0)"/>
      <use xlink:href="#DejaVuSans-61" transform="translate(602.783203 0)"/>
      <use xlink:href="#DejaVuSans-6e" transform="translate(664.0625 0)"/>
      <use xlink:href="#DejaVuSans-64" transform="translate(727.441406 0)"/>
      <use xlink:href="#DejaVuSans-6f" transform="translate(790.917969 0)"/>
      <use xlink:href="#DejaVuSans-6d" transform="translate(852.099609 0)"/>
      <use xlink:href="#DejaVuSans-6c" transform="translate(949.511719 0)"/>
      <use xlink:href="#DejaVuSans-79" transform="translate(977.294922 0)"/>
      <use xlink:href="#DejaVuSans-20" transform="translate(1036.474609 0)"/>
      <use xlink:href="#DejaVuSans-6c" transform="translate(1068.261719 0)"/>
      <use xlink:href="#DejaVuSans-61" transform="translate(1096.044922 0)"/>
      <use xlink:href="#DejaVuSans-62" transform="translate(1157.324219 0)"/>
      <use xlink:href="#DejaVuSans-65" transform="translate(1220.800781 0)"/>
      <use xlink:href="#DejaVuSans-6c" transform="translate(1282.324219 0)"/>
      <use xlink:href="#DejaVuSans-65" transform="translate(1310.107422 0)"/>
      <use xlink:href="#DejaVuSans-64" transform="translate(1371.630859 0)"/>
      <use xlink:href="#DejaVuSans-20" transform="translate(1435.107422 0)"/>
      <use xlink:href="#DejaVuSans-65" transform="translate(1466.894531 0)"/>
      <use xlink:href="#DejaVuSans-78" transform="translate(1526.667969 0)"/>
      <use xlink:href="#DejaVuSans-61" transform="translate(1585.847656 0)"/>
      <use xlink:href="#DejaVuSans-6d" transform="translate(1647.126953 0)"/>
      <use xlink:href="#DejaVuSans-70" transform="translate(1744.539062 0)"/>
      <use xlink:href="#DejaVuSans-6c" transform="translate(1808.015625 0)"/>
      <use xlink:href="#DejaVuSans-65" transform="translate(1835.798828 0)"/>
      <use xlink:href="#DejaVuSans-73" transform="translate(1897.322266 0)"/>
     </g>
    </g>
   </g>
   <g id="matplotlib.axis_2">
    <g id="ytick_1">
     <g id="line2d_11">
      <path d="M 56.871563 301.2295 
L 536.751562 301.2295 
" clip-path="url(#pe9058f6818)" style="fill: none; stroke: #2f2f2f; stroke-width: 0.8; stroke-linecap: square"/>
     </g>
     <g id="line2d_12">
      <defs>
       <path id="m6d841637b5" d="M 0 0 
L -3.5 0 
" style="stroke: #bdbdbd; stroke-width: 0.8"/>
      </defs>
      <g>
       <use xlink:href="#m6d841637b5" x="56.871563" y="301.2295" style="fill: #bdbdbd; stroke: #bdbdbd; stroke-width: 0.8"/>
      </g>
     </g>
     <g id="text_7">
      <!-- 0.00 -->
      <g style="fill: #bdbdbd" transform="translate(27.605938 305.028719) scale(0.1 -0.1)">
       <defs>
        <path id="DejaVuSans-2e" d="M 684 794 
L 1344 794 
L 1344 0 
L 684 0 
L 684 794 
z
" transform="scale(0.015625)"/>
       </defs>
       <use xlink:href="#DejaVuSans-30"/>
       <use xlink:href="#DejaVuSans-2e" transform="translate(63.623047 0)"/>
       <use xlink:href="#DejaVuSans-30" transform="translate(95.410156 0)"/>
       <use xlink:href="#DejaVuSans-30" transform="translate(159.033203 0)"/>
      </g>
     </g>
    </g>
    <g id="ytick_2">
     <g id="line2d_13">
      <path d="M 56.871563 260.9095 
L 536.751562 260.9095 
" clip-path="url(#pe9058f6818)" style="fill: none; stroke: #2f2f2f; stroke-width: 0.8; stroke-linecap: square"/>
     </g>
     <g id="line2d_14">
      <g>
       <use xlink:href="#m6d841637b5" x="56.871563" y="260.9095" style="fill: #bdbdbd; stroke: #bdbdbd; stroke-width: 0.8"/>
      </g>
     </g>
     <g id="text_8">
      <!-- 0.05 -->
      <g style="fill: #bdbdbd" transform="translate(27.605938 264.708719) scale(0.1 -0.1)">
       <use xlink:href="#DejaVuSans-30"/>
       <use xlink:href="#DejaVuSans-2e" transform="translate(63.623047 0)"/>
       <use xlink:href="#DejaVuSans-30" transform="translate(95.410156 0)"/>
       <use xlink:href="#DejaVuSans-35" transform="translate(159.033203 0)"/>
      </g>
     </g>
    </g>
    <g id="ytick_3">
     <g id="line2d_15">
      <path d="M 56.871563 220.5895 
L 536.751562 220.5895 
" clip-path="url(#pe9058f6818)" style="fill: none; stroke: #2f2f2f; stroke-width: 0.8; stroke-linecap: square"/>
     </g>
     <g id="line2d_16">
      <g>
       <use xlink:href="#m6d841637b5" x="56.871563" y="220.5895" style="fill: #bdbdbd; stroke: #bdbdbd; stroke-width: 0.8"/>
      </g>
     </g>
     <g id="text_9">
      <!-- 0.10 -->
      <g style="fill: #bdbdbd" transform="translate(27.605938 224.388719) scale(0.1 -0.1)">
       <use xlink:href="#DejaVuSans-30"/>
       <use xlink:href="#DejaVuSans-2e" transform="translate(63.623047 0)"/>
       <use xlink:href="#DejaVuSans-31" transform="translate(95.410156 0)"/>
       <use xlink:href="#DejaVuSans-30" transform="translate(159.033203 0)"/>
      </g>
     </g>
    </g>
    <g id="ytick_4">
     <g id="line2d_17">
      <path d="M 56.871563 180.2695 
L 536.751562 180.2695 
" clip-path="url(#pe9058f6818)" style="fill: none; stroke: #2f2f2f; stroke-width: 0.8; stroke-linecap: square"/>
     </g>
     <g id="line2d_18">
      <g>
       <use xlink:href="#m6d841637b5" x="56.871563" y="180.2695" style="fill: #bdbdbd; stroke: #bdbdbd; stroke-width: 0.8"/>
      </g>
     </g>
     <g id="text_10">
      <!-- 0.15 -->
      <g style="fill: #bdbdbd" transform="translate(27.605938 184.068719) scale(0.1 -0.1)">
       <use xlink:href="#DejaVuSans-30"/>
       <use xlink:href="#DejaVuSans-2e" transform="translate(63.623047 0)"/>
       <use xlink:href="#DejaVuSans-31" transform="translate(95.410156 0)"/>
       <use xlink:href="#DejaVuSans-35" transform="translate(159.033203 0)"/>
      </g>
     </g>
    </g>
    <g id="ytick_5">
     <g id="line2d_19">
      <path d="M 56.871563 139.9495 
L 536.751562 139.9495 
" clip-path="url(#pe9058f6818)" style="fill: none; stroke: #2f2f2f; stroke-width: 0.8; stroke-linecap: square"/>
     </g>
     <g id="line2d_20">
      <g>
       <use xlink:href="#m6d841637b5" x="56.871563" y="139.9495" style="fill: #bdbdbd; stroke: #bdbdbd; stroke-width: 0.8"/>
      </g>
     </g>
     <g id="text_11">
      <!-- 0.20 -->
      <g style="fill: #bdbdbd" transform="translate(27.605938 143.748719) scale(0.1 -0.1)">
       <use xlink:href="#DejaVuSans-30"/>
       <use xlink:href="#DejaVuSans-2e" transform="translate(63.623047 0)"/>
       <use xlink:href="#DejaVuSans-32" transform="translate(95.410156 0)"/>
       <use xlink:href="#DejaVuSans-30" transform="translate(159.033203 0)"/>
      </g>
     </g>
    </g>
    <g id="ytick_6">
     <g id="line2d_21">
      <path d="M 56.871563 99.6295 
L 536.751562 99.6295 
" clip-path="url(#pe9058f6818)" style="fill: none; stroke: #2f2f2f; stroke-width: 0.8; stroke-linecap: square"/>
     </g>
     <g id="line2d_22">
      <g>
       <use xlink:href="#m6d841637b5" x="56.871563" y="99.6295" style="fill: #bdbdbd; stroke: #bdbdbd; stroke-width: 0.8"/>
      </g>
     </g>
     <g id="text_12">
      <!-- 0.25 -->
      <g style="fill: #bdbdbd" transform="translate(27.605938 103.428719) scale(0.1 -0.1)">
       <use xlink:href="#DejaVuSans-30"/>
       <use xlink:href="#DejaVuSans-2e" transform="translate(63.623047 0)"/>
       <use xlink:href="#DejaVuSans-32" transform="translate(95.410156 0)"/>
       <use xlink:href="#DejaVuSans-35" transform="translate(159.033203 0)"/>
      </g>
     </g>
    </g>
    <g id="ytick_7">
     <g id="line2d_23">
      <path d="M 56.871563 59.3095 
L 536.751562 59.3095 
" clip-path="url(#pe9058f6818)" style="fill: none; stroke: #2f2f2f; stroke-width: 0.8; stroke-linecap: square"/>
     </g>
     <g id="line2d_24">
      <g>
       <use xlink:href="#m6d841637b5" x="56.871563" y="59.3095" style="fill: #bdbdbd; stroke: #bdbdbd; stroke-width: 0.8"/>
      </g>
     </g>
     <g id="text_13">
      <!-- 0.30 -->
      <g style="fill: #bdbdbd" transform="translate(27.605938 63.108719) scale(0.1 -0.1)">
       <use xlink:href="#DejaVuSans-30"/>
       <use xlink:href="#DejaVuSans-2e" transform="translate(63.623047 0)"/>
       <use xlink:href="#DejaVuSans-33" transform="translate(95.410156 0)"/>
       <use xlink:href="#DejaVuSans-30" transform="translate(159.033203 0)"/>
      </g>
     </g>
    </g>
    <g id="text_14">
     <!-- Training error -->
     <g style="fill: #f0f0f0" transform="translate(21.318281 204.932406) rotate(-90) scale(0.11 -0.11)">
      <defs>
       <path id="DejaVuSans-54" d="M -19 4666 
L 3928 4666 
L 3928 4134 
L 2272 4134 
L 2272 0 
L 1638 0 
L 1638 4134 
L -19 4134 
L -19 4666 
z
" transform="scale(0.015625)"/>
       <path id="DejaVuSans-69" d="M 603 3500 
L 1178 3500 
L 1178 0 
L 603 0 
L 603 3500 
z
M 603 4863 
L 1178 4863 
L 1178 4134 
L 603 4134 
L 603 4863 
z
" transform="scale(0.015625)"/>
       <path id="DejaVuSans-67" d="M 2906 1791 
Q 2906 2416 2648 2759 
Q 2391 3103 1925 3103 
Q 1463 3103 1205 2759 
Q 947 2416 947 1791 
Q 947 1169 1205 825 
Q 1463 481 1925 481 
Q 2391 481 2648 825 
Q 2906 1169 2906 1791 
z
M 3481 434 
Q 3481 -459 3084 -895 
Q 2688 -1331 1869 -1331 
Q 1566 -1331 1297 -1286 
Q 1028 -1241 775 -1147 
L 775 -588 
Q 1028 -725 1275 -790 
Q 1522 -856 1778 -856 
Q 2344 -856 2625 -561 
Q 2906 -266 2906 331 
L 2906 616 
Q 2728 306 2450 153 
Q 2172 0 1784 0 
Q 1141 0 747 490 
Q 353 981 353 1791 
Q 353 2603 747 3093 
Q 1141 3584 1784 3584 
Q 2172 3584 2450 3431 
Q 2728 3278 2906 2969 
L 2906 3500 
L 3481 3500 
L 3481 434 
z
" transform="scale(0.015625)"/>
      </defs>
      <use xlink:href="#DejaVuSans-54"/>
      <use xlink:href="#DejaVuSans-72" transform="translate(46.333984 0)"/>
      <use xlink:href="#DejaVuSans-61" transform="translate(87.447266 0)"/>
      <use xlink:href="#DejaVuSans-69" transform="translate(148.726562 0)"/>
      <use xlink:href="#DejaVuSans-6e" transform="translate(176.509766 0)"/>
      <use xlink:href="#DejaVuSans-69" transform="translate(239.888672 0)"/>
      <use xlink:href="#DejaVuSans-6e" transform="translate(267.671875 0)"/>
      <use xlink:href="#DejaVuSans-67" transform="translate(331.050781 0)"/>
      <use xlink:href="#DejaVuSans-20" transform="translate(394.527344 0)"/>
      <use xlink:href="#DejaVuSans-65" transform="translate(426.314453 0)"/>
      <use xlink:href="#DejaVuSans-72" transform="translate(487.837891 0)"/>
      <use xlink:href="#DejaVuSans-72" transform="translate(527.201172 0)"/>
      <use xlink:href="#DejaVuSans-6f" transform="translate(566.064453 0)"/>
      <use xlink:href="#DejaVuSans-72" transform="translate(627.246094 0)"/>
     </g>
    </g>
   </g>
   <g id="line2d_25">
    <path d="M 71.867813 301.2295 
L 121.855313 301.2295 
L 221.830313 301.2295 
L 431.377913 301.2295 
L 431.477888 301.2295 
L 521.755313 280.10182 
" clip-path="url(#pe9058f6818)" style="fill: none; stroke: #f0f0f0; stroke-width: 1.9; stroke-linecap: square"/>
    <defs>
     <path id="md814e037c1" d="M 0 2.4 
C 0.636487 2.4 1.246992 2.147121 1.697056 1.697056 
C 2.147121 1.246992 2.4 0.636487 2.4 0 
C 2.4 -0.636487 2.147121 -1.246992 1.697056 -1.697056 
C 1.246992 -2.147121 0.636487 -2.4 0 -2.4 
C -0.636487 -2.4 -1.246992 -2.147121 -1.697056 -1.697056 
C -2.147121 -1.246992 -2.4 -0.636487 -2.4 0 
C -2.4 0.636487 -2.147121 1.246992 -1.697056 1.697056 
C -1.246992 2.147121 -0.636487 2.4 0 2.4 
z
" style="stroke: #f0f0f0"/>
    </defs>
    <g clip-path="url(#pe9058f6818)">
     <use xlink:href="#md814e037c1" x="71.867813" y="301.2295" style="fill: #f0f0f0; stroke: #f0f0f0"/>
     <use xlink:href="#md814e037c1" x="121.855313" y="301.2295" style="fill: #f0f0f0; stroke: #f0f0f0"/>
     <use xlink:href="#md814e037c1" x="221.830313" y="301.2295" style="fill: #f0f0f0; stroke: #f0f0f0"/>
     <use xlink:href="#md814e037c1" x="431.377913" y="301.2295" style="fill: #f0f0f0; stroke: #f0f0f0"/>
     <use xlink:href="#md814e037c1" x="431.477888" y="301.2295" style="fill: #f0f0f0; stroke: #f0f0f0"/>
     <use xlink:href="#md814e037c1" x="521.755313" y="280.10182" style="fill: #f0f0f0; stroke: #f0f0f0"/>
    </g>
   </g>
   <g id="line2d_26">
    <path d="M 71.867813 301.2295 
L 121.855313 273.8119 
L 221.830313 173.4151 
L 431.377913 65.37325 
L 431.477888 94.561206 
L 521.755313 119.62822 
" clip-path="url(#pe9058f6818)" style="fill: none; stroke: #a6a6a6; stroke-width: 1.9; stroke-linecap: square"/>
    <defs>
     <path id="med134f021d" d="M 0 2.4 
C 0.636487 2.4 1.246992 2.147121 1.697056 1.697056 
C 2.147121 1.246992 2.4 0.636487 2.4 0 
C 2.4 -0.636487 2.147121 -1.246992 1.697056 -1.697056 
C 1.246992 -2.147121 0.636487 -2.4 0 -2.4 
C -0.636487 -2.4 -1.246992 -2.147121 -1.697056 -1.697056 
C -2.147121 -1.246992 -2.4 -0.636487 -2.4 0 
C -2.4 0.636487 -2.147121 1.246992 -1.697056 1.697056 
C -1.246992 2.147121 -0.636487 2.4 0 2.4 
z
" style="stroke: #a6a6a6"/>
    </defs>
    <g clip-path="url(#pe9058f6818)">
     <use xlink:href="#med134f021d" x="71.867813" y="301.2295" style="fill: #a6a6a6; stroke: #a6a6a6"/>
     <use xlink:href="#med134f021d" x="121.855313" y="273.8119" style="fill: #a6a6a6; stroke: #a6a6a6"/>
     <use xlink:href="#med134f021d" x="221.830313" y="173.4151" style="fill: #a6a6a6; stroke: #a6a6a6"/>
     <use xlink:href="#med134f021d" x="431.377913" y="65.37325" style="fill: #a6a6a6; stroke: #a6a6a6"/>
     <use xlink:href="#med134f021d" x="431.477888" y="94.561206" style="fill: #a6a6a6; stroke: #a6a6a6"/>
     <use xlink:href="#med134f021d" x="521.755313" y="119.62822" style="fill: #a6a6a6; stroke: #a6a6a6"/>
    </g>
   </g>
   <g id="line2d_27">
    <path d="M 431.477888 301.2295 
L 431.477888 35.1175 
" clip-path="url(#pe9058f6818)" style="fill: none; stroke-dasharray: 4.07,1.76; stroke-dashoffset: 0; stroke: #777777; stroke-width: 1.1"/>
   </g>
   <g id="patch_3">
    <path d="M 56.871563 301.2295 
L 56.871563 35.1175 
" style="fill: none; stroke: #f0f0f0; stroke-width: 0.8; stroke-linejoin: miter; stroke-linecap: square"/>
   </g>
   <g id="patch_4">
    <path d="M 56.871563 301.2295 
L 536.751563 301.2295 
" style="fill: none; stroke: #f0f0f0; stroke-width: 0.8; stroke-linejoin: miter; stroke-linecap: square"/>
   </g>
   <g id="text_15">
    <!-- Training error across sample sizes -->
    <g style="fill: #f0f0f0" transform="translate(161.311562 25.1175) scale(0.16 -0.16)">
     <defs>
      <path id="DejaVuSans-63" d="M 3122 3366 
L 3122 2828 
Q 2878 2963 2633 3030 
Q 2388 3097 2138 3097 
Q 1578 3097 1268 2742 
Q 959 2388 959 1747 
Q 959 1106 1268 751 
Q 1578 397 2138 397 
Q 2388 397 2633 464 
Q 2878 531 3122 666 
L 3122 134 
Q 2881 22 2623 -34 
Q 2366 -91 2075 -91 
Q 1284 -91 818 406 
Q 353 903 353 1747 
Q 353 2603 823 3093 
Q 1294 3584 2113 3584 
Q 2378 3584 2631 3529 
Q 2884 3475 3122 3366 
z
" transform="scale(0.015625)"/>
      <path id="DejaVuSans-7a" d="M 353 3500 
L 3084 3500 
L 3084 2975 
L 922 459 
L 3084 459 
L 3084 0 
L 275 0 
L 275 525 
L 2438 3041 
L 353 3041 
L 353 3500 
z
" transform="scale(0.015625)"/>
     </defs>
     <use xlink:href="#DejaVuSans-54"/>
     <use xlink:href="#DejaVuSans-72" transform="translate(46.333984 0)"/>
     <use xlink:href="#DejaVuSans-61" transform="translate(87.447266 0)"/>
     <use xlink:href="#DejaVuSans-69" transform="translate(148.726562 0)"/>
     <use xlink:href="#DejaVuSans-6e" transform="translate(176.509766 0)"/>
     <use xlink:href="#DejaVuSans-69" transform="translate(239.888672 0)"/>
     <use xlink:href="#DejaVuSans-6e" transform="translate(267.671875 0)"/>
     <use xlink:href="#DejaVuSans-67" transform="translate(331.050781 0)"/>
     <use xlink:href="#DejaVuSans-20" transform="translate(394.527344 0)"/>
     <use xlink:href="#DejaVuSans-65" transform="translate(426.314453 0)"/>
     <use xlink:href="#DejaVuSans-72" transform="translate(487.837891 0)"/>
     <use xlink:href="#DejaVuSans-72" transform="translate(527.201172 0)"/>
     <use xlink:href="#DejaVuSans-6f" transform="translate(566.064453 0)"/>
     <use xlink:href="#DejaVuSans-72" transform="translate(627.246094 0)"/>
     <use xlink:href="#DejaVuSans-20" transform="translate(668.359375 0)"/>
     <use xlink:href="#DejaVuSans-61" transform="translate(700.146484 0)"/>
     <use xlink:href="#DejaVuSans-63" transform="translate(761.425781 0)"/>
     <use xlink:href="#DejaVuSans-72" transform="translate(816.40625 0)"/>
     <use xlink:href="#DejaVuSans-6f" transform="translate(855.269531 0)"/>
     <use xlink:href="#DejaVuSans-73" transform="translate(916.451172 0)"/>
     <use xlink:href="#DejaVuSans-73" transform="translate(968.550781 0)"/>
     <use xlink:href="#DejaVuSans-20" transform="translate(1020.650391 0)"/>
     <use xlink:href="#DejaVuSans-73" transform="translate(1052.4375 0)"/>
     <use xlink:href="#DejaVuSans-61" transform="translate(1104.537109 0)"/>
     <use xlink:href="#DejaVuSans-6d" transform="translate(1165.816406 0)"/>
     <use xlink:href="#DejaVuSans-70" transform="translate(1263.228516 0)"/>
     <use xlink:href="#DejaVuSans-6c" transform="translate(1326.705078 0)"/>
     <use xlink:href="#DejaVuSans-65" transform="translate(1354.488281 0)"/>
     <use xlink:href="#DejaVuSans-20" transform="translate(1416.011719 0)"/>
     <use xlink:href="#DejaVuSans-73" transform="translate(1447.798828 0)"/>
     <use xlink:href="#DejaVuSans-69" transform="translate(1499.898438 0)"/>
     <use xlink:href="#DejaVuSans-7a" transform="translate(1527.681641 0)"/>
     <use xlink:href="#DejaVuSans-65" transform="translate(1580.171875 0)"/>
     <use xlink:href="#DejaVuSans-73" transform="translate(1641.695312 0)"/>
    </g>
   </g>
   <g id="legend_1">
    <g id="line2d_28">
     <path d="M 64.521563 46.251172 
L 73.021563 46.251172 
L 81.521563 46.251172 
" style="fill: none; stroke: #f0f0f0; stroke-width: 1.9; stroke-linecap: square"/>
     <g>
      <use xlink:href="#md814e037c1" x="73.021563" y="46.251172" style="fill: #f0f0f0; stroke: #f0f0f0"/>
     </g>
    </g>
    <g id="text_16">
     <!-- exact separator proof -->
     <g style="fill: #f0f0f0" transform="translate(88.321562 49.226172) scale(0.085 -0.085)">
      <defs>
       <path id="DejaVuSans-74" d="M 1172 4494 
L 1172 3500 
L 2356 3500 
L 2356 3053 
L 1172 3053 
L 1172 1153 
Q 1172 725 1289 603 
Q 1406 481 1766 481 
L 2356 481 
L 2356 0 
L 1766 0 
Q 1100 0 847 248 
Q 594 497 594 1153 
L 594 3053 
L 172 3053 
L 172 3500 
L 594 3500 
L 594 4494 
L 1172 4494 
z
" transform="scale(0.015625)"/>
      </defs>
      <use xlink:href="#DejaVuSans-65"/>
      <use xlink:href="#DejaVuSans-78" transform="translate(59.773438 0)"/>
      <use xlink:href="#DejaVuSans-61" transform="translate(118.953125 0)"/>
      <use xlink:href="#DejaVuSans-63" transform="translate(180.232422 0)"/>
      <use xlink:href="#DejaVuSans-74" transform="translate(235.212891 0)"/>
      <use xlink:href="#DejaVuSans-20" transform="translate(274.421875 0)"/>
      <use xlink:href="#DejaVuSans-73" transform="translate(306.208984 0)"/>
      <use xlink:href="#DejaVuSans-65" transform="translate(358.308594 0)"/>
      <use xlink:href="#DejaVuSans-70" transform="translate(419.832031 0)"/>
      <use xlink:href="#DejaVuSans-61" transform="translate(483.308594 0)"/>
      <use xlink:href="#DejaVuSans-72" transform="translate(544.587891 0)"/>
      <use xlink:href="#DejaVuSans-61" transform="translate(585.701172 0)"/>
      <use xlink:href="#DejaVuSans-74" transform="translate(646.980469 0)"/>
      <use xlink:href="#DejaVuSans-6f" transform="translate(686.189453 0)"/>
      <use xlink:href="#DejaVuSans-72" transform="translate(747.371094 0)"/>
      <use xlink:href="#DejaVuSans-20" transform="translate(788.484375 0)"/>
      <use xlink:href="#DejaVuSans-70" transform="translate(820.271484 0)"/>
      <use xlink:href="#DejaVuSans-72" transform="translate(883.748047 0)"/>
      <use xlink:href="#DejaVuSans-6f" transform="translate(922.611328 0)"/>
      <use xlink:href="#DejaVuSans-6f" transform="translate(983.792969 0)"/>
      <use xlink:href="#DejaVuSans-66" transform="translate(1044.974609 0)"/>
     </g>
    </g>
    <g id="line2d_29">
     <path d="M 64.521563 58.727578 
L 73.021563 58.727578 
L 81.521563 58.727578 
" style="fill: none; stroke: #a6a6a6; stroke-width: 1.9; stroke-linecap: square"/>
     <g>
      <use xlink:href="#med134f021d" x="73.021563" y="58.727578" style="fill: #a6a6a6; stroke: #a6a6a6"/>
     </g>
    </g>
    <g id="text_17">
     <!-- perceptron after 50 epochs -->
     <g style="fill: #f0f0f0" transform="translate(88.321562 61.702578) scale(0.085 -0.085)">
      <defs>
       <path id="DejaVuSans-68" d="M 3513 2113 
L 3513 0 
L 2938 0 
L 2938 2094 
Q 2938 2591 2744 2837 
Q 2550 3084 2163 3084 
Q 1697 3084 1428 2787 
Q 1159 2491 1159 1978 
L 1159 0 
L 581 0 
L 581 4863 
L 1159 4863 
L 1159 2956 
Q 1366 3272 1645 3428 
Q 1925 3584 2291 3584 
Q 2894 3584 3203 3211 
Q 3513 2838 3513 2113 
z
" transform="scale(0.015625)"/>
      </defs>
      <use xlink:href="#DejaVuSans-70"/>
      <use xlink:href="#DejaVuSans-65" transform="translate(63.476562 0)"/>
      <use xlink:href="#DejaVuSans-72" transform="translate(125 0)"/>
      <use xlink:href="#DejaVuSans-63" transform="translate(163.863281 0)"/>
      <use xlink:href="#DejaVuSans-65" transform="translate(218.84375 0)"/>
      <use xlink:href="#DejaVuSans-70" transform="translate(280.367188 0)"/>
      <use xlink:href="#DejaVuSans-74" transform="translate(343.84375 0)"/>
      <use xlink:href="#DejaVuSans-72" transform="translate(383.052734 0)"/>
      <use xlink:href="#DejaVuSans-6f" transform="translate(421.916016 0)"/>
      <use xlink:href="#DejaVuSans-6e" transform="translate(483.097656 0)"/>
      <use xlink:href="#DejaVuSans-20" transform="translate(546.476562 0)"/>
      <use xlink:href="#DejaVuSans-61" transform="translate(578.263672 0)"/>
      <use xlink:href="#DejaVuSans-66" transform="translate(639.542969 0)"/>
      <use xlink:href="#DejaVuSans-74" transform="translate(672.998047 0)"/>
      <use xlink:href="#DejaVuSans-65" transform="translate(712.207031 0)"/>
      <use xlink:href="#DejaVuSans-72" transform="translate(773.730469 0)"/>
      <use xlink:href="#DejaVuSans-20" transform="translate(814.84375 0)"/>
      <use xlink:href="#DejaVuSans-35" transform="translate(846.630859 0)"/>
      <use xlink:href="#DejaVuSans-30" transform="translate(910.253906 0)"/>
      <use xlink:href="#DejaVuSans-20" transform="translate(973.876953 0)"/>
      <use xlink:href="#DejaVuSans-65" transform="translate(1005.664062 0)"/>
      <use xlink:href="#DejaVuSans-70" transform="translate(1067.1875 0)"/>
      <use xlink:href="#DejaVuSans-6f" transform="translate(1130.664062 0)"/>
      <use xlink:href="#DejaVuSans-63" transform="translate(1191.845703 0)"/>
      <use xlink:href="#DejaVuSans-68" transform="translate(1246.826172 0)"/>
      <use xlink:href="#DejaVuSans-73" transform="translate(1310.205078 0)"/>
     </g>
    </g>
   </g>
  </g>
 </g>
 <defs>
  <clipPath id="pe9058f6818">
   <rect x="56.871563" y="35.1175" width="479.88" height="266.112"/>
  </clipPath>
 </defs>
</svg>
